<svg width="880" height="443" viewBox="0 0 880 443" fill="none" xmlns="http://www.w3.org/2000/svg">
<mask id="path-1-outside-1_14_8" maskUnits="userSpaceOnUse" x="0" y="0" width="880" height="443" fill="black">
<rect fill="white" width="880" height="443"/>
<path d="M107 3.96969C118.667 1.30304 128.833 4.13637 137.5 12.4697C143.833 19.4697 147 27.1364 147 35.4697C147 40.803 145.833 45.803 143.5 50.4697C137.5 61.803 127.667 67.803 114 68.4697C101.333 68.4697 91.8333 62.803 85.5 51.4697C82.8333 46.4697 81.5 41.1364 81.5 35.4697C81.5 30.4697 82.6667 25.6364 85 20.9697C89.3333 11.6364 96.6667 5.9697 107 3.96969ZM102 119.47C132 117.47 146.333 116.47 145 116.47H147V242.97C147 330.303 146.333 376.47 145 381.47C145.333 380.47 145 381.636 144 384.97C140.333 395.97 133.833 405.803 124.5 414.47C109.833 429.136 91 437.47 68 439.47C60.6667 440.136 54.5 440.136 49.5 439.47C29.1667 436.47 15 427.136 7 411.47C4.33333 405.803 3 399.803 3 393.47C3 380.47 8.83333 371.636 20.5 366.97C24.1667 365.303 28.1667 364.47 32.5 364.47C37.1667 364.47 41.8333 365.636 46.5 367.97C56.5 372.636 61.5 381.136 61.5 393.47C61.5 400.803 59.3333 407.136 55 412.47C54 413.803 53.3333 414.636 53 414.97L58.5 415.97C70.1667 417.303 79.1667 414.803 85.5 408.47C92.1667 402.136 97 392.803 100 380.47L101 373.97L101.5 272.47C101.5 204.136 101.333 168.97 101 166.97C100.333 161.97 98.5 158.136 95.5 155.47C91.8333 152.136 83 150.303 69 149.97H59V135.97C59 126.636 59.3333 121.97 60 121.97L102 119.47Z"/>
<path d="M286.832 113.97C288.165 113.303 292.832 113.303 300.832 113.97C313.832 113.97 325.332 115.636 335.332 118.97C350.999 124.303 363.665 132.136 373.332 142.47C381.999 151.47 387.665 161.47 390.332 172.47C390.999 175.136 391.499 197.636 391.832 239.97C391.832 280.97 392.165 302.803 392.832 305.47C395.165 311.803 398.665 313.97 403.332 311.97C403.999 311.636 404.832 310.97 405.832 309.97C408.165 307.636 409.332 302.47 409.332 294.47C409.665 292.47 409.832 288.97 409.832 283.97V264.97H434.832V282.47C434.832 295.136 434.665 302.136 434.332 303.47C432.332 316.47 424.665 326.636 411.332 333.97C398.332 340.303 386.832 342.136 376.832 339.47C367.165 336.803 359.832 330.636 354.832 320.97C353.499 318.97 352.499 316.803 351.832 314.47L351.332 312.47L346.832 316.97C341.165 322.636 334.165 327.47 325.832 331.47C309.832 339.803 292.499 343.636 273.832 342.97C251.165 341.97 233.165 334.303 219.832 319.97C214.832 314.97 210.999 309.636 208.332 303.97C201.999 290.636 200.999 277.303 205.332 263.97C211.332 245.97 224.999 231.803 246.332 221.47C261.665 213.803 279.332 208.47 299.332 205.47C311.999 203.136 325.332 201.636 339.332 200.97H344.832V188.97C344.499 180.636 343.999 175.136 343.332 172.47C342.332 168.136 340.165 163.303 336.832 157.97C328.832 146.303 318.499 139.47 305.832 137.47C298.165 136.136 287.165 136.47 272.832 138.47C270.165 139.136 268.665 139.47 268.332 139.47C267.665 139.47 268.165 140.303 269.832 141.97C275.165 148.97 276.999 157.47 275.332 167.47C272.665 178.803 265.499 185.97 253.832 188.97C243.165 191.636 233.832 189.136 225.832 181.47C219.832 175.803 216.999 168.136 217.332 158.47C217.665 153.47 218.999 148.47 221.332 143.47C224.999 136.47 231.665 130.136 241.332 124.47C252.999 118.803 268.165 115.303 286.832 113.97ZM344.832 248.97V223.97H341.832C335.499 223.97 328.499 224.803 320.832 226.47C309.499 228.47 298.165 231.803 286.832 236.47C268.499 244.803 257.665 256.97 254.332 272.97C252.665 283.303 254.665 292.803 260.332 301.47C270.332 317.136 285.332 322.636 305.332 317.97C306.332 317.636 307.332 317.303 308.332 316.97C322.999 312.97 333.499 304.47 339.832 291.47C340.499 289.803 341.165 288.303 341.832 286.97C343.832 279.303 344.832 266.636 344.832 248.97Z"/>
<path d="M495.332 3.96969C506.999 1.30304 517.165 4.13637 525.832 12.4697C532.165 19.4697 535.332 27.1364 535.332 35.4697C535.332 40.803 534.165 45.803 531.832 50.4697C525.832 61.803 515.999 67.803 502.332 68.4697C489.665 68.4697 480.165 62.803 473.832 51.4697C471.165 46.4697 469.832 41.1364 469.832 35.4697C469.832 30.4697 470.999 25.6364 473.332 20.9697C477.665 11.6364 484.999 5.9697 495.332 3.96969ZM491.832 119.47C519.832 117.47 533.165 116.47 531.832 116.47H533.332V210.97C533.332 273.97 533.665 305.803 534.332 306.47C535.332 307.47 536.165 307.97 536.832 307.97C538.832 308.97 546.165 309.47 558.832 309.47H568.332V337.47H564.332L535.832 336.47C519.165 336.136 501.999 336.136 484.332 336.47C463.999 337.136 453.665 337.47 453.332 337.47H448.832V309.47H459.332C476.665 309.47 485.999 308.303 487.332 305.97C487.665 305.636 487.832 282.636 487.832 236.97C487.832 188.97 487.165 163.303 485.832 159.97C484.832 156.97 482.832 154.803 479.832 153.47C475.165 151.136 467.332 149.97 456.332 149.97H450.832V121.97H451.832L491.832 119.47Z"/>
<path d="M664.492 113.97C665.159 113.636 669.159 113.47 676.492 113.47C689.826 113.803 701.492 116.303 711.492 120.97L717.492 124.47L725.492 118.97L732.992 113.47H737.492C740.492 113.47 742.492 113.97 743.492 114.97L744.992 116.47V180.47L741.992 183.47H722.992L721.492 181.97C720.492 180.97 719.992 178.803 719.992 175.47C718.326 154.47 707.492 141.47 687.492 136.47C680.159 135.136 670.992 134.97 659.992 135.97C658.992 136.303 658.159 136.47 657.492 136.47C640.826 140.136 631.992 148.803 630.992 162.47C630.326 172.47 634.992 180.47 644.992 186.47C649.992 189.47 660.492 192.636 676.492 195.97C690.492 198.636 698.159 200.303 699.492 200.97C721.159 206.303 737.326 218.136 747.992 236.47C748.659 237.803 749.326 238.97 749.992 239.97C754.659 249.636 757.159 258.803 757.492 267.47C758.159 287.136 753.326 303.303 742.992 315.97C735.659 325.97 724.826 333.303 710.492 337.97C690.826 344.636 671.326 345.303 651.992 339.97C642.326 336.97 634.492 332.97 628.492 327.97L625.992 326.47L616.992 333.47C608.326 339.803 603.159 342.97 601.492 342.97C598.492 342.97 596.492 342.47 595.492 341.47L593.992 339.97V301.97C593.992 274.97 594.826 260.97 596.492 259.97C597.159 259.636 600.659 259.47 606.992 259.47C613.992 259.47 617.826 260.303 618.492 261.97C618.826 262.636 619.326 264.47 619.992 267.47C629.659 306.47 651.826 323.47 686.492 318.47C703.826 316.47 714.659 308.636 718.992 294.97C719.659 292.97 719.992 289.636 719.992 284.97C719.992 280.303 719.659 276.97 718.992 274.97C716.992 268.303 712.159 262.303 704.492 256.97C699.159 253.303 688.326 249.803 671.992 246.47C653.326 243.136 639.992 239.303 631.992 234.97C624.326 231.303 617.659 226.636 611.992 220.97C606.992 215.97 602.826 210.136 599.492 203.47C596.159 196.47 594.326 189.136 593.992 181.47C593.659 171.47 595.826 161.136 600.492 150.47C603.492 144.47 606.992 139.47 610.992 135.47C621.326 124.136 636.992 117.136 657.992 114.47C659.659 114.136 661.826 113.97 664.492 113.97Z"/>
<path d="M835.77 272.97C843.103 270.97 850.603 271.803 858.27 275.47C864.603 278.803 869.436 283.636 872.77 289.97C877.103 299.636 877.103 309.47 872.77 319.47C869.436 325.803 864.603 330.636 858.27 333.97C848.27 338.303 838.436 338.303 828.77 333.97C822.436 330.636 817.603 325.803 814.27 319.47C809.936 309.47 809.936 299.636 814.27 289.97C818.27 281.303 825.436 275.636 835.77 272.97Z"/>
<path d="M178.536 396.965C176.98 396.965 175.579 396.688 174.333 396.134C173.097 395.569 172.117 394.739 171.392 393.641C170.679 392.544 170.322 391.191 170.322 389.582C170.322 388.197 170.577 387.052 171.089 386.147C171.6 385.241 172.298 384.517 173.182 383.973C174.066 383.43 175.063 383.02 176.17 382.743C177.289 382.455 178.445 382.247 179.638 382.12C181.076 381.97 182.243 381.837 183.138 381.72C184.033 381.592 184.683 381.4 185.087 381.145C185.503 380.878 185.711 380.468 185.711 379.914V379.818C185.711 378.615 185.354 377.682 184.64 377.022C183.926 376.361 182.898 376.031 181.556 376.031C180.139 376.031 179.015 376.34 178.184 376.958C177.364 377.576 176.81 378.306 176.522 379.147L171.121 378.38C171.547 376.889 172.25 375.642 173.23 374.641C174.21 373.629 175.409 372.872 176.826 372.372C178.243 371.86 179.809 371.605 181.524 371.605C182.706 371.605 183.884 371.743 185.055 372.02C186.227 372.297 187.298 372.755 188.267 373.394C189.237 374.023 190.015 374.881 190.6 375.967C191.197 377.054 191.495 378.412 191.495 380.042V396.47H185.934V393.098H185.743C185.391 393.78 184.896 394.419 184.256 395.016C183.628 395.601 182.834 396.076 181.875 396.438C180.927 396.789 179.814 396.965 178.536 396.965ZM180.038 392.714C181.199 392.714 182.206 392.485 183.058 392.027C183.91 391.559 184.565 390.941 185.023 390.174C185.492 389.407 185.727 388.57 185.727 387.665V384.772C185.545 384.921 185.237 385.06 184.8 385.188C184.374 385.316 183.894 385.427 183.362 385.523C182.829 385.619 182.301 385.704 181.779 385.779C181.257 385.854 180.805 385.918 180.421 385.971C179.558 386.088 178.786 386.28 178.104 386.546C177.422 386.812 176.884 387.185 176.49 387.665C176.096 388.133 175.899 388.741 175.899 389.486C175.899 390.552 176.288 391.356 177.065 391.899C177.843 392.443 178.834 392.714 180.038 392.714Z"/>
<path d="M208.73 396.47V363.742H214.515V375.983H214.754C215.053 375.387 215.474 374.753 216.017 374.082C216.56 373.4 217.295 372.819 218.222 372.34C219.149 371.85 220.332 371.605 221.77 371.605C223.666 371.605 225.376 372.089 226.899 373.059C228.433 374.018 229.648 375.44 230.543 377.326C231.448 379.201 231.901 381.502 231.901 384.229C231.901 386.924 231.459 389.215 230.575 391.1C229.691 392.986 228.487 394.424 226.963 395.415C225.44 396.406 223.714 396.901 221.786 396.901C220.379 396.901 219.213 396.667 218.286 396.198C217.359 395.729 216.613 395.165 216.049 394.504C215.495 393.833 215.063 393.199 214.754 392.603H214.419V396.47H208.73ZM214.403 384.197C214.403 385.784 214.627 387.175 215.074 388.368C215.532 389.561 216.187 390.493 217.04 391.164C217.903 391.825 218.947 392.155 220.172 392.155C221.45 392.155 222.521 391.814 223.384 391.132C224.247 390.44 224.896 389.497 225.333 388.304C225.781 387.1 226.004 385.731 226.004 384.197C226.004 382.674 225.786 381.321 225.349 380.138C224.912 378.956 224.263 378.029 223.4 377.358C222.537 376.686 221.461 376.351 220.172 376.351C218.936 376.351 217.887 376.676 217.024 377.326C216.161 377.975 215.506 378.886 215.058 380.058C214.621 381.23 214.403 382.61 214.403 384.197Z"/>
<path d="M236.819 396.47V371.924H242.428V376.015H242.684C243.131 374.598 243.898 373.506 244.985 372.739C246.082 371.962 247.334 371.573 248.74 371.573C249.06 371.573 249.417 371.589 249.811 371.621C250.216 371.642 250.551 371.679 250.818 371.733V377.054C250.573 376.969 250.184 376.894 249.651 376.83C249.129 376.756 248.623 376.718 248.133 376.718C247.078 376.718 246.13 376.947 245.288 377.405C244.457 377.853 243.802 378.476 243.323 379.275C242.843 380.074 242.604 380.996 242.604 382.04V396.47H236.819Z"/>
<path d="M264.517 396.949C262.056 396.949 259.93 396.438 258.14 395.415C256.361 394.382 254.992 392.922 254.034 391.036C253.075 389.14 252.595 386.908 252.595 384.341C252.595 381.816 253.075 379.6 254.034 377.693C255.003 375.775 256.356 374.284 258.093 373.219C259.829 372.143 261.869 371.605 264.213 371.605C265.726 371.605 267.153 371.85 268.496 372.34C269.849 372.819 271.042 373.565 272.075 374.577C273.119 375.589 273.939 376.878 274.536 378.444C275.133 380 275.431 381.853 275.431 384.005V385.779H255.312V381.88H269.886C269.875 380.772 269.635 379.786 269.167 378.924C268.698 378.05 268.043 377.363 267.201 376.862C266.37 376.361 265.401 376.111 264.293 376.111C263.11 376.111 262.072 376.399 261.177 376.974C260.282 377.539 259.584 378.284 259.083 379.211C258.593 380.127 258.343 381.134 258.332 382.231V385.635C258.332 387.063 258.593 388.288 259.115 389.311C259.637 390.323 260.367 391.1 261.305 391.644C262.242 392.176 263.339 392.443 264.596 392.443C265.438 392.443 266.2 392.326 266.882 392.091C267.563 391.846 268.155 391.489 268.655 391.021C269.156 390.552 269.534 389.971 269.79 389.279L275.191 389.886C274.85 391.313 274.2 392.56 273.242 393.625C272.294 394.68 271.079 395.5 269.598 396.086C268.117 396.661 266.423 396.949 264.517 396.949Z"/>
<path d="M287.388 396.965C285.833 396.965 284.432 396.688 283.185 396.134C281.949 395.569 280.969 394.739 280.245 393.641C279.531 392.544 279.174 391.191 279.174 389.582C279.174 388.197 279.43 387.052 279.941 386.147C280.453 385.241 281.15 384.517 282.035 383.973C282.919 383.43 283.915 383.02 285.023 382.743C286.142 382.455 287.298 382.247 288.491 382.12C289.929 381.97 291.095 381.837 291.99 381.72C292.885 381.592 293.535 381.4 293.94 381.145C294.355 380.878 294.563 380.468 294.563 379.914V379.818C294.563 378.615 294.206 377.682 293.492 377.022C292.779 376.361 291.751 376.031 290.408 376.031C288.991 376.031 287.867 376.34 287.036 376.958C286.216 377.576 285.662 378.306 285.375 379.147L279.973 378.38C280.399 376.889 281.103 375.642 282.083 374.641C283.063 373.629 284.261 372.872 285.678 372.372C287.095 371.86 288.661 371.605 290.376 371.605C291.559 371.605 292.736 371.743 293.908 372.02C295.08 372.297 296.15 372.755 297.12 373.394C298.089 374.023 298.867 374.881 299.453 375.967C300.05 377.054 300.348 378.412 300.348 380.042V396.47H294.787V393.098H294.595C294.244 393.78 293.748 394.419 293.109 395.016C292.48 395.601 291.687 396.076 290.728 396.438C289.78 396.789 288.666 396.965 287.388 396.965ZM288.89 392.714C290.051 392.714 291.058 392.485 291.91 392.027C292.763 391.559 293.418 390.941 293.876 390.174C294.345 389.407 294.579 388.57 294.579 387.665V384.772C294.398 384.921 294.089 385.06 293.652 385.188C293.226 385.316 292.747 385.427 292.214 385.523C291.681 385.619 291.154 385.704 290.632 385.779C290.11 385.854 289.657 385.918 289.274 385.971C288.411 386.088 287.638 386.28 286.957 386.546C286.275 386.812 285.737 387.185 285.343 387.665C284.948 388.133 284.751 388.741 284.751 389.486C284.751 390.552 285.14 391.356 285.918 391.899C286.696 392.443 287.686 392.714 288.89 392.714Z"/>
<path d="M315.273 396.901C313.345 396.901 311.619 396.406 310.096 395.415C308.572 394.424 307.369 392.986 306.484 391.1C305.6 389.215 305.158 386.924 305.158 384.229C305.158 381.502 305.605 379.201 306.5 377.326C307.406 375.44 308.626 374.018 310.16 373.059C311.694 372.089 313.404 371.605 315.289 371.605C316.728 371.605 317.91 371.85 318.837 372.34C319.764 372.819 320.499 373.4 321.042 374.082C321.585 374.753 322.006 375.387 322.305 375.983H322.544V363.742H328.345V396.47H322.656V392.603H322.305C322.006 393.199 321.575 393.833 321.01 394.504C320.446 395.165 319.7 395.729 318.773 396.198C317.846 396.667 316.68 396.901 315.273 396.901ZM316.887 392.155C318.112 392.155 319.157 391.825 320.019 391.164C320.882 390.493 321.538 389.561 321.985 388.368C322.432 387.175 322.656 385.784 322.656 384.197C322.656 382.61 322.432 381.23 321.985 380.058C321.548 378.886 320.898 377.975 320.035 377.326C319.183 376.676 318.134 376.351 316.887 376.351C315.598 376.351 314.522 376.686 313.659 377.358C312.796 378.029 312.147 378.956 311.71 380.138C311.273 381.321 311.055 382.674 311.055 384.197C311.055 385.731 311.273 387.1 311.71 388.304C312.157 389.497 312.812 390.44 313.675 391.132C314.549 391.814 315.62 392.155 316.887 392.155Z"/>
<path d="M349.387 380.458V385.22H334.653V380.458H349.387Z"/>
<path d="M355.727 396.47V363.742H361.512V375.983H361.752C362.05 375.387 362.471 374.753 363.014 374.082C363.557 373.4 364.292 372.819 365.219 372.34C366.146 371.85 367.329 371.605 368.767 371.605C370.663 371.605 372.373 372.089 373.896 373.059C375.43 374.018 376.645 375.44 377.54 377.326C378.445 379.201 378.898 381.502 378.898 384.229C378.898 386.924 378.456 389.215 377.572 391.1C376.688 392.986 375.484 394.424 373.96 395.415C372.437 396.406 370.711 396.901 368.783 396.901C367.377 396.901 366.21 396.667 365.283 396.198C364.356 395.729 363.611 395.165 363.046 394.504C362.492 393.833 362.06 393.199 361.752 392.603H361.416V396.47H355.727ZM361.4 384.197C361.4 385.784 361.624 387.175 362.071 388.368C362.529 389.561 363.184 390.493 364.037 391.164C364.9 391.825 365.944 392.155 367.169 392.155C368.447 392.155 369.518 391.814 370.381 391.132C371.244 390.44 371.894 389.497 372.33 388.304C372.778 387.1 373.002 385.731 373.002 384.197C373.002 382.674 372.783 381.321 372.346 380.138C371.91 378.956 371.26 378.029 370.397 377.358C369.534 376.686 368.458 376.351 367.169 376.351C365.933 376.351 364.884 376.676 364.021 377.326C363.158 377.975 362.503 378.886 362.055 380.058C361.618 381.23 361.4 382.61 361.4 384.197Z"/>
<path d="M394.523 396.949C392.126 396.949 390.048 396.422 388.29 395.367C386.533 394.312 385.169 392.837 384.2 390.941C383.241 389.044 382.761 386.828 382.761 384.293C382.761 381.757 383.241 379.536 384.2 377.629C385.169 375.722 386.533 374.241 388.29 373.187C390.048 372.132 392.126 371.605 394.523 371.605C396.92 371.605 398.997 372.132 400.755 373.187C402.513 374.241 403.871 375.722 404.83 377.629C405.799 379.536 406.284 381.757 406.284 384.293C406.284 386.828 405.799 389.044 404.83 390.941C403.871 392.837 402.513 394.312 400.755 395.367C398.997 396.422 396.92 396.949 394.523 396.949ZM394.555 392.315C395.854 392.315 396.941 391.958 397.815 391.244C398.688 390.52 399.338 389.55 399.764 388.336C400.201 387.121 400.419 385.768 400.419 384.277C400.419 382.775 400.201 381.416 399.764 380.202C399.338 378.977 398.688 378.002 397.815 377.278C396.941 376.553 395.854 376.191 394.555 376.191C393.223 376.191 392.115 376.553 391.231 377.278C390.357 378.002 389.702 378.977 389.265 380.202C388.839 381.416 388.626 382.775 388.626 384.277C388.626 385.768 388.839 387.121 389.265 388.336C389.702 389.55 390.357 390.52 391.231 391.244C392.115 391.958 393.223 392.315 394.555 392.315Z"/>
<path d="M416.979 382.088V396.47H411.194V371.924H416.723V376.095H417.011C417.575 374.721 418.476 373.629 419.711 372.819C420.958 372.009 422.497 371.605 424.33 371.605C426.024 371.605 427.499 371.967 428.756 372.691C430.024 373.416 431.004 374.465 431.696 375.839C432.4 377.214 432.746 378.881 432.735 380.841V396.47H426.95V381.736C426.95 380.095 426.524 378.812 425.672 377.885C424.83 376.958 423.664 376.495 422.172 376.495C421.16 376.495 420.26 376.718 419.472 377.166C418.694 377.603 418.081 378.236 417.634 379.067C417.197 379.898 416.979 380.905 416.979 382.088Z"/>
<path d="M449.482 396.949C447.021 396.949 444.896 396.438 443.106 395.415C441.327 394.382 439.958 392.922 438.999 391.036C438.041 389.14 437.561 386.908 437.561 384.341C437.561 381.816 438.041 379.6 438.999 377.693C439.969 375.775 441.322 374.284 443.058 373.219C444.795 372.143 446.835 371.605 449.179 371.605C450.691 371.605 452.119 371.85 453.461 372.34C454.814 372.819 456.008 373.565 457.041 374.577C458.085 375.589 458.905 376.878 459.502 378.444C460.098 380 460.397 381.853 460.397 384.005V385.779H440.278V381.88H454.852C454.841 380.772 454.601 379.786 454.133 378.924C453.664 378.05 453.009 377.363 452.167 376.862C451.336 376.361 450.367 376.111 449.259 376.111C448.076 376.111 447.037 376.399 446.142 376.974C445.248 377.539 444.55 378.284 444.049 379.211C443.559 380.127 443.309 381.134 443.298 382.231V385.635C443.298 387.063 443.559 388.288 444.081 389.311C444.603 390.323 445.333 391.1 446.27 391.644C447.208 392.176 448.305 392.443 449.562 392.443C450.404 392.443 451.166 392.326 451.847 392.091C452.529 391.846 453.12 391.489 453.621 391.021C454.122 390.552 454.5 389.971 454.756 389.279L460.157 389.886C459.816 391.313 459.166 392.56 458.207 393.625C457.259 394.68 456.045 395.5 454.564 396.086C453.083 396.661 451.389 396.949 449.482 396.949Z"/>
<path d="M484.691 378.412L479.417 378.987C479.268 378.455 479.007 377.954 478.634 377.485C478.272 377.017 477.782 376.638 477.164 376.351C476.546 376.063 475.79 375.919 474.895 375.919C473.691 375.919 472.679 376.18 471.858 376.702C471.049 377.224 470.649 377.901 470.66 378.732C470.649 379.446 470.91 380.026 471.443 380.474C471.986 380.921 472.881 381.289 474.128 381.576L478.314 382.471C480.637 382.972 482.363 383.766 483.492 384.852C484.632 385.939 485.207 387.361 485.218 389.119C485.207 390.664 484.754 392.027 483.86 393.21C482.975 394.382 481.745 395.298 480.168 395.958C478.591 396.619 476.78 396.949 474.735 396.949C471.731 396.949 469.312 396.321 467.48 395.063C465.648 393.796 464.556 392.033 464.204 389.774L469.845 389.231C470.101 390.339 470.644 391.175 471.475 391.74C472.306 392.304 473.387 392.587 474.719 392.587C476.093 392.587 477.196 392.304 478.027 391.74C478.868 391.175 479.289 390.477 479.289 389.646C479.289 388.943 479.018 388.362 478.474 387.904C477.942 387.446 477.111 387.095 475.981 386.85L471.795 385.971C469.44 385.481 467.698 384.655 466.569 383.494C465.44 382.322 464.881 380.841 464.891 379.051C464.881 377.539 465.291 376.228 466.122 375.12C466.963 374.002 468.13 373.139 469.621 372.531C471.123 371.914 472.855 371.605 474.815 371.605C477.691 371.605 479.955 372.217 481.606 373.442C483.268 374.668 484.296 376.324 484.691 378.412Z"/>
<path d="M501.15 396.47V371.924H506.935V396.47H501.15ZM504.058 368.441C503.142 368.441 502.354 368.137 501.693 367.53C501.033 366.912 500.703 366.171 500.703 365.309C500.703 364.435 501.033 363.694 501.693 363.087C502.354 362.469 503.142 362.16 504.058 362.16C504.985 362.16 505.774 362.469 506.423 363.087C507.084 363.694 507.414 364.435 507.414 365.309C507.414 366.171 507.084 366.912 506.423 367.53C505.774 368.137 504.985 368.441 504.058 368.441Z"/>
<path d="M518.668 382.088V396.47H512.883V371.924H518.413V376.095H518.7C519.265 374.721 520.165 373.629 521.401 372.819C522.647 372.009 524.187 371.605 526.019 371.605C527.713 371.605 529.188 371.967 530.446 372.691C531.713 373.416 532.693 374.465 533.386 375.839C534.089 377.214 534.435 378.881 534.425 380.841V396.47H528.64V381.736C528.64 380.095 528.214 378.812 527.361 377.885C526.52 376.958 525.353 376.495 523.862 376.495C522.85 376.495 521.949 376.718 521.161 377.166C520.383 377.603 519.771 378.236 519.323 379.067C518.887 379.898 518.668 380.905 518.668 382.088Z"/>
<path d="M561.351 371.924L552.61 396.47H546.218L537.477 371.924H543.645L549.286 390.158H549.542L555.199 371.924H561.351Z"/>
<path d="M575.386 396.949C572.925 396.949 570.799 396.438 569.01 395.415C567.23 394.382 565.862 392.922 564.903 391.036C563.944 389.14 563.464 386.908 563.464 384.341C563.464 381.816 563.944 379.6 564.903 377.693C565.872 375.775 567.225 374.284 568.962 373.219C570.698 372.143 572.738 371.605 575.082 371.605C576.595 371.605 578.022 371.85 579.365 372.34C580.718 372.819 581.911 373.565 582.944 374.577C583.988 375.589 584.809 376.878 585.405 378.444C586.002 380 586.3 381.853 586.3 384.005V385.779H566.181V381.88H580.755C580.744 380.772 580.505 379.786 580.036 378.924C579.567 378.05 578.912 377.363 578.07 376.862C577.239 376.361 576.27 376.111 575.162 376.111C573.979 376.111 572.941 376.399 572.046 376.974C571.151 377.539 570.453 378.284 569.952 379.211C569.462 380.127 569.212 381.134 569.201 382.231V385.635C569.201 387.063 569.462 388.288 569.984 389.311C570.506 390.323 571.236 391.1 572.174 391.644C573.111 392.176 574.208 392.443 575.466 392.443C576.307 392.443 577.069 392.326 577.751 392.091C578.433 391.846 579.024 391.489 579.524 391.021C580.025 390.552 580.403 389.971 580.659 389.279L586.06 389.886C585.719 391.313 585.07 392.56 584.111 393.625C583.163 394.68 581.948 395.5 580.467 396.086C578.987 396.661 577.293 396.949 575.386 396.949Z"/>
<path d="M596.979 382.088V396.47H591.194V371.924H596.723V376.095H597.011C597.575 374.721 598.476 373.629 599.711 372.819C600.958 372.009 602.497 371.605 604.33 371.605C606.024 371.605 607.499 371.967 608.756 372.691C610.024 373.416 611.004 374.465 611.696 375.839C612.4 377.214 612.746 378.881 612.735 380.841V396.47H606.95V381.736C606.95 380.095 606.524 378.812 605.672 377.885C604.83 376.958 603.664 376.495 602.172 376.495C601.16 376.495 600.26 376.718 599.472 377.166C598.694 377.603 598.081 378.236 597.634 379.067C597.197 379.898 596.979 380.905 596.979 382.088Z"/>
<path d="M630.873 371.924V376.399H616.762V371.924H630.873ZM620.246 366.044H626.031V389.087C626.031 389.865 626.148 390.461 626.382 390.877C626.627 391.282 626.947 391.558 627.341 391.708C627.735 391.857 628.172 391.931 628.651 391.931C629.014 391.931 629.344 391.905 629.642 391.851C629.951 391.798 630.185 391.75 630.345 391.708L631.32 396.23C631.011 396.337 630.569 396.454 629.994 396.582C629.429 396.709 628.737 396.784 627.916 396.805C626.467 396.848 625.162 396.63 624.001 396.15C622.84 395.66 621.918 394.904 621.237 393.881C620.565 392.858 620.235 391.58 620.246 390.046V366.044Z"/>
<path d="M646.154 396.949C643.757 396.949 641.679 396.422 639.921 395.367C638.164 394.312 636.8 392.837 635.83 390.941C634.872 389.044 634.392 386.828 634.392 384.293C634.392 381.757 634.872 379.536 635.83 377.629C636.8 375.722 638.164 374.241 639.921 373.187C641.679 372.132 643.757 371.605 646.154 371.605C648.551 371.605 650.628 372.132 652.386 373.187C654.144 374.241 655.502 375.722 656.461 377.629C657.43 379.536 657.915 381.757 657.915 384.293C657.915 386.828 657.43 389.044 656.461 390.941C655.502 392.837 654.144 394.312 652.386 395.367C650.628 396.422 648.551 396.949 646.154 396.949ZM646.186 392.315C647.485 392.315 648.572 391.958 649.445 391.244C650.319 390.52 650.969 389.55 651.395 388.336C651.832 387.121 652.05 385.768 652.05 384.277C652.05 382.775 651.832 381.416 651.395 380.202C650.969 378.977 650.319 378.002 649.445 377.278C648.572 376.553 647.485 376.191 646.186 376.191C644.854 376.191 643.746 376.553 642.862 377.278C641.988 378.002 641.333 378.977 640.896 380.202C640.47 381.416 640.257 382.775 640.257 384.277C640.257 385.768 640.47 387.121 640.896 388.336C641.333 389.55 641.988 390.52 642.862 391.244C643.746 391.958 644.854 392.315 646.186 392.315Z"/>
<path d="M662.825 396.47V371.924H668.434V376.015H668.69C669.137 374.598 669.904 373.506 670.991 372.739C672.088 371.962 673.34 371.573 674.746 371.573C675.066 371.573 675.422 371.589 675.817 371.621C676.221 371.642 676.557 371.679 676.823 371.733V377.054C676.578 376.969 676.19 376.894 675.657 376.83C675.135 376.756 674.629 376.718 674.139 376.718C673.084 376.718 672.136 376.947 671.294 377.405C670.463 377.853 669.808 378.476 669.329 379.275C668.849 380.074 668.61 380.996 668.61 382.04V396.47H662.825Z"/>
<path d="M685.009 405.674C684.221 405.674 683.491 405.61 682.82 405.483C682.159 405.365 681.632 405.227 681.238 405.067L682.58 400.561C683.422 400.806 684.173 400.923 684.833 400.912C685.494 400.902 686.075 400.694 686.575 400.289C687.087 399.895 687.518 399.234 687.87 398.307L688.365 396.981L679.464 371.924H685.601L691.257 390.461H691.513L697.186 371.924H703.338L693.511 399.442C693.053 400.742 692.445 401.855 691.689 402.782C690.933 403.719 690.006 404.433 688.908 404.923C687.822 405.424 686.522 405.674 685.009 405.674Z"/>
<path d="M737.903 378.412L732.63 378.987C732.481 378.455 732.22 377.954 731.847 377.485C731.485 377.017 730.995 376.638 730.377 376.351C729.759 376.063 729.002 375.919 728.108 375.919C726.904 375.919 725.892 376.18 725.071 376.702C724.262 377.224 723.862 377.901 723.873 378.732C723.862 379.446 724.123 380.026 724.656 380.474C725.199 380.921 726.094 381.289 727.341 381.576L731.527 382.471C733.85 382.972 735.576 383.766 736.705 384.852C737.845 385.939 738.42 387.361 738.431 389.119C738.42 390.664 737.967 392.027 737.072 393.21C736.188 394.382 734.958 395.298 733.381 395.958C731.804 396.619 729.993 396.949 727.948 396.949C724.944 396.949 722.525 396.321 720.693 395.063C718.86 393.796 717.768 392.033 717.417 389.774L723.058 389.231C723.314 390.339 723.857 391.175 724.688 391.74C725.519 392.304 726.6 392.587 727.932 392.587C729.306 392.587 730.409 392.304 731.24 391.74C732.081 391.175 732.502 390.477 732.502 389.646C732.502 388.943 732.23 388.362 731.687 387.904C731.154 387.446 730.324 387.095 729.194 386.85L725.007 385.971C722.653 385.481 720.911 384.655 719.782 383.494C718.653 382.322 718.093 380.841 718.104 379.051C718.093 377.539 718.504 376.228 719.335 375.12C720.176 374.002 721.343 373.139 722.834 372.531C724.336 371.914 726.067 371.605 728.028 371.605C730.904 371.605 733.168 372.217 734.819 373.442C736.481 374.668 737.509 376.324 737.903 378.412Z"/>
<path d="M746.796 405.674C746.008 405.674 745.278 405.61 744.607 405.483C743.947 405.365 743.419 405.227 743.025 405.067L744.367 400.561C745.209 400.806 745.96 400.923 746.621 400.912C747.281 400.902 747.862 400.694 748.362 400.289C748.874 399.895 749.305 399.234 749.657 398.307L750.152 396.981L741.251 371.924H747.388L753.045 390.461H753.3L758.973 371.924H765.126L755.298 399.442C754.84 400.742 754.232 401.855 753.476 402.782C752.72 403.719 751.793 404.433 750.695 404.923C749.609 405.424 748.309 405.674 746.796 405.674Z"/>
<path d="M788.528 378.412L783.255 378.987C783.106 378.455 782.845 377.954 782.472 377.485C782.11 377.017 781.62 376.638 781.002 376.351C780.384 376.063 779.627 375.919 778.733 375.919C777.529 375.919 776.517 376.18 775.696 376.702C774.887 377.224 774.487 377.901 774.498 378.732C774.487 379.446 774.748 380.026 775.281 380.474C775.824 380.921 776.719 381.289 777.966 381.576L782.152 382.471C784.475 382.972 786.201 383.766 787.33 384.852C788.47 385.939 789.045 387.361 789.056 389.119C789.045 390.664 788.592 392.027 787.697 393.21C786.813 394.382 785.583 395.298 784.006 395.958C782.429 396.619 780.618 396.949 778.573 396.949C775.569 396.949 773.15 396.321 771.318 395.063C769.485 393.796 768.393 392.033 768.042 389.774L773.683 389.231C773.939 390.339 774.482 391.175 775.313 391.74C776.144 392.304 777.225 392.587 778.557 392.587C779.931 392.587 781.034 392.304 781.865 391.74C782.706 391.175 783.127 390.477 783.127 389.646C783.127 388.943 782.855 388.362 782.312 387.904C781.779 387.446 780.949 387.095 779.819 386.85L775.632 385.971C773.278 385.481 771.536 384.655 770.407 383.494C769.278 382.322 768.718 380.841 768.729 379.051C768.718 377.539 769.129 376.228 769.96 375.12C770.801 374.002 771.968 373.139 773.459 372.531C774.961 371.914 776.692 371.605 778.653 371.605C781.529 371.605 783.793 372.217 785.444 373.442C787.106 374.668 788.134 376.324 788.528 378.412Z"/>
<path d="M806.083 371.924V376.399H791.972V371.924H806.083ZM795.456 366.044H801.241V389.087C801.241 389.865 801.358 390.461 801.592 390.877C801.837 391.282 802.157 391.558 802.551 391.708C802.945 391.857 803.382 391.931 803.861 391.931C804.224 391.931 804.554 391.905 804.852 391.851C805.161 391.798 805.395 391.75 805.555 391.708L806.53 396.23C806.221 396.337 805.779 396.454 805.204 396.582C804.639 396.709 803.947 396.784 803.126 396.805C801.677 396.848 800.372 396.63 799.211 396.15C798.05 395.66 797.128 394.904 796.447 393.881C795.775 392.858 795.445 391.58 795.456 390.046V366.044Z"/>
<path d="M821.523 396.949C819.062 396.949 816.937 396.438 815.147 395.415C813.368 394.382 811.999 392.922 811.04 391.036C810.082 389.14 809.602 386.908 809.602 384.341C809.602 381.816 810.082 379.6 811.04 377.693C812.01 375.775 813.363 374.284 815.099 373.219C816.836 372.143 818.876 371.605 821.22 371.605C822.733 371.605 824.16 371.85 825.502 372.34C826.855 372.819 828.049 373.565 829.082 374.577C830.126 375.589 830.946 376.878 831.543 378.444C832.139 380 832.438 381.853 832.438 384.005V385.779H812.319V381.88H826.893C826.882 380.772 826.642 379.786 826.174 378.924C825.705 378.05 825.05 377.363 824.208 376.862C823.377 376.361 822.408 376.111 821.3 376.111C820.117 376.111 819.078 376.399 818.184 376.974C817.289 377.539 816.591 378.284 816.09 379.211C815.6 380.127 815.35 381.134 815.339 382.231V385.635C815.339 387.063 815.6 388.288 816.122 389.311C816.644 390.323 817.374 391.1 818.311 391.644C819.249 392.176 820.346 392.443 821.603 392.443C822.445 392.443 823.207 392.326 823.888 392.091C824.57 391.846 825.161 391.489 825.662 391.021C826.163 390.552 826.541 389.971 826.797 389.279L832.198 389.886C831.857 391.313 831.207 392.56 830.248 393.625C829.3 394.68 828.086 395.5 826.605 396.086C825.124 396.661 823.43 396.949 821.523 396.949Z"/>
<path d="M837.332 396.47V371.924H842.861V376.095H843.148C843.66 374.689 844.507 373.592 845.689 372.803C846.872 372.004 848.283 371.605 849.924 371.605C851.586 371.605 852.987 372.009 854.127 372.819C855.277 373.618 856.087 374.71 856.556 376.095H856.811C857.355 374.731 858.271 373.645 859.56 372.835C860.86 372.015 862.399 371.605 864.178 371.605C866.437 371.605 868.28 372.318 869.707 373.746C871.135 375.174 871.849 377.256 871.849 379.994V396.47H866.048V380.889C866.048 379.366 865.643 378.252 864.833 377.549C864.024 376.835 863.033 376.479 861.861 376.479C860.466 376.479 859.374 376.915 858.585 377.789C857.808 378.652 857.419 379.776 857.419 381.161V396.47H851.746V380.649C851.746 379.382 851.362 378.37 850.595 377.613C849.839 376.857 848.848 376.479 847.623 376.479C846.792 376.479 846.036 376.692 845.354 377.118C844.672 377.533 844.129 378.125 843.724 378.892C843.319 379.648 843.116 380.532 843.116 381.544V396.47H837.332Z"/>
</mask>
<path d="M107 3.96969C118.667 1.30304 128.833 4.13637 137.5 12.4697C143.833 19.4697 147 27.1364 147 35.4697C147 40.803 145.833 45.803 143.5 50.4697C137.5 61.803 127.667 67.803 114 68.4697C101.333 68.4697 91.8333 62.803 85.5 51.4697C82.8333 46.4697 81.5 41.1364 81.5 35.4697C81.5 30.4697 82.6667 25.6364 85 20.9697C89.3333 11.6364 96.6667 5.9697 107 3.96969ZM102 119.47C132 117.47 146.333 116.47 145 116.47H147V242.97C147 330.303 146.333 376.47 145 381.47C145.333 380.47 145 381.636 144 384.97C140.333 395.97 133.833 405.803 124.5 414.47C109.833 429.136 91 437.47 68 439.47C60.6667 440.136 54.5 440.136 49.5 439.47C29.1667 436.47 15 427.136 7 411.47C4.33333 405.803 3 399.803 3 393.47C3 380.47 8.83333 371.636 20.5 366.97C24.1667 365.303 28.1667 364.47 32.5 364.47C37.1667 364.47 41.8333 365.636 46.5 367.97C56.5 372.636 61.5 381.136 61.5 393.47C61.5 400.803 59.3333 407.136 55 412.47C54 413.803 53.3333 414.636 53 414.97L58.5 415.97C70.1667 417.303 79.1667 414.803 85.5 408.47C92.1667 402.136 97 392.803 100 380.47L101 373.97L101.5 272.47C101.5 204.136 101.333 168.97 101 166.97C100.333 161.97 98.5 158.136 95.5 155.47C91.8333 152.136 83 150.303 69 149.97H59V135.97C59 126.636 59.3333 121.97 60 121.97L102 119.47Z" fill="#C68958"/>
<path d="M286.832 113.97C288.165 113.303 292.832 113.303 300.832 113.97C313.832 113.97 325.332 115.636 335.332 118.97C350.999 124.303 363.665 132.136 373.332 142.47C381.999 151.47 387.665 161.47 390.332 172.47C390.999 175.136 391.499 197.636 391.832 239.97C391.832 280.97 392.165 302.803 392.832 305.47C395.165 311.803 398.665 313.97 403.332 311.97C403.999 311.636 404.832 310.97 405.832 309.97C408.165 307.636 409.332 302.47 409.332 294.47C409.665 292.47 409.832 288.97 409.832 283.97V264.97H434.832V282.47C434.832 295.136 434.665 302.136 434.332 303.47C432.332 316.47 424.665 326.636 411.332 333.97C398.332 340.303 386.832 342.136 376.832 339.47C367.165 336.803 359.832 330.636 354.832 320.97C353.499 318.97 352.499 316.803 351.832 314.47L351.332 312.47L346.832 316.97C341.165 322.636 334.165 327.47 325.832 331.47C309.832 339.803 292.499 343.636 273.832 342.97C251.165 341.97 233.165 334.303 219.832 319.97C214.832 314.97 210.999 309.636 208.332 303.97C201.999 290.636 200.999 277.303 205.332 263.97C211.332 245.97 224.999 231.803 246.332 221.47C261.665 213.803 279.332 208.47 299.332 205.47C311.999 203.136 325.332 201.636 339.332 200.97H344.832V188.97C344.499 180.636 343.999 175.136 343.332 172.47C342.332 168.136 340.165 163.303 336.832 157.97C328.832 146.303 318.499 139.47 305.832 137.47C298.165 136.136 287.165 136.47 272.832 138.47C270.165 139.136 268.665 139.47 268.332 139.47C267.665 139.47 268.165 140.303 269.832 141.97C275.165 148.97 276.999 157.47 275.332 167.47C272.665 178.803 265.499 185.97 253.832 188.97C243.165 191.636 233.832 189.136 225.832 181.47C219.832 175.803 216.999 168.136 217.332 158.47C217.665 153.47 218.999 148.47 221.332 143.47C224.999 136.47 231.665 130.136 241.332 124.47C252.999 118.803 268.165 115.303 286.832 113.97ZM344.832 248.97V223.97H341.832C335.499 223.97 328.499 224.803 320.832 226.47C309.499 228.47 298.165 231.803 286.832 236.47C268.499 244.803 257.665 256.97 254.332 272.97C252.665 283.303 254.665 292.803 260.332 301.47C270.332 317.136 285.332 322.636 305.332 317.97C306.332 317.636 307.332 317.303 308.332 316.97C322.999 312.97 333.499 304.47 339.832 291.47C340.499 289.803 341.165 288.303 341.832 286.97C343.832 279.303 344.832 266.636 344.832 248.97Z" fill="#C68958"/>
<path d="M495.332 3.96969C506.999 1.30304 517.165 4.13637 525.832 12.4697C532.165 19.4697 535.332 27.1364 535.332 35.4697C535.332 40.803 534.165 45.803 531.832 50.4697C525.832 61.803 515.999 67.803 502.332 68.4697C489.665 68.4697 480.165 62.803 473.832 51.4697C471.165 46.4697 469.832 41.1364 469.832 35.4697C469.832 30.4697 470.999 25.6364 473.332 20.9697C477.665 11.6364 484.999 5.9697 495.332 3.96969ZM491.832 119.47C519.832 117.47 533.165 116.47 531.832 116.47H533.332V210.97C533.332 273.97 533.665 305.803 534.332 306.47C535.332 307.47 536.165 307.97 536.832 307.97C538.832 308.97 546.165 309.47 558.832 309.47H568.332V337.47H564.332L535.832 336.47C519.165 336.136 501.999 336.136 484.332 336.47C463.999 337.136 453.665 337.47 453.332 337.47H448.832V309.47H459.332C476.665 309.47 485.999 308.303 487.332 305.97C487.665 305.636 487.832 282.636 487.832 236.97C487.832 188.97 487.165 163.303 485.832 159.97C484.832 156.97 482.832 154.803 479.832 153.47C475.165 151.136 467.332 149.97 456.332 149.97H450.832V121.97H451.832L491.832 119.47Z" fill="#C68958"/>
<path d="M664.492 113.97C665.159 113.636 669.159 113.47 676.492 113.47C689.826 113.803 701.492 116.303 711.492 120.97L717.492 124.47L725.492 118.97L732.992 113.47H737.492C740.492 113.47 742.492 113.97 743.492 114.97L744.992 116.47V180.47L741.992 183.47H722.992L721.492 181.97C720.492 180.97 719.992 178.803 719.992 175.47C718.326 154.47 707.492 141.47 687.492 136.47C680.159 135.136 670.992 134.97 659.992 135.97C658.992 136.303 658.159 136.47 657.492 136.47C640.826 140.136 631.992 148.803 630.992 162.47C630.326 172.47 634.992 180.47 644.992 186.47C649.992 189.47 660.492 192.636 676.492 195.97C690.492 198.636 698.159 200.303 699.492 200.97C721.159 206.303 737.326 218.136 747.992 236.47C748.659 237.803 749.326 238.97 749.992 239.97C754.659 249.636 757.159 258.803 757.492 267.47C758.159 287.136 753.326 303.303 742.992 315.97C735.659 325.97 724.826 333.303 710.492 337.97C690.826 344.636 671.326 345.303 651.992 339.97C642.326 336.97 634.492 332.97 628.492 327.97L625.992 326.47L616.992 333.47C608.326 339.803 603.159 342.97 601.492 342.97C598.492 342.97 596.492 342.47 595.492 341.47L593.992 339.97V301.97C593.992 274.97 594.826 260.97 596.492 259.97C597.159 259.636 600.659 259.47 606.992 259.47C613.992 259.47 617.826 260.303 618.492 261.97C618.826 262.636 619.326 264.47 619.992 267.47C629.659 306.47 651.826 323.47 686.492 318.47C703.826 316.47 714.659 308.636 718.992 294.97C719.659 292.97 719.992 289.636 719.992 284.97C719.992 280.303 719.659 276.97 718.992 274.97C716.992 268.303 712.159 262.303 704.492 256.97C699.159 253.303 688.326 249.803 671.992 246.47C653.326 243.136 639.992 239.303 631.992 234.97C624.326 231.303 617.659 226.636 611.992 220.97C606.992 215.97 602.826 210.136 599.492 203.47C596.159 196.47 594.326 189.136 593.992 181.47C593.659 171.47 595.826 161.136 600.492 150.47C603.492 144.47 606.992 139.47 610.992 135.47C621.326 124.136 636.992 117.136 657.992 114.47C659.659 114.136 661.826 113.97 664.492 113.97Z" fill="#C68958"/>
<path d="M835.77 272.97C843.103 270.97 850.603 271.803 858.27 275.47C864.603 278.803 869.436 283.636 872.77 289.97C877.103 299.636 877.103 309.47 872.77 319.47C869.436 325.803 864.603 330.636 858.27 333.97C848.27 338.303 838.436 338.303 828.77 333.97C822.436 330.636 817.603 325.803 814.27 319.47C809.936 309.47 809.936 299.636 814.27 289.97C818.27 281.303 825.436 275.636 835.77 272.97Z" fill="#C68958"/>
<path d="M178.536 396.965C176.98 396.965 175.579 396.688 174.333 396.134C173.097 395.569 172.117 394.739 171.392 393.641C170.679 392.544 170.322 391.191 170.322 389.582C170.322 388.197 170.577 387.052 171.089 386.147C171.6 385.241 172.298 384.517 173.182 383.973C174.066 383.43 175.063 383.02 176.17 382.743C177.289 382.455 178.445 382.247 179.638 382.12C181.076 381.97 182.243 381.837 183.138 381.72C184.033 381.592 184.683 381.4 185.087 381.145C185.503 380.878 185.711 380.468 185.711 379.914V379.818C185.711 378.615 185.354 377.682 184.64 377.022C183.926 376.361 182.898 376.031 181.556 376.031C180.139 376.031 179.015 376.34 178.184 376.958C177.364 377.576 176.81 378.306 176.522 379.147L171.121 378.38C171.547 376.889 172.25 375.642 173.23 374.641C174.21 373.629 175.409 372.872 176.826 372.372C178.243 371.86 179.809 371.605 181.524 371.605C182.706 371.605 183.884 371.743 185.055 372.02C186.227 372.297 187.298 372.755 188.267 373.394C189.237 374.023 190.015 374.881 190.6 375.967C191.197 377.054 191.495 378.412 191.495 380.042V396.47H185.934V393.098H185.743C185.391 393.78 184.896 394.419 184.256 395.016C183.628 395.601 182.834 396.076 181.875 396.438C180.927 396.789 179.814 396.965 178.536 396.965ZM180.038 392.714C181.199 392.714 182.206 392.485 183.058 392.027C183.91 391.559 184.565 390.941 185.023 390.174C185.492 389.407 185.727 388.57 185.727 387.665V384.772C185.545 384.921 185.237 385.06 184.8 385.188C184.374 385.316 183.894 385.427 183.362 385.523C182.829 385.619 182.301 385.704 181.779 385.779C181.257 385.854 180.805 385.918 180.421 385.971C179.558 386.088 178.786 386.28 178.104 386.546C177.422 386.812 176.884 387.185 176.49 387.665C176.096 388.133 175.899 388.741 175.899 389.486C175.899 390.552 176.288 391.356 177.065 391.899C177.843 392.443 178.834 392.714 180.038 392.714Z" fill="#C68958"/>
<path d="M208.73 396.47V363.742H214.515V375.983H214.754C215.053 375.387 215.474 374.753 216.017 374.082C216.56 373.4 217.295 372.819 218.222 372.34C219.149 371.85 220.332 371.605 221.77 371.605C223.666 371.605 225.376 372.089 226.899 373.059C228.433 374.018 229.648 375.44 230.543 377.326C231.448 379.201 231.901 381.502 231.901 384.229C231.901 386.924 231.459 389.215 230.575 391.1C229.691 392.986 228.487 394.424 226.963 395.415C225.44 396.406 223.714 396.901 221.786 396.901C220.379 396.901 219.213 396.667 218.286 396.198C217.359 395.729 216.613 395.165 216.049 394.504C215.495 393.833 215.063 393.199 214.754 392.603H214.419V396.47H208.73ZM214.403 384.197C214.403 385.784 214.627 387.175 215.074 388.368C215.532 389.561 216.187 390.493 217.04 391.164C217.903 391.825 218.947 392.155 220.172 392.155C221.45 392.155 222.521 391.814 223.384 391.132C224.247 390.44 224.896 389.497 225.333 388.304C225.781 387.1 226.004 385.731 226.004 384.197C226.004 382.674 225.786 381.321 225.349 380.138C224.912 378.956 224.263 378.029 223.4 377.358C222.537 376.686 221.461 376.351 220.172 376.351C218.936 376.351 217.887 376.676 217.024 377.326C216.161 377.975 215.506 378.886 215.058 380.058C214.621 381.23 214.403 382.61 214.403 384.197Z" fill="#C68958"/>
<path d="M236.819 396.47V371.924H242.428V376.015H242.684C243.131 374.598 243.898 373.506 244.985 372.739C246.082 371.962 247.334 371.573 248.74 371.573C249.06 371.573 249.417 371.589 249.811 371.621C250.216 371.642 250.551 371.679 250.818 371.733V377.054C250.573 376.969 250.184 376.894 249.651 376.83C249.129 376.756 248.623 376.718 248.133 376.718C247.078 376.718 246.13 376.947 245.288 377.405C244.457 377.853 243.802 378.476 243.323 379.275C242.843 380.074 242.604 380.996 242.604 382.04V396.47H236.819Z" fill="#C68958"/>
<path d="M264.517 396.949C262.056 396.949 259.93 396.438 258.14 395.415C256.361 394.382 254.992 392.922 254.034 391.036C253.075 389.14 252.595 386.908 252.595 384.341C252.595 381.816 253.075 379.6 254.034 377.693C255.003 375.775 256.356 374.284 258.093 373.219C259.829 372.143 261.869 371.605 264.213 371.605C265.726 371.605 267.153 371.85 268.496 372.34C269.849 372.819 271.042 373.565 272.075 374.577C273.119 375.589 273.939 376.878 274.536 378.444C275.133 380 275.431 381.853 275.431 384.005V385.779H255.312V381.88H269.886C269.875 380.772 269.635 379.786 269.167 378.924C268.698 378.05 268.043 377.363 267.201 376.862C266.37 376.361 265.401 376.111 264.293 376.111C263.11 376.111 262.072 376.399 261.177 376.974C260.282 377.539 259.584 378.284 259.083 379.211C258.593 380.127 258.343 381.134 258.332 382.231V385.635C258.332 387.063 258.593 388.288 259.115 389.311C259.637 390.323 260.367 391.1 261.305 391.644C262.242 392.176 263.339 392.443 264.596 392.443C265.438 392.443 266.2 392.326 266.882 392.091C267.563 391.846 268.155 391.489 268.655 391.021C269.156 390.552 269.534 389.971 269.79 389.279L275.191 389.886C274.85 391.313 274.2 392.56 273.242 393.625C272.294 394.68 271.079 395.5 269.598 396.086C268.117 396.661 266.423 396.949 264.517 396.949Z" fill="#C68958"/>
<path d="M287.388 396.965C285.833 396.965 284.432 396.688 283.185 396.134C281.949 395.569 280.969 394.739 280.245 393.641C279.531 392.544 279.174 391.191 279.174 389.582C279.174 388.197 279.43 387.052 279.941 386.147C280.453 385.241 281.15 384.517 282.035 383.973C282.919 383.43 283.915 383.02 285.023 382.743C286.142 382.455 287.298 382.247 288.491 382.12C289.929 381.97 291.095 381.837 291.99 381.72C292.885 381.592 293.535 381.4 293.94 381.145C294.355 380.878 294.563 380.468 294.563 379.914V379.818C294.563 378.615 294.206 377.682 293.492 377.022C292.779 376.361 291.751 376.031 290.408 376.031C288.991 376.031 287.867 376.34 287.036 376.958C286.216 377.576 285.662 378.306 285.375 379.147L279.973 378.38C280.399 376.889 281.103 375.642 282.083 374.641C283.063 373.629 284.261 372.872 285.678 372.372C287.095 371.86 288.661 371.605 290.376 371.605C291.559 371.605 292.736 371.743 293.908 372.02C295.08 372.297 296.15 372.755 297.12 373.394C298.089 374.023 298.867 374.881 299.453 375.967C300.05 377.054 300.348 378.412 300.348 380.042V396.47H294.787V393.098H294.595C294.244 393.78 293.748 394.419 293.109 395.016C292.48 395.601 291.687 396.076 290.728 396.438C289.78 396.789 288.666 396.965 287.388 396.965ZM288.89 392.714C290.051 392.714 291.058 392.485 291.91 392.027C292.763 391.559 293.418 390.941 293.876 390.174C294.345 389.407 294.579 388.57 294.579 387.665V384.772C294.398 384.921 294.089 385.06 293.652 385.188C293.226 385.316 292.747 385.427 292.214 385.523C291.681 385.619 291.154 385.704 290.632 385.779C290.11 385.854 289.657 385.918 289.274 385.971C288.411 386.088 287.638 386.28 286.957 386.546C286.275 386.812 285.737 387.185 285.343 387.665C284.948 388.133 284.751 388.741 284.751 389.486C284.751 390.552 285.14 391.356 285.918 391.899C286.696 392.443 287.686 392.714 288.89 392.714Z" fill="#C68958"/>
<path d="M315.273 396.901C313.345 396.901 311.619 396.406 310.096 395.415C308.572 394.424 307.369 392.986 306.484 391.1C305.6 389.215 305.158 386.924 305.158 384.229C305.158 381.502 305.605 379.201 306.5 377.326C307.406 375.44 308.626 374.018 310.16 373.059C311.694 372.089 313.404 371.605 315.289 371.605C316.728 371.605 317.91 371.85 318.837 372.34C319.764 372.819 320.499 373.4 321.042 374.082C321.585 374.753 322.006 375.387 322.305 375.983H322.544V363.742H328.345V396.47H322.656V392.603H322.305C322.006 393.199 321.575 393.833 321.01 394.504C320.446 395.165 319.7 395.729 318.773 396.198C317.846 396.667 316.68 396.901 315.273 396.901ZM316.887 392.155C318.112 392.155 319.157 391.825 320.019 391.164C320.882 390.493 321.538 389.561 321.985 388.368C322.432 387.175 322.656 385.784 322.656 384.197C322.656 382.61 322.432 381.23 321.985 380.058C321.548 378.886 320.898 377.975 320.035 377.326C319.183 376.676 318.134 376.351 316.887 376.351C315.598 376.351 314.522 376.686 313.659 377.358C312.796 378.029 312.147 378.956 311.71 380.138C311.273 381.321 311.055 382.674 311.055 384.197C311.055 385.731 311.273 387.1 311.71 388.304C312.157 389.497 312.812 390.44 313.675 391.132C314.549 391.814 315.62 392.155 316.887 392.155Z" fill="#C68958"/>
<path d="M349.387 380.458V385.22H334.653V380.458H349.387Z" fill="#C68958"/>
<path d="M355.727 396.47V363.742H361.512V375.983H361.752C362.05 375.387 362.471 374.753 363.014 374.082C363.557 373.4 364.292 372.819 365.219 372.34C366.146 371.85 367.329 371.605 368.767 371.605C370.663 371.605 372.373 372.089 373.896 373.059C375.43 374.018 376.645 375.44 377.54 377.326C378.445 379.201 378.898 381.502 378.898 384.229C378.898 386.924 378.456 389.215 377.572 391.1C376.688 392.986 375.484 394.424 373.96 395.415C372.437 396.406 370.711 396.901 368.783 396.901C367.377 396.901 366.21 396.667 365.283 396.198C364.356 395.729 363.611 395.165 363.046 394.504C362.492 393.833 362.06 393.199 361.752 392.603H361.416V396.47H355.727ZM361.4 384.197C361.4 385.784 361.624 387.175 362.071 388.368C362.529 389.561 363.184 390.493 364.037 391.164C364.9 391.825 365.944 392.155 367.169 392.155C368.447 392.155 369.518 391.814 370.381 391.132C371.244 390.44 371.894 389.497 372.33 388.304C372.778 387.1 373.002 385.731 373.002 384.197C373.002 382.674 372.783 381.321 372.346 380.138C371.91 378.956 371.26 378.029 370.397 377.358C369.534 376.686 368.458 376.351 367.169 376.351C365.933 376.351 364.884 376.676 364.021 377.326C363.158 377.975 362.503 378.886 362.055 380.058C361.618 381.23 361.4 382.61 361.4 384.197Z" fill="#C68958"/>
<path d="M394.523 396.949C392.126 396.949 390.048 396.422 388.29 395.367C386.533 394.312 385.169 392.837 384.2 390.941C383.241 389.044 382.761 386.828 382.761 384.293C382.761 381.757 383.241 379.536 384.2 377.629C385.169 375.722 386.533 374.241 388.29 373.187C390.048 372.132 392.126 371.605 394.523 371.605C396.92 371.605 398.997 372.132 400.755 373.187C402.513 374.241 403.871 375.722 404.83 377.629C405.799 379.536 406.284 381.757 406.284 384.293C406.284 386.828 405.799 389.044 404.83 390.941C403.871 392.837 402.513 394.312 400.755 395.367C398.997 396.422 396.92 396.949 394.523 396.949ZM394.555 392.315C395.854 392.315 396.941 391.958 397.815 391.244C398.688 390.52 399.338 389.55 399.764 388.336C400.201 387.121 400.419 385.768 400.419 384.277C400.419 382.775 400.201 381.416 399.764 380.202C399.338 378.977 398.688 378.002 397.815 377.278C396.941 376.553 395.854 376.191 394.555 376.191C393.223 376.191 392.115 376.553 391.231 377.278C390.357 378.002 389.702 378.977 389.265 380.202C388.839 381.416 388.626 382.775 388.626 384.277C388.626 385.768 388.839 387.121 389.265 388.336C389.702 389.55 390.357 390.52 391.231 391.244C392.115 391.958 393.223 392.315 394.555 392.315Z" fill="#C68958"/>
<path d="M416.979 382.088V396.47H411.194V371.924H416.723V376.095H417.011C417.575 374.721 418.476 373.629 419.711 372.819C420.958 372.009 422.497 371.605 424.33 371.605C426.024 371.605 427.499 371.967 428.756 372.691C430.024 373.416 431.004 374.465 431.696 375.839C432.4 377.214 432.746 378.881 432.735 380.841V396.47H426.95V381.736C426.95 380.095 426.524 378.812 425.672 377.885C424.83 376.958 423.664 376.495 422.172 376.495C421.16 376.495 420.26 376.718 419.472 377.166C418.694 377.603 418.081 378.236 417.634 379.067C417.197 379.898 416.979 380.905 416.979 382.088Z" fill="#C68958"/>
<path d="M449.482 396.949C447.021 396.949 444.896 396.438 443.106 395.415C441.327 394.382 439.958 392.922 438.999 391.036C438.041 389.14 437.561 386.908 437.561 384.341C437.561 381.816 438.041 379.6 438.999 377.693C439.969 375.775 441.322 374.284 443.058 373.219C444.795 372.143 446.835 371.605 449.179 371.605C450.691 371.605 452.119 371.85 453.461 372.34C454.814 372.819 456.008 373.565 457.041 374.577C458.085 375.589 458.905 376.878 459.502 378.444C460.098 380 460.397 381.853 460.397 384.005V385.779H440.278V381.88H454.852C454.841 380.772 454.601 379.786 454.133 378.924C453.664 378.05 453.009 377.363 452.167 376.862C451.336 376.361 450.367 376.111 449.259 376.111C448.076 376.111 447.037 376.399 446.142 376.974C445.248 377.539 444.55 378.284 444.049 379.211C443.559 380.127 443.309 381.134 443.298 382.231V385.635C443.298 387.063 443.559 388.288 444.081 389.311C444.603 390.323 445.333 391.1 446.27 391.644C447.208 392.176 448.305 392.443 449.562 392.443C450.404 392.443 451.166 392.326 451.847 392.091C452.529 391.846 453.12 391.489 453.621 391.021C454.122 390.552 454.5 389.971 454.756 389.279L460.157 389.886C459.816 391.313 459.166 392.56 458.207 393.625C457.259 394.68 456.045 395.5 454.564 396.086C453.083 396.661 451.389 396.949 449.482 396.949Z" fill="#C68958"/>
<path d="M484.691 378.412L479.417 378.987C479.268 378.455 479.007 377.954 478.634 377.485C478.272 377.017 477.782 376.638 477.164 376.351C476.546 376.063 475.79 375.919 474.895 375.919C473.691 375.919 472.679 376.18 471.858 376.702C471.049 377.224 470.649 377.901 470.66 378.732C470.649 379.446 470.91 380.026 471.443 380.474C471.986 380.921 472.881 381.289 474.128 381.576L478.314 382.471C480.637 382.972 482.363 383.766 483.492 384.852C484.632 385.939 485.207 387.361 485.218 389.119C485.207 390.664 484.754 392.027 483.86 393.21C482.975 394.382 481.745 395.298 480.168 395.958C478.591 396.619 476.78 396.949 474.735 396.949C471.731 396.949 469.312 396.321 467.48 395.063C465.648 393.796 464.556 392.033 464.204 389.774L469.845 389.231C470.101 390.339 470.644 391.175 471.475 391.74C472.306 392.304 473.387 392.587 474.719 392.587C476.093 392.587 477.196 392.304 478.027 391.74C478.868 391.175 479.289 390.477 479.289 389.646C479.289 388.943 479.018 388.362 478.474 387.904C477.942 387.446 477.111 387.095 475.981 386.85L471.795 385.971C469.44 385.481 467.698 384.655 466.569 383.494C465.44 382.322 464.881 380.841 464.891 379.051C464.881 377.539 465.291 376.228 466.122 375.12C466.963 374.002 468.13 373.139 469.621 372.531C471.123 371.914 472.855 371.605 474.815 371.605C477.691 371.605 479.955 372.217 481.606 373.442C483.268 374.668 484.296 376.324 484.691 378.412Z" fill="#C68958"/>
<path d="M501.15 396.47V371.924H506.935V396.47H501.15ZM504.058 368.441C503.142 368.441 502.354 368.137 501.693 367.53C501.033 366.912 500.703 366.171 500.703 365.309C500.703 364.435 501.033 363.694 501.693 363.087C502.354 362.469 503.142 362.16 504.058 362.16C504.985 362.16 505.774 362.469 506.423 363.087C507.084 363.694 507.414 364.435 507.414 365.309C507.414 366.171 507.084 366.912 506.423 367.53C505.774 368.137 504.985 368.441 504.058 368.441Z" fill="#C68958"/>
<path d="M518.668 382.088V396.47H512.883V371.924H518.413V376.095H518.7C519.265 374.721 520.165 373.629 521.401 372.819C522.647 372.009 524.187 371.605 526.019 371.605C527.713 371.605 529.188 371.967 530.446 372.691C531.713 373.416 532.693 374.465 533.386 375.839C534.089 377.214 534.435 378.881 534.425 380.841V396.47H528.64V381.736C528.64 380.095 528.214 378.812 527.361 377.885C526.52 376.958 525.353 376.495 523.862 376.495C522.85 376.495 521.949 376.718 521.161 377.166C520.383 377.603 519.771 378.236 519.323 379.067C518.887 379.898 518.668 380.905 518.668 382.088Z" fill="#C68958"/>
<path d="M561.351 371.924L552.61 396.47H546.218L537.477 371.924H543.645L549.286 390.158H549.542L555.199 371.924H561.351Z" fill="#C68958"/>
<path d="M575.386 396.949C572.925 396.949 570.799 396.438 569.01 395.415C567.23 394.382 565.862 392.922 564.903 391.036C563.944 389.14 563.464 386.908 563.464 384.341C563.464 381.816 563.944 379.6 564.903 377.693C565.872 375.775 567.225 374.284 568.962 373.219C570.698 372.143 572.738 371.605 575.082 371.605C576.595 371.605 578.022 371.85 579.365 372.34C580.718 372.819 581.911 373.565 582.944 374.577C583.988 375.589 584.809 376.878 585.405 378.444C586.002 380 586.3 381.853 586.3 384.005V385.779H566.181V381.88H580.755C580.744 380.772 580.505 379.786 580.036 378.924C579.567 378.05 578.912 377.363 578.07 376.862C577.239 376.361 576.27 376.111 575.162 376.111C573.979 376.111 572.941 376.399 572.046 376.974C571.151 377.539 570.453 378.284 569.952 379.211C569.462 380.127 569.212 381.134 569.201 382.231V385.635C569.201 387.063 569.462 388.288 569.984 389.311C570.506 390.323 571.236 391.1 572.174 391.644C573.111 392.176 574.208 392.443 575.466 392.443C576.307 392.443 577.069 392.326 577.751 392.091C578.433 391.846 579.024 391.489 579.524 391.021C580.025 390.552 580.403 389.971 580.659 389.279L586.06 389.886C585.719 391.313 585.07 392.56 584.111 393.625C583.163 394.68 581.948 395.5 580.467 396.086C578.987 396.661 577.293 396.949 575.386 396.949Z" fill="#C68958"/>
<path d="M596.979 382.088V396.47H591.194V371.924H596.723V376.095H597.011C597.575 374.721 598.476 373.629 599.711 372.819C600.958 372.009 602.497 371.605 604.33 371.605C606.024 371.605 607.499 371.967 608.756 372.691C610.024 373.416 611.004 374.465 611.696 375.839C612.4 377.214 612.746 378.881 612.735 380.841V396.47H606.95V381.736C606.95 380.095 606.524 378.812 605.672 377.885C604.83 376.958 603.664 376.495 602.172 376.495C601.16 376.495 600.26 376.718 599.472 377.166C598.694 377.603 598.081 378.236 597.634 379.067C597.197 379.898 596.979 380.905 596.979 382.088Z" fill="#C68958"/>
<path d="M630.873 371.924V376.399H616.762V371.924H630.873ZM620.246 366.044H626.031V389.087C626.031 389.865 626.148 390.461 626.382 390.877C626.627 391.282 626.947 391.558 627.341 391.708C627.735 391.857 628.172 391.931 628.651 391.931C629.014 391.931 629.344 391.905 629.642 391.851C629.951 391.798 630.185 391.75 630.345 391.708L631.32 396.23C631.011 396.337 630.569 396.454 629.994 396.582C629.429 396.709 628.737 396.784 627.916 396.805C626.467 396.848 625.162 396.63 624.001 396.15C622.84 395.66 621.918 394.904 621.237 393.881C620.565 392.858 620.235 391.58 620.246 390.046V366.044Z" fill="#C68958"/>
<path d="M646.154 396.949C643.757 396.949 641.679 396.422 639.921 395.367C638.164 394.312 636.8 392.837 635.83 390.941C634.872 389.044 634.392 386.828 634.392 384.293C634.392 381.757 634.872 379.536 635.83 377.629C636.8 375.722 638.164 374.241 639.921 373.187C641.679 372.132 643.757 371.605 646.154 371.605C648.551 371.605 650.628 372.132 652.386 373.187C654.144 374.241 655.502 375.722 656.461 377.629C657.43 379.536 657.915 381.757 657.915 384.293C657.915 386.828 657.43 389.044 656.461 390.941C655.502 392.837 654.144 394.312 652.386 395.367C650.628 396.422 648.551 396.949 646.154 396.949ZM646.186 392.315C647.485 392.315 648.572 391.958 649.445 391.244C650.319 390.52 650.969 389.55 651.395 388.336C651.832 387.121 652.05 385.768 652.05 384.277C652.05 382.775 651.832 381.416 651.395 380.202C650.969 378.977 650.319 378.002 649.445 377.278C648.572 376.553 647.485 376.191 646.186 376.191C644.854 376.191 643.746 376.553 642.862 377.278C641.988 378.002 641.333 378.977 640.896 380.202C640.47 381.416 640.257 382.775 640.257 384.277C640.257 385.768 640.47 387.121 640.896 388.336C641.333 389.55 641.988 390.52 642.862 391.244C643.746 391.958 644.854 392.315 646.186 392.315Z" fill="#C68958"/>
<path d="M662.825 396.47V371.924H668.434V376.015H668.69C669.137 374.598 669.904 373.506 670.991 372.739C672.088 371.962 673.34 371.573 674.746 371.573C675.066 371.573 675.422 371.589 675.817 371.621C676.221 371.642 676.557 371.679 676.823 371.733V377.054C676.578 376.969 676.19 376.894 675.657 376.83C675.135 376.756 674.629 376.718 674.139 376.718C673.084 376.718 672.136 376.947 671.294 377.405C670.463 377.853 669.808 378.476 669.329 379.275C668.849 380.074 668.61 380.996 668.61 382.04V396.47H662.825Z" fill="#C68958"/>
<path d="M685.009 405.674C684.221 405.674 683.491 405.61 682.82 405.483C682.159 405.365 681.632 405.227 681.238 405.067L682.58 400.561C683.422 400.806 684.173 400.923 684.833 400.912C685.494 400.902 686.075 400.694 686.575 400.289C687.087 399.895 687.518 399.234 687.87 398.307L688.365 396.981L679.464 371.924H685.601L691.257 390.461H691.513L697.186 371.924H703.338L693.511 399.442C693.053 400.742 692.445 401.855 691.689 402.782C690.933 403.719 690.006 404.433 688.908 404.923C687.822 405.424 686.522 405.674 685.009 405.674Z" fill="#C68958"/>
<path d="M737.903 378.412L732.63 378.987C732.481 378.455 732.22 377.954 731.847 377.485C731.485 377.017 730.995 376.638 730.377 376.351C729.759 376.063 729.002 375.919 728.108 375.919C726.904 375.919 725.892 376.18 725.071 376.702C724.262 377.224 723.862 377.901 723.873 378.732C723.862 379.446 724.123 380.026 724.656 380.474C725.199 380.921 726.094 381.289 727.341 381.576L731.527 382.471C733.85 382.972 735.576 383.766 736.705 384.852C737.845 385.939 738.42 387.361 738.431 389.119C738.42 390.664 737.967 392.027 737.072 393.21C736.188 394.382 734.958 395.298 733.381 395.958C731.804 396.619 729.993 396.949 727.948 396.949C724.944 396.949 722.525 396.321 720.693 395.063C718.86 393.796 717.768 392.033 717.417 389.774L723.058 389.231C723.314 390.339 723.857 391.175 724.688 391.74C725.519 392.304 726.6 392.587 727.932 392.587C729.306 392.587 730.409 392.304 731.24 391.74C732.081 391.175 732.502 390.477 732.502 389.646C732.502 388.943 732.23 388.362 731.687 387.904C731.154 387.446 730.324 387.095 729.194 386.85L725.007 385.971C722.653 385.481 720.911 384.655 719.782 383.494C718.653 382.322 718.093 380.841 718.104 379.051C718.093 377.539 718.504 376.228 719.335 375.12C720.176 374.002 721.343 373.139 722.834 372.531C724.336 371.914 726.067 371.605 728.028 371.605C730.904 371.605 733.168 372.217 734.819 373.442C736.481 374.668 737.509 376.324 737.903 378.412Z" fill="#C68958"/>
<path d="M746.796 405.674C746.008 405.674 745.278 405.61 744.607 405.483C743.947 405.365 743.419 405.227 743.025 405.067L744.367 400.561C745.209 400.806 745.96 400.923 746.621 400.912C747.281 400.902 747.862 400.694 748.362 400.289C748.874 399.895 749.305 399.234 749.657 398.307L750.152 396.981L741.251 371.924H747.388L753.045 390.461H753.3L758.973 371.924H765.126L755.298 399.442C754.84 400.742 754.232 401.855 753.476 402.782C752.72 403.719 751.793 404.433 750.695 404.923C749.609 405.424 748.309 405.674 746.796 405.674Z" fill="#C68958"/>
<path d="M788.528 378.412L783.255 378.987C783.106 378.455 782.845 377.954 782.472 377.485C782.11 377.017 781.62 376.638 781.002 376.351C780.384 376.063 779.627 375.919 778.733 375.919C777.529 375.919 776.517 376.18 775.696 376.702C774.887 377.224 774.487 377.901 774.498 378.732C774.487 379.446 774.748 380.026 775.281 380.474C775.824 380.921 776.719 381.289 777.966 381.576L782.152 382.471C784.475 382.972 786.201 383.766 787.33 384.852C788.47 385.939 789.045 387.361 789.056 389.119C789.045 390.664 788.592 392.027 787.697 393.21C786.813 394.382 785.583 395.298 784.006 395.958C782.429 396.619 780.618 396.949 778.573 396.949C775.569 396.949 773.15 396.321 771.318 395.063C769.485 393.796 768.393 392.033 768.042 389.774L773.683 389.231C773.939 390.339 774.482 391.175 775.313 391.74C776.144 392.304 777.225 392.587 778.557 392.587C779.931 392.587 781.034 392.304 781.865 391.74C782.706 391.175 783.127 390.477 783.127 389.646C783.127 388.943 782.855 388.362 782.312 387.904C781.779 387.446 780.949 387.095 779.819 386.85L775.632 385.971C773.278 385.481 771.536 384.655 770.407 383.494C769.278 382.322 768.718 380.841 768.729 379.051C768.718 377.539 769.129 376.228 769.96 375.12C770.801 374.002 771.968 373.139 773.459 372.531C774.961 371.914 776.692 371.605 778.653 371.605C781.529 371.605 783.793 372.217 785.444 373.442C787.106 374.668 788.134 376.324 788.528 378.412Z" fill="#C68958"/>
<path d="M806.083 371.924V376.399H791.972V371.924H806.083ZM795.456 366.044H801.241V389.087C801.241 389.865 801.358 390.461 801.592 390.877C801.837 391.282 802.157 391.558 802.551 391.708C802.945 391.857 803.382 391.931 803.861 391.931C804.224 391.931 804.554 391.905 804.852 391.851C805.161 391.798 805.395 391.75 805.555 391.708L806.53 396.23C806.221 396.337 805.779 396.454 805.204 396.582C804.639 396.709 803.947 396.784 803.126 396.805C801.677 396.848 800.372 396.63 799.211 396.15C798.05 395.66 797.128 394.904 796.447 393.881C795.775 392.858 795.445 391.58 795.456 390.046V366.044Z" fill="#C68958"/>
<path d="M821.523 396.949C819.062 396.949 816.937 396.438 815.147 395.415C813.368 394.382 811.999 392.922 811.04 391.036C810.082 389.14 809.602 386.908 809.602 384.341C809.602 381.816 810.082 379.6 811.04 377.693C812.01 375.775 813.363 374.284 815.099 373.219C816.836 372.143 818.876 371.605 821.22 371.605C822.733 371.605 824.16 371.85 825.502 372.34C826.855 372.819 828.049 373.565 829.082 374.577C830.126 375.589 830.946 376.878 831.543 378.444C832.139 380 832.438 381.853 832.438 384.005V385.779H812.319V381.88H826.893C826.882 380.772 826.642 379.786 826.174 378.924C825.705 378.05 825.05 377.363 824.208 376.862C823.377 376.361 822.408 376.111 821.3 376.111C820.117 376.111 819.078 376.399 818.184 376.974C817.289 377.539 816.591 378.284 816.09 379.211C815.6 380.127 815.35 381.134 815.339 382.231V385.635C815.339 387.063 815.6 388.288 816.122 389.311C816.644 390.323 817.374 391.1 818.311 391.644C819.249 392.176 820.346 392.443 821.603 392.443C822.445 392.443 823.207 392.326 823.888 392.091C824.57 391.846 825.161 391.489 825.662 391.021C826.163 390.552 826.541 389.971 826.797 389.279L832.198 389.886C831.857 391.313 831.207 392.56 830.248 393.625C829.3 394.68 828.086 395.5 826.605 396.086C825.124 396.661 823.43 396.949 821.523 396.949Z" fill="#C68958"/>
<path d="M837.332 396.47V371.924H842.861V376.095H843.148C843.66 374.689 844.507 373.592 845.689 372.803C846.872 372.004 848.283 371.605 849.924 371.605C851.586 371.605 852.987 372.009 854.127 372.819C855.277 373.618 856.087 374.71 856.556 376.095H856.811C857.355 374.731 858.271 373.645 859.56 372.835C860.86 372.015 862.399 371.605 864.178 371.605C866.437 371.605 868.28 372.318 869.707 373.746C871.135 375.174 871.849 377.256 871.849 379.994V396.47H866.048V380.889C866.048 379.366 865.643 378.252 864.833 377.549C864.024 376.835 863.033 376.479 861.861 376.479C860.466 376.479 859.374 376.915 858.585 377.789C857.808 378.652 857.419 379.776 857.419 381.161V396.47H851.746V380.649C851.746 379.382 851.362 378.37 850.595 377.613C849.839 376.857 848.848 376.479 847.623 376.479C846.792 376.479 846.036 376.692 845.354 377.118C844.672 377.533 844.129 378.125 843.724 378.892C843.319 379.648 843.116 380.532 843.116 381.544V396.47H837.332Z" fill="#C68958"/>
<path d="M107 3.96969C118.667 1.30304 128.833 4.13637 137.5 12.4697C143.833 19.4697 147 27.1364 147 35.4697C147 40.803 145.833 45.803 143.5 50.4697C137.5 61.803 127.667 67.803 114 68.4697C101.333 68.4697 91.8333 62.803 85.5 51.4697C82.8333 46.4697 81.5 41.1364 81.5 35.4697C81.5 30.4697 82.6667 25.6364 85 20.9697C89.3333 11.6364 96.6667 5.9697 107 3.96969ZM102 119.47C132 117.47 146.333 116.47 145 116.47H147V242.97C147 330.303 146.333 376.47 145 381.47C145.333 380.47 145 381.636 144 384.97C140.333 395.97 133.833 405.803 124.5 414.47C109.833 429.136 91 437.47 68 439.47C60.6667 440.136 54.5 440.136 49.5 439.47C29.1667 436.47 15 427.136 7 411.47C4.33333 405.803 3 399.803 3 393.47C3 380.47 8.83333 371.636 20.5 366.97C24.1667 365.303 28.1667 364.47 32.5 364.47C37.1667 364.47 41.8333 365.636 46.5 367.97C56.5 372.636 61.5 381.136 61.5 393.47C61.5 400.803 59.3333 407.136 55 412.47C54 413.803 53.3333 414.636 53 414.97L58.5 415.97C70.1667 417.303 79.1667 414.803 85.5 408.47C92.1667 402.136 97 392.803 100 380.47L101 373.97L101.5 272.47C101.5 204.136 101.333 168.97 101 166.97C100.333 161.97 98.5 158.136 95.5 155.47C91.8333 152.136 83 150.303 69 149.97H59V135.97C59 126.636 59.3333 121.97 60 121.97L102 119.47Z" stroke="white" stroke-width="6" mask="url(#path-1-outside-1_14_8)"/>
<path d="M286.832 113.97C288.165 113.303 292.832 113.303 300.832 113.97C313.832 113.97 325.332 115.636 335.332 118.97C350.999 124.303 363.665 132.136 373.332 142.47C381.999 151.47 387.665 161.47 390.332 172.47C390.999 175.136 391.499 197.636 391.832 239.97C391.832 280.97 392.165 302.803 392.832 305.47C395.165 311.803 398.665 313.97 403.332 311.97C403.999 311.636 404.832 310.97 405.832 309.97C408.165 307.636 409.332 302.47 409.332 294.47C409.665 292.47 409.832 288.97 409.832 283.97V264.97H434.832V282.47C434.832 295.136 434.665 302.136 434.332 303.47C432.332 316.47 424.665 326.636 411.332 333.97C398.332 340.303 386.832 342.136 376.832 339.47C367.165 336.803 359.832 330.636 354.832 320.97C353.499 318.97 352.499 316.803 351.832 314.47L351.332 312.47L346.832 316.97C341.165 322.636 334.165 327.47 325.832 331.47C309.832 339.803 292.499 343.636 273.832 342.97C251.165 341.97 233.165 334.303 219.832 319.97C214.832 314.97 210.999 309.636 208.332 303.97C201.999 290.636 200.999 277.303 205.332 263.97C211.332 245.97 224.999 231.803 246.332 221.47C261.665 213.803 279.332 208.47 299.332 205.47C311.999 203.136 325.332 201.636 339.332 200.97H344.832V188.97C344.499 180.636 343.999 175.136 343.332 172.47C342.332 168.136 340.165 163.303 336.832 157.97C328.832 146.303 318.499 139.47 305.832 137.47C298.165 136.136 287.165 136.47 272.832 138.47C270.165 139.136 268.665 139.47 268.332 139.47C267.665 139.47 268.165 140.303 269.832 141.97C275.165 148.97 276.999 157.47 275.332 167.47C272.665 178.803 265.499 185.97 253.832 188.97C243.165 191.636 233.832 189.136 225.832 181.47C219.832 175.803 216.999 168.136 217.332 158.47C217.665 153.47 218.999 148.47 221.332 143.47C224.999 136.47 231.665 130.136 241.332 124.47C252.999 118.803 268.165 115.303 286.832 113.97ZM344.832 248.97V223.97H341.832C335.499 223.97 328.499 224.803 320.832 226.47C309.499 228.47 298.165 231.803 286.832 236.47C268.499 244.803 257.665 256.97 254.332 272.97C252.665 283.303 254.665 292.803 260.332 301.47C270.332 317.136 285.332 322.636 305.332 317.97C306.332 317.636 307.332 317.303 308.332 316.97C322.999 312.97 333.499 304.47 339.832 291.47C340.499 289.803 341.165 288.303 341.832 286.97C343.832 279.303 344.832 266.636 344.832 248.97Z" stroke="white" stroke-width="6" mask="url(#path-1-outside-1_14_8)"/>
<path d="M495.332 3.96969C506.999 1.30304 517.165 4.13637 525.832 12.4697C532.165 19.4697 535.332 27.1364 535.332 35.4697C535.332 40.803 534.165 45.803 531.832 50.4697C525.832 61.803 515.999 67.803 502.332 68.4697C489.665 68.4697 480.165 62.803 473.832 51.4697C471.165 46.4697 469.832 41.1364 469.832 35.4697C469.832 30.4697 470.999 25.6364 473.332 20.9697C477.665 11.6364 484.999 5.9697 495.332 3.96969ZM491.832 119.47C519.832 117.47 533.165 116.47 531.832 116.47H533.332V210.97C533.332 273.97 533.665 305.803 534.332 306.47C535.332 307.47 536.165 307.97 536.832 307.97C538.832 308.97 546.165 309.47 558.832 309.47H568.332V337.47H564.332L535.832 336.47C519.165 336.136 501.999 336.136 484.332 336.47C463.999 337.136 453.665 337.47 453.332 337.47H448.832V309.47H459.332C476.665 309.47 485.999 308.303 487.332 305.97C487.665 305.636 487.832 282.636 487.832 236.97C487.832 188.97 487.165 163.303 485.832 159.97C484.832 156.97 482.832 154.803 479.832 153.47C475.165 151.136 467.332 149.97 456.332 149.97H450.832V121.97H451.832L491.832 119.47Z" stroke="white" stroke-width="6" mask="url(#path-1-outside-1_14_8)"/>
<path d="M664.492 113.97C665.159 113.636 669.159 113.47 676.492 113.47C689.826 113.803 701.492 116.303 711.492 120.97L717.492 124.47L725.492 118.97L732.992 113.47H737.492C740.492 113.47 742.492 113.97 743.492 114.97L744.992 116.47V180.47L741.992 183.47H722.992L721.492 181.97C720.492 180.97 719.992 178.803 719.992 175.47C718.326 154.47 707.492 141.47 687.492 136.47C680.159 135.136 670.992 134.97 659.992 135.97C658.992 136.303 658.159 136.47 657.492 136.47C640.826 140.136 631.992 148.803 630.992 162.47C630.326 172.47 634.992 180.47 644.992 186.47C649.992 189.47 660.492 192.636 676.492 195.97C690.492 198.636 698.159 200.303 699.492 200.97C721.159 206.303 737.326 218.136 747.992 236.47C748.659 237.803 749.326 238.97 749.992 239.97C754.659 249.636 757.159 258.803 757.492 267.47C758.159 287.136 753.326 303.303 742.992 315.97C735.659 325.97 724.826 333.303 710.492 337.97C690.826 344.636 671.326 345.303 651.992 339.97C642.326 336.97 634.492 332.97 628.492 327.97L625.992 326.47L616.992 333.47C608.326 339.803 603.159 342.97 601.492 342.97C598.492 342.97 596.492 342.47 595.492 341.47L593.992 339.97V301.97C593.992 274.97 594.826 260.97 596.492 259.97C597.159 259.636 600.659 259.47 606.992 259.47C613.992 259.47 617.826 260.303 618.492 261.97C618.826 262.636 619.326 264.47 619.992 267.47C629.659 306.47 651.826 323.47 686.492 318.47C703.826 316.47 714.659 308.636 718.992 294.97C719.659 292.97 719.992 289.636 719.992 284.97C719.992 280.303 719.659 276.97 718.992 274.97C716.992 268.303 712.159 262.303 704.492 256.97C699.159 253.303 688.326 249.803 671.992 246.47C653.326 243.136 639.992 239.303 631.992 234.97C624.326 231.303 617.659 226.636 611.992 220.97C606.992 215.97 602.826 210.136 599.492 203.47C596.159 196.47 594.326 189.136 593.992 181.47C593.659 171.47 595.826 161.136 600.492 150.47C603.492 144.47 606.992 139.47 610.992 135.47C621.326 124.136 636.992 117.136 657.992 114.47C659.659 114.136 661.826 113.97 664.492 113.97Z" stroke="white" stroke-width="6" mask="url(#path-1-outside-1_14_8)"/>
<path d="M835.77 272.97C843.103 270.97 850.603 271.803 858.27 275.47C864.603 278.803 869.436 283.636 872.77 289.97C877.103 299.636 877.103 309.47 872.77 319.47C869.436 325.803 864.603 330.636 858.27 333.97C848.27 338.303 838.436 338.303 828.77 333.97C822.436 330.636 817.603 325.803 814.27 319.47C809.936 309.47 809.936 299.636 814.27 289.97C818.27 281.303 825.436 275.636 835.77 272.97Z" stroke="white" stroke-width="6" mask="url(#path-1-outside-1_14_8)"/>
<path d="M178.536 396.965C176.98 396.965 175.579 396.688 174.333 396.134C173.097 395.569 172.117 394.739 171.392 393.641C170.679 392.544 170.322 391.191 170.322 389.582C170.322 388.197 170.577 387.052 171.089 386.147C171.6 385.241 172.298 384.517 173.182 383.973C174.066 383.43 175.063 383.02 176.17 382.743C177.289 382.455 178.445 382.247 179.638 382.12C181.076 381.97 182.243 381.837 183.138 381.72C184.033 381.592 184.683 381.4 185.087 381.145C185.503 380.878 185.711 380.468 185.711 379.914V379.818C185.711 378.615 185.354 377.682 184.64 377.022C183.926 376.361 182.898 376.031 181.556 376.031C180.139 376.031 179.015 376.34 178.184 376.958C177.364 377.576 176.81 378.306 176.522 379.147L171.121 378.38C171.547 376.889 172.25 375.642 173.23 374.641C174.21 373.629 175.409 372.872 176.826 372.372C178.243 371.86 179.809 371.605 181.524 371.605C182.706 371.605 183.884 371.743 185.055 372.02C186.227 372.297 187.298 372.755 188.267 373.394C189.237 374.023 190.015 374.881 190.6 375.967C191.197 377.054 191.495 378.412 191.495 380.042V396.47H185.934V393.098H185.743C185.391 393.78 184.896 394.419 184.256 395.016C183.628 395.601 182.834 396.076 181.875 396.438C180.927 396.789 179.814 396.965 178.536 396.965ZM180.038 392.714C181.199 392.714 182.206 392.485 183.058 392.027C183.91 391.559 184.565 390.941 185.023 390.174C185.492 389.407 185.727 388.57 185.727 387.665V384.772C185.545 384.921 185.237 385.06 184.8 385.188C184.374 385.316 183.894 385.427 183.362 385.523C182.829 385.619 182.301 385.704 181.779 385.779C181.257 385.854 180.805 385.918 180.421 385.971C179.558 386.088 178.786 386.28 178.104 386.546C177.422 386.812 176.884 387.185 176.49 387.665C176.096 388.133 175.899 388.741 175.899 389.486C175.899 390.552 176.288 391.356 177.065 391.899C177.843 392.443 178.834 392.714 180.038 392.714Z" stroke="white" stroke-width="6" mask="url(#path-1-outside-1_14_8)"/>
<path d="M208.73 396.47V363.742H214.515V375.983H214.754C215.053 375.387 215.474 374.753 216.017 374.082C216.56 373.4 217.295 372.819 218.222 372.34C219.149 371.85 220.332 371.605 221.77 371.605C223.666 371.605 225.376 372.089 226.899 373.059C228.433 374.018 229.648 375.44 230.543 377.326C231.448 379.201 231.901 381.502 231.901 384.229C231.901 386.924 231.459 389.215 230.575 391.1C229.691 392.986 228.487 394.424 226.963 395.415C225.44 396.406 223.714 396.901 221.786 396.901C220.379 396.901 219.213 396.667 218.286 396.198C217.359 395.729 216.613 395.165 216.049 394.504C215.495 393.833 215.063 393.199 214.754 392.603H214.419V396.47H208.73ZM214.403 384.197C214.403 385.784 214.627 387.175 215.074 388.368C215.532 389.561 216.187 390.493 217.04 391.164C217.903 391.825 218.947 392.155 220.172 392.155C221.45 392.155 222.521 391.814 223.384 391.132C224.247 390.44 224.896 389.497 225.333 388.304C225.781 387.1 226.004 385.731 226.004 384.197C226.004 382.674 225.786 381.321 225.349 380.138C224.912 378.956 224.263 378.029 223.4 377.358C222.537 376.686 221.461 376.351 220.172 376.351C218.936 376.351 217.887 376.676 217.024 377.326C216.161 377.975 215.506 378.886 215.058 380.058C214.621 381.23 214.403 382.61 214.403 384.197Z" stroke="white" stroke-width="6" mask="url(#path-1-outside-1_14_8)"/>
<path d="M236.819 396.47V371.924H242.428V376.015H242.684C243.131 374.598 243.898 373.506 244.985 372.739C246.082 371.962 247.334 371.573 248.74 371.573C249.06 371.573 249.417 371.589 249.811 371.621C250.216 371.642 250.551 371.679 250.818 371.733V377.054C250.573 376.969 250.184 376.894 249.651 376.83C249.129 376.756 248.623 376.718 248.133 376.718C247.078 376.718 246.13 376.947 245.288 377.405C244.457 377.853 243.802 378.476 243.323 379.275C242.843 380.074 242.604 380.996 242.604 382.04V396.47H236.819Z" stroke="white" stroke-width="6" mask="url(#path-1-outside-1_14_8)"/>
<path d="M264.517 396.949C262.056 396.949 259.93 396.438 258.14 395.415C256.361 394.382 254.992 392.922 254.034 391.036C253.075 389.14 252.595 386.908 252.595 384.341C252.595 381.816 253.075 379.6 254.034 377.693C255.003 375.775 256.356 374.284 258.093 373.219C259.829 372.143 261.869 371.605 264.213 371.605C265.726 371.605 267.153 371.85 268.496 372.34C269.849 372.819 271.042 373.565 272.075 374.577C273.119 375.589 273.939 376.878 274.536 378.444C275.133 380 275.431 381.853 275.431 384.005V385.779H255.312V381.88H269.886C269.875 380.772 269.635 379.786 269.167 378.924C268.698 378.05 268.043 377.363 267.201 376.862C266.37 376.361 265.401 376.111 264.293 376.111C263.11 376.111 262.072 376.399 261.177 376.974C260.282 377.539 259.584 378.284 259.083 379.211C258.593 380.127 258.343 381.134 258.332 382.231V385.635C258.332 387.063 258.593 388.288 259.115 389.311C259.637 390.323 260.367 391.1 261.305 391.644C262.242 392.176 263.339 392.443 264.596 392.443C265.438 392.443 266.2 392.326 266.882 392.091C267.563 391.846 268.155 391.489 268.655 391.021C269.156 390.552 269.534 389.971 269.79 389.279L275.191 389.886C274.85 391.313 274.2 392.56 273.242 393.625C272.294 394.68 271.079 395.5 269.598 396.086C268.117 396.661 266.423 396.949 264.517 396.949Z" stroke="white" stroke-width="6" mask="url(#path-1-outside-1_14_8)"/>
<path d="M287.388 396.965C285.833 396.965 284.432 396.688 283.185 396.134C281.949 395.569 280.969 394.739 280.245 393.641C279.531 392.544 279.174 391.191 279.174 389.582C279.174 388.197 279.43 387.052 279.941 386.147C280.453 385.241 281.15 384.517 282.035 383.973C282.919 383.43 283.915 383.02 285.023 382.743C286.142 382.455 287.298 382.247 288.491 382.12C289.929 381.97 291.095 381.837 291.99 381.72C292.885 381.592 293.535 381.4 293.94 381.145C294.355 380.878 294.563 380.468 294.563 379.914V379.818C294.563 378.615 294.206 377.682 293.492 377.022C292.779 376.361 291.751 376.031 290.408 376.031C288.991 376.031 287.867 376.34 287.036 376.958C286.216 377.576 285.662 378.306 285.375 379.147L279.973 378.38C280.399 376.889 281.103 375.642 282.083 374.641C283.063 373.629 284.261 372.872 285.678 372.372C287.095 371.86 288.661 371.605 290.376 371.605C291.559 371.605 292.736 371.743 293.908 372.02C295.08 372.297 296.15 372.755 297.12 373.394C298.089 374.023 298.867 374.881 299.453 375.967C300.05 377.054 300.348 378.412 300.348 380.042V396.47H294.787V393.098H294.595C294.244 393.78 293.748 394.419 293.109 395.016C292.48 395.601 291.687 396.076 290.728 396.438C289.78 396.789 288.666 396.965 287.388 396.965ZM288.89 392.714C290.051 392.714 291.058 392.485 291.91 392.027C292.763 391.559 293.418 390.941 293.876 390.174C294.345 389.407 294.579 388.57 294.579 387.665V384.772C294.398 384.921 294.089 385.06 293.652 385.188C293.226 385.316 292.747 385.427 292.214 385.523C291.681 385.619 291.154 385.704 290.632 385.779C290.11 385.854 289.657 385.918 289.274 385.971C288.411 386.088 287.638 386.28 286.957 386.546C286.275 386.812 285.737 387.185 285.343 387.665C284.948 388.133 284.751 388.741 284.751 389.486C284.751 390.552 285.14 391.356 285.918 391.899C286.696 392.443 287.686 392.714 288.89 392.714Z" stroke="white" stroke-width="6" mask="url(#path-1-outside-1_14_8)"/>
<path d="M315.273 396.901C313.345 396.901 311.619 396.406 310.096 395.415C308.572 394.424 307.369 392.986 306.484 391.1C305.6 389.215 305.158 386.924 305.158 384.229C305.158 381.502 305.605 379.201 306.5 377.326C307.406 375.44 308.626 374.018 310.16 373.059C311.694 372.089 313.404 371.605 315.289 371.605C316.728 371.605 317.91 371.85 318.837 372.34C319.764 372.819 320.499 373.4 321.042 374.082C321.585 374.753 322.006 375.387 322.305 375.983H322.544V363.742H328.345V396.47H322.656V392.603H322.305C322.006 393.199 321.575 393.833 321.01 394.504C320.446 395.165 319.7 395.729 318.773 396.198C317.846 396.667 316.68 396.901 315.273 396.901ZM316.887 392.155C318.112 392.155 319.157 391.825 320.019 391.164C320.882 390.493 321.538 389.561 321.985 388.368C322.432 387.175 322.656 385.784 322.656 384.197C322.656 382.61 322.432 381.23 321.985 380.058C321.548 378.886 320.898 377.975 320.035 377.326C319.183 376.676 318.134 376.351 316.887 376.351C315.598 376.351 314.522 376.686 313.659 377.358C312.796 378.029 312.147 378.956 311.71 380.138C311.273 381.321 311.055 382.674 311.055 384.197C311.055 385.731 311.273 387.1 311.71 388.304C312.157 389.497 312.812 390.44 313.675 391.132C314.549 391.814 315.62 392.155 316.887 392.155Z" stroke="white" stroke-width="6" mask="url(#path-1-outside-1_14_8)"/>
<path d="M349.387 380.458V385.22H334.653V380.458H349.387Z" stroke="white" stroke-width="6" mask="url(#path-1-outside-1_14_8)"/>
<path d="M355.727 396.47V363.742H361.512V375.983H361.752C362.05 375.387 362.471 374.753 363.014 374.082C363.557 373.4 364.292 372.819 365.219 372.34C366.146 371.85 367.329 371.605 368.767 371.605C370.663 371.605 372.373 372.089 373.896 373.059C375.43 374.018 376.645 375.44 377.54 377.326C378.445 379.201 378.898 381.502 378.898 384.229C378.898 386.924 378.456 389.215 377.572 391.1C376.688 392.986 375.484 394.424 373.96 395.415C372.437 396.406 370.711 396.901 368.783 396.901C367.377 396.901 366.21 396.667 365.283 396.198C364.356 395.729 363.611 395.165 363.046 394.504C362.492 393.833 362.06 393.199 361.752 392.603H361.416V396.47H355.727ZM361.4 384.197C361.4 385.784 361.624 387.175 362.071 388.368C362.529 389.561 363.184 390.493 364.037 391.164C364.9 391.825 365.944 392.155 367.169 392.155C368.447 392.155 369.518 391.814 370.381 391.132C371.244 390.44 371.894 389.497 372.33 388.304C372.778 387.1 373.002 385.731 373.002 384.197C373.002 382.674 372.783 381.321 372.346 380.138C371.91 378.956 371.26 378.029 370.397 377.358C369.534 376.686 368.458 376.351 367.169 376.351C365.933 376.351 364.884 376.676 364.021 377.326C363.158 377.975 362.503 378.886 362.055 380.058C361.618 381.23 361.4 382.61 361.4 384.197Z" stroke="white" stroke-width="6" mask="url(#path-1-outside-1_14_8)"/>
<path d="M394.523 396.949C392.126 396.949 390.048 396.422 388.29 395.367C386.533 394.312 385.169 392.837 384.2 390.941C383.241 389.044 382.761 386.828 382.761 384.293C382.761 381.757 383.241 379.536 384.2 377.629C385.169 375.722 386.533 374.241 388.29 373.187C390.048 372.132 392.126 371.605 394.523 371.605C396.92 371.605 398.997 372.132 400.755 373.187C402.513 374.241 403.871 375.722 404.83 377.629C405.799 379.536 406.284 381.757 406.284 384.293C406.284 386.828 405.799 389.044 404.83 390.941C403.871 392.837 402.513 394.312 400.755 395.367C398.997 396.422 396.92 396.949 394.523 396.949ZM394.555 392.315C395.854 392.315 396.941 391.958 397.815 391.244C398.688 390.52 399.338 389.55 399.764 388.336C400.201 387.121 400.419 385.768 400.419 384.277C400.419 382.775 400.201 381.416 399.764 380.202C399.338 378.977 398.688 378.002 397.815 377.278C396.941 376.553 395.854 376.191 394.555 376.191C393.223 376.191 392.115 376.553 391.231 377.278C390.357 378.002 389.702 378.977 389.265 380.202C388.839 381.416 388.626 382.775 388.626 384.277C388.626 385.768 388.839 387.121 389.265 388.336C389.702 389.55 390.357 390.52 391.231 391.244C392.115 391.958 393.223 392.315 394.555 392.315Z" stroke="white" stroke-width="6" mask="url(#path-1-outside-1_14_8)"/>
<path d="M416.979 382.088V396.47H411.194V371.924H416.723V376.095H417.011C417.575 374.721 418.476 373.629 419.711 372.819C420.958 372.009 422.497 371.605 424.33 371.605C426.024 371.605 427.499 371.967 428.756 372.691C430.024 373.416 431.004 374.465 431.696 375.839C432.4 377.214 432.746 378.881 432.735 380.841V396.47H426.95V381.736C426.95 380.095 426.524 378.812 425.672 377.885C424.83 376.958 423.664 376.495 422.172 376.495C421.16 376.495 420.26 376.718 419.472 377.166C418.694 377.603 418.081 378.236 417.634 379.067C417.197 379.898 416.979 380.905 416.979 382.088Z" stroke="white" stroke-width="6" mask="url(#path-1-outside-1_14_8)"/>
<path d="M449.482 396.949C447.021 396.949 444.896 396.438 443.106 395.415C441.327 394.382 439.958 392.922 438.999 391.036C438.041 389.14 437.561 386.908 437.561 384.341C437.561 381.816 438.041 379.6 438.999 377.693C439.969 375.775 441.322 374.284 443.058 373.219C444.795 372.143 446.835 371.605 449.179 371.605C450.691 371.605 452.119 371.85 453.461 372.34C454.814 372.819 456.008 373.565 457.041 374.577C458.085 375.589 458.905 376.878 459.502 378.444C460.098 380 460.397 381.853 460.397 384.005V385.779H440.278V381.88H454.852C454.841 380.772 454.601 379.786 454.133 378.924C453.664 378.05 453.009 377.363 452.167 376.862C451.336 376.361 450.367 376.111 449.259 376.111C448.076 376.111 447.037 376.399 446.142 376.974C445.248 377.539 444.55 378.284 444.049 379.211C443.559 380.127 443.309 381.134 443.298 382.231V385.635C443.298 387.063 443.559 388.288 444.081 389.311C444.603 390.323 445.333 391.1 446.27 391.644C447.208 392.176 448.305 392.443 449.562 392.443C450.404 392.443 451.166 392.326 451.847 392.091C452.529 391.846 453.12 391.489 453.621 391.021C454.122 390.552 454.5 389.971 454.756 389.279L460.157 389.886C459.816 391.313 459.166 392.56 458.207 393.625C457.259 394.68 456.045 395.5 454.564 396.086C453.083 396.661 451.389 396.949 449.482 396.949Z" stroke="white" stroke-width="6" mask="url(#path-1-outside-1_14_8)"/>
<path d="M484.691 378.412L479.417 378.987C479.268 378.455 479.007 377.954 478.634 377.485C478.272 377.017 477.782 376.638 477.164 376.351C476.546 376.063 475.79 375.919 474.895 375.919C473.691 375.919 472.679 376.18 471.858 376.702C471.049 377.224 470.649 377.901 470.66 378.732C470.649 379.446 470.91 380.026 471.443 380.474C471.986 380.921 472.881 381.289 474.128 381.576L478.314 382.471C480.637 382.972 482.363 383.766 483.492 384.852C484.632 385.939 485.207 387.361 485.218 389.119C485.207 390.664 484.754 392.027 483.86 393.21C482.975 394.382 481.745 395.298 480.168 395.958C478.591 396.619 476.78 396.949 474.735 396.949C471.731 396.949 469.312 396.321 467.48 395.063C465.648 393.796 464.556 392.033 464.204 389.774L469.845 389.231C470.101 390.339 470.644 391.175 471.475 391.74C472.306 392.304 473.387 392.587 474.719 392.587C476.093 392.587 477.196 392.304 478.027 391.74C478.868 391.175 479.289 390.477 479.289 389.646C479.289 388.943 479.018 388.362 478.474 387.904C477.942 387.446 477.111 387.095 475.981 386.85L471.795 385.971C469.44 385.481 467.698 384.655 466.569 383.494C465.44 382.322 464.881 380.841 464.891 379.051C464.881 377.539 465.291 376.228 466.122 375.12C466.963 374.002 468.13 373.139 469.621 372.531C471.123 371.914 472.855 371.605 474.815 371.605C477.691 371.605 479.955 372.217 481.606 373.442C483.268 374.668 484.296 376.324 484.691 378.412Z" stroke="white" stroke-width="6" mask="url(#path-1-outside-1_14_8)"/>
<path d="M501.15 396.47V371.924H506.935V396.47H501.15ZM504.058 368.441C503.142 368.441 502.354 368.137 501.693 367.53C501.033 366.912 500.703 366.171 500.703 365.309C500.703 364.435 501.033 363.694 501.693 363.087C502.354 362.469 503.142 362.16 504.058 362.16C504.985 362.16 505.774 362.469 506.423 363.087C507.084 363.694 507.414 364.435 507.414 365.309C507.414 366.171 507.084 366.912 506.423 367.53C505.774 368.137 504.985 368.441 504.058 368.441Z" stroke="white" stroke-width="6" mask="url(#path-1-outside-1_14_8)"/>
<path d="M518.668 382.088V396.47H512.883V371.924H518.413V376.095H518.7C519.265 374.721 520.165 373.629 521.401 372.819C522.647 372.009 524.187 371.605 526.019 371.605C527.713 371.605 529.188 371.967 530.446 372.691C531.713 373.416 532.693 374.465 533.386 375.839C534.089 377.214 534.435 378.881 534.425 380.841V396.47H528.64V381.736C528.64 380.095 528.214 378.812 527.361 377.885C526.52 376.958 525.353 376.495 523.862 376.495C522.85 376.495 521.949 376.718 521.161 377.166C520.383 377.603 519.771 378.236 519.323 379.067C518.887 379.898 518.668 380.905 518.668 382.088Z" stroke="white" stroke-width="6" mask="url(#path-1-outside-1_14_8)"/>
<path d="M561.351 371.924L552.61 396.47H546.218L537.477 371.924H543.645L549.286 390.158H549.542L555.199 371.924H561.351Z" stroke="white" stroke-width="6" mask="url(#path-1-outside-1_14_8)"/>
<path d="M575.386 396.949C572.925 396.949 570.799 396.438 569.01 395.415C567.23 394.382 565.862 392.922 564.903 391.036C563.944 389.14 563.464 386.908 563.464 384.341C563.464 381.816 563.944 379.6 564.903 377.693C565.872 375.775 567.225 374.284 568.962 373.219C570.698 372.143 572.738 371.605 575.082 371.605C576.595 371.605 578.022 371.85 579.365 372.34C580.718 372.819 581.911 373.565 582.944 374.577C583.988 375.589 584.809 376.878 585.405 378.444C586.002 380 586.3 381.853 586.3 384.005V385.779H566.181V381.88H580.755C580.744 380.772 580.505 379.786 580.036 378.924C579.567 378.05 578.912 377.363 578.07 376.862C577.239 376.361 576.27 376.111 575.162 376.111C573.979 376.111 572.941 376.399 572.046 376.974C571.151 377.539 570.453 378.284 569.952 379.211C569.462 380.127 569.212 381.134 569.201 382.231V385.635C569.201 387.063 569.462 388.288 569.984 389.311C570.506 390.323 571.236 391.1 572.174 391.644C573.111 392.176 574.208 392.443 575.466 392.443C576.307 392.443 577.069 392.326 577.751 392.091C578.433 391.846 579.024 391.489 579.524 391.021C580.025 390.552 580.403 389.971 580.659 389.279L586.06 389.886C585.719 391.313 585.07 392.56 584.111 393.625C583.163 394.68 581.948 395.5 580.467 396.086C578.987 396.661 577.293 396.949 575.386 396.949Z" stroke="white" stroke-width="6" mask="url(#path-1-outside-1_14_8)"/>
<path d="M596.979 382.088V396.47H591.194V371.924H596.723V376.095H597.011C597.575 374.721 598.476 373.629 599.711 372.819C600.958 372.009 602.497 371.605 604.33 371.605C606.024 371.605 607.499 371.967 608.756 372.691C610.024 373.416 611.004 374.465 611.696 375.839C612.4 377.214 612.746 378.881 612.735 380.841V396.47H606.95V381.736C606.95 380.095 606.524 378.812 605.672 377.885C604.83 376.958 603.664 376.495 602.172 376.495C601.16 376.495 600.26 376.718 599.472 377.166C598.694 377.603 598.081 378.236 597.634 379.067C597.197 379.898 596.979 380.905 596.979 382.088Z" stroke="white" stroke-width="6" mask="url(#path-1-outside-1_14_8)"/>
<path d="M630.873 371.924V376.399H616.762V371.924H630.873ZM620.246 366.044H626.031V389.087C626.031 389.865 626.148 390.461 626.382 390.877C626.627 391.282 626.947 391.558 627.341 391.708C627.735 391.857 628.172 391.931 628.651 391.931C629.014 391.931 629.344 391.905 629.642 391.851C629.951 391.798 630.185 391.75 630.345 391.708L631.32 396.23C631.011 396.337 630.569 396.454 629.994 396.582C629.429 396.709 628.737 396.784 627.916 396.805C626.467 396.848 625.162 396.63 624.001 396.15C622.84 395.66 621.918 394.904 621.237 393.881C620.565 392.858 620.235 391.58 620.246 390.046V366.044Z" stroke="white" stroke-width="6" mask="url(#path-1-outside-1_14_8)"/>
<path d="M646.154 396.949C643.757 396.949 641.679 396.422 639.921 395.367C638.164 394.312 636.8 392.837 635.83 390.941C634.872 389.044 634.392 386.828 634.392 384.293C634.392 381.757 634.872 379.536 635.83 377.629C636.8 375.722 638.164 374.241 639.921 373.187C641.679 372.132 643.757 371.605 646.154 371.605C648.551 371.605 650.628 372.132 652.386 373.187C654.144 374.241 655.502 375.722 656.461 377.629C657.43 379.536 657.915 381.757 657.915 384.293C657.915 386.828 657.43 389.044 656.461 390.941C655.502 392.837 654.144 394.312 652.386 395.367C650.628 396.422 648.551 396.949 646.154 396.949ZM646.186 392.315C647.485 392.315 648.572 391.958 649.445 391.244C650.319 390.52 650.969 389.55 651.395 388.336C651.832 387.121 652.05 385.768 652.05 384.277C652.05 382.775 651.832 381.416 651.395 380.202C650.969 378.977 650.319 378.002 649.445 377.278C648.572 376.553 647.485 376.191 646.186 376.191C644.854 376.191 643.746 376.553 642.862 377.278C641.988 378.002 641.333 378.977 640.896 380.202C640.47 381.416 640.257 382.775 640.257 384.277C640.257 385.768 640.47 387.121 640.896 388.336C641.333 389.55 641.988 390.52 642.862 391.244C643.746 391.958 644.854 392.315 646.186 392.315Z" stroke="white" stroke-width="6" mask="url(#path-1-outside-1_14_8)"/>
<path d="M662.825 396.47V371.924H668.434V376.015H668.69C669.137 374.598 669.904 373.506 670.991 372.739C672.088 371.962 673.34 371.573 674.746 371.573C675.066 371.573 675.422 371.589 675.817 371.621C676.221 371.642 676.557 371.679 676.823 371.733V377.054C676.578 376.969 676.19 376.894 675.657 376.83C675.135 376.756 674.629 376.718 674.139 376.718C673.084 376.718 672.136 376.947 671.294 377.405C670.463 377.853 669.808 378.476 669.329 379.275C668.849 380.074 668.61 380.996 668.61 382.04V396.47H662.825Z" stroke="white" stroke-width="6" mask="url(#path-1-outside-1_14_8)"/>
<path d="M685.009 405.674C684.221 405.674 683.491 405.61 682.82 405.483C682.159 405.365 681.632 405.227 681.238 405.067L682.58 400.561C683.422 400.806 684.173 400.923 684.833 400.912C685.494 400.902 686.075 400.694 686.575 400.289C687.087 399.895 687.518 399.234 687.87 398.307L688.365 396.981L679.464 371.924H685.601L691.257 390.461H691.513L697.186 371.924H703.338L693.511 399.442C693.053 400.742 692.445 401.855 691.689 402.782C690.933 403.719 690.006 404.433 688.908 404.923C687.822 405.424 686.522 405.674 685.009 405.674Z" stroke="white" stroke-width="6" mask="url(#path-1-outside-1_14_8)"/>
<path d="M737.903 378.412L732.63 378.987C732.481 378.455 732.22 377.954 731.847 377.485C731.485 377.017 730.995 376.638 730.377 376.351C729.759 376.063 729.002 375.919 728.108 375.919C726.904 375.919 725.892 376.18 725.071 376.702C724.262 377.224 723.862 377.901 723.873 378.732C723.862 379.446 724.123 380.026 724.656 380.474C725.199 380.921 726.094 381.289 727.341 381.576L731.527 382.471C733.85 382.972 735.576 383.766 736.705 384.852C737.845 385.939 738.42 387.361 738.431 389.119C738.42 390.664 737.967 392.027 737.072 393.21C736.188 394.382 734.958 395.298 733.381 395.958C731.804 396.619 729.993 396.949 727.948 396.949C724.944 396.949 722.525 396.321 720.693 395.063C718.86 393.796 717.768 392.033 717.417 389.774L723.058 389.231C723.314 390.339 723.857 391.175 724.688 391.74C725.519 392.304 726.6 392.587 727.932 392.587C729.306 392.587 730.409 392.304 731.24 391.74C732.081 391.175 732.502 390.477 732.502 389.646C732.502 388.943 732.23 388.362 731.687 387.904C731.154 387.446 730.324 387.095 729.194 386.85L725.007 385.971C722.653 385.481 720.911 384.655 719.782 383.494C718.653 382.322 718.093 380.841 718.104 379.051C718.093 377.539 718.504 376.228 719.335 375.12C720.176 374.002 721.343 373.139 722.834 372.531C724.336 371.914 726.067 371.605 728.028 371.605C730.904 371.605 733.168 372.217 734.819 373.442C736.481 374.668 737.509 376.324 737.903 378.412Z" stroke="white" stroke-width="6" mask="url(#path-1-outside-1_14_8)"/>
<path d="M746.796 405.674C746.008 405.674 745.278 405.61 744.607 405.483C743.947 405.365 743.419 405.227 743.025 405.067L744.367 400.561C745.209 400.806 745.96 400.923 746.621 400.912C747.281 400.902 747.862 400.694 748.362 400.289C748.874 399.895 749.305 399.234 749.657 398.307L750.152 396.981L741.251 371.924H747.388L753.045 390.461H753.3L758.973 371.924H765.126L755.298 399.442C754.84 400.742 754.232 401.855 753.476 402.782C752.72 403.719 751.793 404.433 750.695 404.923C749.609 405.424 748.309 405.674 746.796 405.674Z" stroke="white" stroke-width="6" mask="url(#path-1-outside-1_14_8)"/>
<path d="M788.528 378.412L783.255 378.987C783.106 378.455 782.845 377.954 782.472 377.485C782.11 377.017 781.62 376.638 781.002 376.351C780.384 376.063 779.627 375.919 778.733 375.919C777.529 375.919 776.517 376.18 775.696 376.702C774.887 377.224 774.487 377.901 774.498 378.732C774.487 379.446 774.748 380.026 775.281 380.474C775.824 380.921 776.719 381.289 777.966 381.576L782.152 382.471C784.475 382.972 786.201 383.766 787.33 384.852C788.47 385.939 789.045 387.361 789.056 389.119C789.045 390.664 788.592 392.027 787.697 393.21C786.813 394.382 785.583 395.298 784.006 395.958C782.429 396.619 780.618 396.949 778.573 396.949C775.569 396.949 773.15 396.321 771.318 395.063C769.485 393.796 768.393 392.033 768.042 389.774L773.683 389.231C773.939 390.339 774.482 391.175 775.313 391.74C776.144 392.304 777.225 392.587 778.557 392.587C779.931 392.587 781.034 392.304 781.865 391.74C782.706 391.175 783.127 390.477 783.127 389.646C783.127 388.943 782.855 388.362 782.312 387.904C781.779 387.446 780.949 387.095 779.819 386.85L775.632 385.971C773.278 385.481 771.536 384.655 770.407 383.494C769.278 382.322 768.718 380.841 768.729 379.051C768.718 377.539 769.129 376.228 769.96 375.12C770.801 374.002 771.968 373.139 773.459 372.531C774.961 371.914 776.692 371.605 778.653 371.605C781.529 371.605 783.793 372.217 785.444 373.442C787.106 374.668 788.134 376.324 788.528 378.412Z" stroke="white" stroke-width="6" mask="url(#path-1-outside-1_14_8)"/>
<path d="M806.083 371.924V376.399H791.972V371.924H806.083ZM795.456 366.044H801.241V389.087C801.241 389.865 801.358 390.461 801.592 390.877C801.837 391.282 802.157 391.558 802.551 391.708C802.945 391.857 803.382 391.931 803.861 391.931C804.224 391.931 804.554 391.905 804.852 391.851C805.161 391.798 805.395 391.75 805.555 391.708L806.53 396.23C806.221 396.337 805.779 396.454 805.204 396.582C804.639 396.709 803.947 396.784 803.126 396.805C801.677 396.848 800.372 396.63 799.211 396.15C798.05 395.66 797.128 394.904 796.447 393.881C795.775 392.858 795.445 391.58 795.456 390.046V366.044Z" stroke="white" stroke-width="6" mask="url(#path-1-outside-1_14_8)"/>
<path d="M821.523 396.949C819.062 396.949 816.937 396.438 815.147 395.415C813.368 394.382 811.999 392.922 811.04 391.036C810.082 389.14 809.602 386.908 809.602 384.341C809.602 381.816 810.082 379.6 811.04 377.693C812.01 375.775 813.363 374.284 815.099 373.219C816.836 372.143 818.876 371.605 821.22 371.605C822.733 371.605 824.16 371.85 825.502 372.34C826.855 372.819 828.049 373.565 829.082 374.577C830.126 375.589 830.946 376.878 831.543 378.444C832.139 380 832.438 381.853 832.438 384.005V385.779H812.319V381.88H826.893C826.882 380.772 826.642 379.786 826.174 378.924C825.705 378.05 825.05 377.363 824.208 376.862C823.377 376.361 822.408 376.111 821.3 376.111C820.117 376.111 819.078 376.399 818.184 376.974C817.289 377.539 816.591 378.284 816.09 379.211C815.6 380.127 815.35 381.134 815.339 382.231V385.635C815.339 387.063 815.6 388.288 816.122 389.311C816.644 390.323 817.374 391.1 818.311 391.644C819.249 392.176 820.346 392.443 821.603 392.443C822.445 392.443 823.207 392.326 823.888 392.091C824.57 391.846 825.161 391.489 825.662 391.021C826.163 390.552 826.541 389.971 826.797 389.279L832.198 389.886C831.857 391.313 831.207 392.56 830.248 393.625C829.3 394.68 828.086 395.5 826.605 396.086C825.124 396.661 823.43 396.949 821.523 396.949Z" stroke="white" stroke-width="6" mask="url(#path-1-outside-1_14_8)"/>
<path d="M837.332 396.47V371.924H842.861V376.095H843.148C843.66 374.689 844.507 373.592 845.689 372.803C846.872 372.004 848.283 371.605 849.924 371.605C851.586 371.605 852.987 372.009 854.127 372.819C855.277 373.618 856.087 374.71 856.556 376.095H856.811C857.355 374.731 858.271 373.645 859.56 372.835C860.86 372.015 862.399 371.605 864.178 371.605C866.437 371.605 868.28 372.318 869.707 373.746C871.135 375.174 871.849 377.256 871.849 379.994V396.47H866.048V380.889C866.048 379.366 865.643 378.252 864.833 377.549C864.024 376.835 863.033 376.479 861.861 376.479C860.466 376.479 859.374 376.915 858.585 377.789C857.808 378.652 857.419 379.776 857.419 381.161V396.47H851.746V380.649C851.746 379.382 851.362 378.37 850.595 377.613C849.839 376.857 848.848 376.479 847.623 376.479C846.792 376.479 846.036 376.692 845.354 377.118C844.672 377.533 844.129 378.125 843.724 378.892C843.319 379.648 843.116 380.532 843.116 381.544V396.47H837.332Z" stroke="white" stroke-width="6" mask="url(#path-1-outside-1_14_8)"/>
</svg>
