<svg width="100" height="51" viewBox="0 0 100 51" fill="none" xmlns="http://www.w3.org/2000/svg">
<path d="M11.9127 0.111073C13.249 -0.194379 14.4136 0.130166 15.4063 1.08471C16.1318 1.88652 16.4945 2.7647 16.4945 3.71924C16.4945 4.33015 16.3608 4.90287 16.0936 5.43742C15.4063 6.73559 14.2799 7.42286 12.7145 7.49923C11.2636 7.49923 10.1754 6.85014 9.44996 5.55196C9.14451 4.97924 8.99178 4.36833 8.99178 3.71924C8.99178 3.14652 9.12542 2.59288 9.39269 2.05834C9.88905 0.989253 10.729 0.340165 11.9127 0.111073ZM11.34 13.341C14.7763 13.1119 16.4181 12.9974 16.2654 12.9974H16.4945V27.4873C16.4945 37.4909 16.4181 42.7791 16.2654 43.3518C16.3036 43.2373 16.2654 43.3709 16.1508 43.7527C15.7308 45.0127 14.9863 46.1391 13.9172 47.1318C12.2372 48.8118 10.08 49.7663 7.44542 49.9954C6.60543 50.0718 5.89907 50.0718 5.32634 49.9954C2.99726 49.6518 1.37454 48.5827 0.45818 46.7882C0.152727 46.1391 0 45.4518 0 44.7263C0 43.2373 0.668179 42.2254 2.00454 41.6909C2.42454 41.5 2.88272 41.4045 3.37908 41.4045C3.91362 41.4045 4.44816 41.5382 4.98271 41.8055C6.12816 42.34 6.70088 43.3136 6.70088 44.7263C6.70088 45.5663 6.4527 46.2918 5.95634 46.9027C5.84179 47.0554 5.76543 47.1509 5.72725 47.1891L6.35725 47.3036C7.6936 47.4563 8.72451 47.17 9.44996 46.4445C10.2136 45.7191 10.7672 44.65 11.1109 43.2373L11.2254 42.4927L11.2827 30.8664C11.2827 23.0392 11.2636 19.011 11.2254 18.7819C11.149 18.2092 10.939 17.7701 10.5954 17.4646C10.1754 17.0828 9.1636 16.8728 7.55997 16.8346H6.41452V15.231C6.41452 14.1619 6.4527 13.6274 6.52906 13.6274L11.34 13.341Z" fill="white"/>
<path d="M32.5115 12.711C32.6643 12.6347 33.1988 12.6347 34.1152 12.711C35.6042 12.711 36.9215 12.9019 38.067 13.2837C39.8615 13.8947 41.3124 14.7919 42.4197 15.9756C43.4124 17.0065 44.0615 18.1519 44.3669 19.4119C44.4433 19.7174 44.5006 22.2946 44.5388 27.1437C44.5388 31.84 44.5769 34.3409 44.6533 34.6464C44.9206 35.3718 45.3215 35.62 45.856 35.3909C45.9324 35.3527 46.0278 35.2764 46.1424 35.1618C46.4097 34.8946 46.5433 34.3028 46.5433 33.3864C46.5815 33.1573 46.6006 32.7564 46.6006 32.1837V30.0073H49.4642V32.0119C49.4642 33.4628 49.4451 34.2646 49.4069 34.4173C49.1778 35.9064 48.2996 37.0709 46.7724 37.9109C45.2833 38.6364 43.966 38.8464 42.8206 38.5409C41.7133 38.2355 40.8733 37.5291 40.3006 36.4218C40.1479 36.1927 40.0333 35.9446 39.957 35.6773L39.8997 35.4482L39.3842 35.9637C38.7351 36.6127 37.9333 37.1664 36.9788 37.6246C35.1461 38.5791 33.1606 39.0182 31.0224 38.9418C28.4261 38.8273 26.3643 37.9491 24.837 36.3073C24.2643 35.7346 23.8252 35.1237 23.5198 34.4746C22.7943 32.9473 22.6798 31.42 23.1761 29.8928C23.8634 27.831 25.4288 26.2082 27.8725 25.0246C29.6288 24.1464 31.6524 23.5355 33.9433 23.1919C35.3942 22.9246 36.9215 22.7528 38.5251 22.6764H39.1551V21.3019C39.117 20.3474 39.0597 19.7174 38.9833 19.4119C38.8688 18.9155 38.6206 18.3619 38.2388 17.751C37.3224 16.4146 36.1388 15.6319 34.6879 15.4028C33.8097 15.2501 32.5497 15.2883 30.9079 15.5174C30.6024 15.5937 30.4306 15.6319 30.3925 15.6319C30.3161 15.6319 30.3734 15.7274 30.5643 15.9183C31.1752 16.7201 31.3852 17.6937 31.1943 18.8392C30.8888 20.1374 30.0679 20.9583 28.7315 21.3019C27.5097 21.6074 26.4406 21.321 25.5243 20.4428C24.837 19.7937 24.5125 18.9155 24.5507 17.8083C24.5888 17.2355 24.7416 16.6628 25.0088 16.0901C25.4288 15.2883 26.1925 14.5628 27.2997 13.9137C28.6361 13.2647 30.3734 12.8637 32.5115 12.711ZM39.1551 28.1746V25.311H38.8115C38.0861 25.311 37.2842 25.4064 36.4061 25.5973C35.1079 25.8264 33.8097 26.2082 32.5115 26.7428C30.4115 27.6973 29.1706 29.091 28.7888 30.9237C28.5979 32.1073 28.827 33.1955 29.4761 34.1882C30.6215 35.9827 32.3397 36.6127 34.6306 36.0782C34.7452 36.04 34.8597 36.0018 34.9742 35.9637C36.6542 35.5055 37.857 34.5318 38.5824 33.0428C38.6588 32.8519 38.7351 32.68 38.8115 32.5273C39.0406 31.6491 39.1551 30.1982 39.1551 28.1746Z" fill="white"/>
<path d="M56.3942 0.111073C57.7305 -0.194379 58.8951 0.130166 59.8878 1.08471C60.6132 1.88652 60.976 2.7647 60.976 3.71924C60.976 4.33015 60.8423 4.90287 60.5751 5.43742C59.8878 6.73559 58.7614 7.42286 57.196 7.49923C55.7451 7.49923 54.6569 6.85014 53.9314 5.55196C53.626 4.97924 53.4733 4.36833 53.4733 3.71924C53.4733 3.14652 53.6069 2.59288 53.8742 2.05834C54.3705 0.989253 55.2105 0.340165 56.3942 0.111073ZM55.9933 13.341C59.2005 13.1119 60.7278 12.9974 60.5751 12.9974H60.7469V23.8219C60.7469 31.0382 60.7851 34.6846 60.8614 34.7609C60.976 34.8755 61.0714 34.9328 61.1478 34.9328C61.3769 35.0473 62.2169 35.1046 63.6678 35.1046H64.7559V38.3118H64.2978L61.0332 38.1973C59.1241 38.1591 57.1578 38.1591 55.1342 38.1973C52.8051 38.2736 51.6215 38.3118 51.5833 38.3118H51.0678V35.1046H52.2705C54.256 35.1046 55.3251 34.9709 55.4778 34.7037C55.516 34.6655 55.5351 32.0309 55.5351 26.8001C55.5351 21.3019 55.4587 18.3619 55.306 17.9801C55.1914 17.6365 54.9623 17.3883 54.6187 17.2355C54.0842 16.9683 53.1869 16.8346 51.9269 16.8346H51.2969V13.6274H51.4115L55.9933 13.341Z" fill="white"/>
<path d="M75.7706 12.711C75.847 12.6728 76.3051 12.6538 77.1451 12.6538C78.6724 12.6919 80.0088 12.9783 81.1542 13.5128L81.8415 13.9137L82.7578 13.2837L83.6169 12.6538H84.1324C84.476 12.6538 84.7051 12.711 84.8197 12.8256L84.9915 12.9974V20.3283L84.6478 20.6719H82.4715L82.2997 20.5001C82.1851 20.3855 82.1279 20.1374 82.1279 19.7555C81.9369 17.3501 80.696 15.861 78.4051 15.2883C77.5651 15.1356 76.5151 15.1165 75.2552 15.231C75.1406 15.2692 75.0452 15.2883 74.9688 15.2883C73.0597 15.7083 72.0479 16.701 71.9333 18.2665C71.857 19.4119 72.3915 20.3283 73.537 21.0155C74.1097 21.3592 75.3124 21.7219 77.1451 22.1037C78.7488 22.4092 79.627 22.6001 79.7797 22.6764C82.2615 23.2873 84.1133 24.6428 85.3351 26.7428C85.4115 26.8955 85.4878 27.0291 85.5642 27.1437C86.0987 28.251 86.3851 29.301 86.4233 30.2937C86.4997 32.5464 85.946 34.3982 84.7624 35.8491C83.9224 36.9946 82.6815 37.8346 81.0397 38.3691C78.787 39.1327 76.5533 39.2091 74.3388 38.5982C73.2315 38.2546 72.3343 37.7964 71.647 37.2237L71.3606 37.0518L70.3297 37.8536C69.337 38.5791 68.7452 38.9418 68.5543 38.9418C68.2106 38.9418 67.9815 38.8846 67.867 38.77L67.6952 38.5982V34.2455C67.6952 31.1528 67.7906 29.5491 67.9815 29.4346C68.0579 29.3964 68.4588 29.3773 69.1843 29.3773C69.9861 29.3773 70.4252 29.4728 70.5015 29.6637C70.5397 29.74 70.597 29.95 70.6734 30.2937C71.7806 34.7609 74.3197 36.7082 78.2906 36.1355C80.276 35.9064 81.5169 35.0091 82.0133 33.4437C82.0897 33.2146 82.1279 32.8328 82.1279 32.2982C82.1279 31.7637 82.0897 31.3819 82.0133 31.1528C81.7842 30.3891 81.2306 29.7019 80.3524 29.091C79.7415 28.671 78.5006 28.2701 76.6297 27.8882C74.4915 27.5064 72.9643 27.0673 72.0479 26.571C71.1697 26.151 70.4061 25.6164 69.757 24.9673C69.1843 24.3946 68.707 23.7264 68.3252 22.9628C67.9434 22.161 67.7334 21.321 67.6952 20.4428C67.657 19.2974 67.9052 18.1137 68.4397 16.8919C68.7834 16.2046 69.1843 15.6319 69.6424 15.1737C70.8261 13.8756 72.6206 13.0737 75.0261 12.7683C75.217 12.7301 75.4652 12.711 75.7706 12.711Z" fill="white"/>
<path d="M95.3896 30.9237C96.2296 30.6946 97.0886 30.79 97.9668 31.21C98.6923 31.5919 99.2459 32.1455 99.6277 32.8709C100.124 33.9782 100.124 35.1046 99.6277 36.25C99.2459 36.9755 98.6923 37.5291 97.9668 37.9109C96.8214 38.4073 95.695 38.4073 94.5877 37.9109C93.8623 37.5291 93.3087 36.9755 92.9268 36.25C92.4305 35.1046 92.4305 33.9782 92.9268 32.8709C93.385 31.8782 94.2059 31.2291 95.3896 30.9237Z" fill="white"/>
<path d="M20.1067 45.1267C19.9285 45.1267 19.7681 45.095 19.6253 45.0315C19.4838 44.9669 19.3715 44.8717 19.2885 44.746C19.2067 44.6203 19.1659 44.4653 19.1659 44.2811C19.1659 44.1224 19.1952 43.9912 19.2537 43.8875C19.3123 43.7838 19.3922 43.7008 19.4935 43.6386C19.5948 43.5763 19.7089 43.5294 19.8358 43.4976C19.9639 43.4647 20.0963 43.4409 20.233 43.4262C20.3978 43.4092 20.5314 43.3939 20.6339 43.3805C20.7364 43.3658 20.8108 43.3439 20.8572 43.3146C20.9048 43.2841 20.9286 43.2371 20.9286 43.1736V43.1627C20.9286 43.0248 20.8877 42.918 20.8059 42.8423C20.7242 42.7667 20.6064 42.7288 20.4527 42.7288C20.2904 42.7288 20.1616 42.7642 20.0664 42.835C19.9725 42.9058 19.909 42.9894 19.8761 43.0858L19.2574 42.9979C19.3062 42.8271 19.3867 42.6843 19.499 42.5696C19.6113 42.4537 19.7486 42.367 19.9109 42.3097C20.0732 42.2511 20.2525 42.2218 20.449 42.2218C20.5845 42.2218 20.7193 42.2377 20.8535 42.2694C20.9878 42.3011 21.1104 42.3536 21.2215 42.4268C21.3325 42.4988 21.4216 42.5971 21.4887 42.7215C21.557 42.846 21.5912 43.0016 21.5912 43.1883V45.07H20.9542V44.6838H20.9322C20.892 44.7619 20.8352 44.8351 20.762 44.9034C20.69 44.9705 20.5991 45.0248 20.4893 45.0663C20.3807 45.1066 20.2531 45.1267 20.1067 45.1267ZM20.2788 44.6398C20.4118 44.6398 20.5271 44.6136 20.6247 44.5611C20.7223 44.5074 20.7974 44.4366 20.8499 44.3488C20.9036 44.2609 20.9304 44.1651 20.9304 44.0614V43.7301C20.9097 43.7472 20.8743 43.763 20.8242 43.7777C20.7754 43.7923 20.7205 43.8051 20.6595 43.8161C20.5985 43.8271 20.5381 43.8369 20.4783 43.8454C20.4185 43.854 20.3666 43.8613 20.3227 43.8674C20.2239 43.8808 20.1354 43.9028 20.0573 43.9333C19.9792 43.9638 19.9176 44.0065 19.8724 44.0614C19.8273 44.1151 19.8047 44.1847 19.8047 44.2701C19.8047 44.3921 19.8492 44.4842 19.9383 44.5465C20.0274 44.6087 20.1409 44.6398 20.2788 44.6398Z" fill="white"/>
<path d="M23.5653 45.07V41.3212H24.228V42.7234H24.2554C24.2896 42.655 24.3378 42.5824 24.4 42.5055C24.4622 42.4274 24.5464 42.3609 24.6526 42.306C24.7588 42.2499 24.8942 42.2218 25.059 42.2218C25.2762 42.2218 25.472 42.2773 25.6465 42.3884C25.8223 42.4982 25.9614 42.6611 26.0639 42.8771C26.1676 43.0919 26.2195 43.3555 26.2195 43.6679C26.2195 43.9766 26.1688 44.239 26.0675 44.455C25.9663 44.6709 25.8284 44.8357 25.6539 44.9492C25.4794 45.0627 25.2817 45.1194 25.0608 45.1194C24.8997 45.1194 24.7661 45.0926 24.6599 45.0389C24.5538 44.9852 24.4683 44.9205 24.4037 44.8448C24.3402 44.768 24.2908 44.6954 24.2554 44.627H24.217V45.07H23.5653ZM24.2151 43.6642C24.2151 43.846 24.2408 44.0053 24.292 44.1419C24.3445 44.2786 24.4195 44.3854 24.5172 44.4623C24.616 44.5379 24.7356 44.5758 24.8759 44.5758C25.0224 44.5758 25.145 44.5367 25.2438 44.4586C25.3427 44.3793 25.4171 44.2713 25.4672 44.1346C25.5184 43.9967 25.544 43.8399 25.544 43.6642C25.544 43.4897 25.519 43.3347 25.469 43.1993C25.419 43.0638 25.3445 42.9577 25.2457 42.8808C25.1468 42.8039 25.0236 42.7655 24.8759 42.7655C24.7344 42.7655 24.6142 42.8027 24.5153 42.8771C24.4165 42.9515 24.3414 43.0559 24.2902 43.1901C24.2402 43.3243 24.2151 43.4824 24.2151 43.6642Z" fill="white"/>
<path d="M26.7828 45.07V42.2584H27.4253V42.727H27.4546C27.5058 42.5647 27.5937 42.4396 27.7181 42.3518C27.8438 42.2627 27.9872 42.2182 28.1483 42.2182C28.1849 42.2182 28.2258 42.22 28.2709 42.2236C28.3173 42.2261 28.3557 42.2304 28.3863 42.2365V42.846C28.3582 42.8362 28.3136 42.8277 28.2526 42.8204C28.1928 42.8118 28.1349 42.8076 28.0787 42.8076C27.9579 42.8076 27.8493 42.8338 27.7529 42.8863C27.6577 42.9375 27.5827 43.0089 27.5278 43.1004C27.4729 43.1919 27.4454 43.2975 27.4454 43.4171V45.07H26.7828Z" fill="white"/>
<path d="M29.9554 45.1249C29.6735 45.1249 29.4301 45.0663 29.2251 44.9492C29.0213 44.8308 28.8645 44.6636 28.7546 44.4476C28.6448 44.2304 28.5899 43.9748 28.5899 43.6807C28.5899 43.3915 28.6448 43.1376 28.7546 42.9192C28.8657 42.6996 29.0207 42.5287 29.2196 42.4067C29.4185 42.2834 29.6522 42.2218 29.9206 42.2218C30.0939 42.2218 30.2574 42.2499 30.4112 42.306C30.5662 42.3609 30.7028 42.4463 30.8212 42.5623C30.9408 42.6782 31.0348 42.8259 31.1031 43.0052C31.1714 43.1834 31.2056 43.3957 31.2056 43.6422V43.8454H28.9011V43.3988H30.5704C30.5692 43.2719 30.5418 43.159 30.4881 43.0602C30.4344 42.9601 30.3593 42.8814 30.2629 42.824C30.1677 42.7667 30.0567 42.738 29.9298 42.738C29.7943 42.738 29.6753 42.7709 29.5728 42.8368C29.4703 42.9015 29.3904 42.9869 29.3331 43.0931C29.2769 43.198 29.2482 43.3134 29.247 43.4391V43.8289C29.247 43.9925 29.2769 44.1328 29.3367 44.2499C29.3965 44.3659 29.4801 44.455 29.5875 44.5172C29.6949 44.5782 29.8206 44.6087 29.9646 44.6087C30.061 44.6087 30.1482 44.5953 30.2263 44.5684C30.3044 44.5404 30.3721 44.4995 30.4295 44.4458C30.4868 44.3921 30.5302 44.3256 30.5594 44.2463L31.1781 44.3158C31.1391 44.4794 31.0647 44.6221 30.9548 44.7442C30.8462 44.865 30.7071 44.9589 30.5375 45.026C30.3679 45.0919 30.1738 45.1249 29.9554 45.1249Z" fill="white"/>
<path d="M32.5752 45.1267C32.3971 45.1267 32.2366 45.095 32.0938 45.0315C31.9523 44.9669 31.84 44.8717 31.757 44.746C31.6753 44.6203 31.6344 44.4653 31.6344 44.2811C31.6344 44.1224 31.6637 43.9912 31.7222 43.8875C31.7808 43.7838 31.8607 43.7008 31.962 43.6386C32.0633 43.5763 32.1774 43.5294 32.3043 43.4976C32.4324 43.4647 32.5649 43.4409 32.7015 43.4262C32.8663 43.4092 32.9999 43.3939 33.1024 43.3805C33.2049 43.3658 33.2793 43.3439 33.3257 43.3146C33.3733 43.2841 33.3971 43.2371 33.3971 43.1736V43.1627C33.3971 43.0248 33.3562 42.918 33.2745 42.8423C33.1927 42.7667 33.0749 42.7288 32.9212 42.7288C32.7589 42.7288 32.6301 42.7642 32.535 42.835C32.441 42.9058 32.3775 42.9894 32.3446 43.0858L31.7259 42.9979C31.7747 42.8271 31.8552 42.6843 31.9675 42.5696C32.0798 42.4537 32.2171 42.367 32.3794 42.3097C32.5417 42.2511 32.721 42.2218 32.9175 42.2218C33.053 42.2218 33.1878 42.2377 33.322 42.2694C33.4563 42.3011 33.5789 42.3536 33.69 42.4268C33.801 42.4988 33.8901 42.5971 33.9572 42.7215C34.0255 42.846 34.0597 43.0016 34.0597 43.1883V45.07H33.4227V44.6838H33.4008C33.3605 44.7619 33.3037 44.8351 33.2305 44.9034C33.1585 44.9705 33.0676 45.0248 32.9578 45.0663C32.8492 45.1066 32.7217 45.1267 32.5752 45.1267ZM32.7473 44.6398C32.8803 44.6398 32.9956 44.6136 33.0932 44.5611C33.1909 44.5074 33.2659 44.4366 33.3184 44.3488C33.3721 44.2609 33.3989 44.1651 33.3989 44.0614V43.7301C33.3782 43.7472 33.3428 43.763 33.2928 43.7777C33.2439 43.7923 33.189 43.8051 33.128 43.8161C33.067 43.8271 33.0066 43.8369 32.9468 43.8454C32.887 43.854 32.8351 43.8613 32.7912 43.8674C32.6924 43.8808 32.6039 43.9028 32.5258 43.9333C32.4477 43.9638 32.3861 44.0065 32.3409 44.0614C32.2958 44.1151 32.2732 44.1847 32.2732 44.2701C32.2732 44.3921 32.3177 44.4842 32.4068 44.5465C32.4959 44.6087 32.6094 44.6398 32.7473 44.6398Z" fill="white"/>
<path d="M35.7693 45.1194C35.5485 45.1194 35.3508 45.0627 35.1763 44.9492C35.0018 44.8357 34.8639 44.6709 34.7626 44.455C34.6613 44.239 34.6107 43.9766 34.6107 43.6679C34.6107 43.3555 34.6619 43.0919 34.7644 42.8771C34.8682 42.6611 35.0079 42.4982 35.1836 42.3884C35.3593 42.2773 35.5552 42.2218 35.7712 42.2218C35.9359 42.2218 36.0714 42.2499 36.1775 42.306C36.2837 42.3609 36.3679 42.4274 36.4301 42.5055C36.4924 42.5824 36.5406 42.655 36.5747 42.7234H36.6022V41.3212H37.2666V45.07H36.615V44.627H36.5747C36.5406 44.6954 36.4911 44.768 36.4265 44.8448C36.3618 44.9205 36.2764 44.9852 36.1702 45.0389C36.064 45.0926 35.9304 45.1194 35.7693 45.1194ZM35.9542 44.5758C36.0945 44.5758 36.2141 44.5379 36.313 44.4623C36.4118 44.3854 36.4869 44.2786 36.5381 44.1419C36.5894 44.0053 36.615 43.846 36.615 43.6642C36.615 43.4824 36.5894 43.3243 36.5381 43.1901C36.4881 43.0559 36.4137 42.9515 36.3148 42.8771C36.2172 42.8027 36.097 42.7655 35.9542 42.7655C35.8066 42.7655 35.6833 42.8039 35.5845 42.8808C35.4856 42.9577 35.4112 43.0638 35.3612 43.1993C35.3111 43.3347 35.2861 43.4897 35.2861 43.6642C35.2861 43.8399 35.3111 43.9967 35.3612 44.1346C35.4124 44.2713 35.4875 44.3793 35.5863 44.4586C35.6864 44.5367 35.809 44.5758 35.9542 44.5758Z" fill="white"/>
<path d="M39.6769 43.2359V43.7814H37.9892V43.2359H39.6769Z" fill="white"/>
<path d="M40.4031 45.07V41.3212H41.0657V42.7234H41.0932C41.1274 42.655 41.1756 42.5824 41.2378 42.5055C41.3 42.4274 41.3842 42.3609 41.4904 42.306C41.5966 42.2499 41.732 42.2218 41.8967 42.2218C42.114 42.2218 42.3098 42.2773 42.4843 42.3884C42.66 42.4982 42.7992 42.6611 42.9017 42.8771C43.0054 43.0919 43.0572 43.3555 43.0572 43.6679C43.0572 43.9766 43.0066 44.239 42.9053 44.455C42.804 44.6709 42.6661 44.8357 42.4916 44.9492C42.3171 45.0627 42.1195 45.1194 41.8986 45.1194C41.7375 45.1194 41.6039 45.0926 41.4977 45.0389C41.3915 44.9852 41.3061 44.9205 41.2414 44.8448C41.178 44.768 41.1286 44.6954 41.0932 44.627H41.0547V45.07H40.4031ZM41.0529 43.6642C41.0529 43.846 41.0785 44.0053 41.1298 44.1419C41.1823 44.2786 41.2573 44.3854 41.3549 44.4623C41.4538 44.5379 41.5734 44.5758 41.7137 44.5758C41.8601 44.5758 41.9828 44.5367 42.0816 44.4586C42.1805 44.3793 42.2549 44.2713 42.3049 44.1346C42.3562 43.9967 42.3818 43.8399 42.3818 43.6642C42.3818 43.4897 42.3568 43.3347 42.3068 43.1993C42.2567 43.0638 42.1823 42.9577 42.0835 42.8808C41.9846 42.8039 41.8614 42.7655 41.7137 42.7655C41.5721 42.7655 41.4519 42.8027 41.3531 42.8771C41.2543 42.9515 41.1792 43.0559 41.128 43.1901C41.0779 43.3243 41.0529 43.4824 41.0529 43.6642Z" fill="white"/>
<path d="M44.847 45.1249C44.5724 45.1249 44.3344 45.0645 44.1331 44.9437C43.9317 44.8229 43.7755 44.6539 43.6645 44.4366C43.5547 44.2194 43.4998 43.9656 43.4998 43.6752C43.4998 43.3848 43.5547 43.1303 43.6645 42.9119C43.7755 42.6935 43.9317 42.5238 44.1331 42.403C44.3344 42.2822 44.5724 42.2218 44.847 42.2218C45.1215 42.2218 45.3595 42.2822 45.5608 42.403C45.7622 42.5238 45.9178 42.6935 46.0276 42.9119C46.1386 43.1303 46.1942 43.3848 46.1942 43.6752C46.1942 43.9656 46.1386 44.2194 46.0276 44.4366C45.9178 44.6539 45.7622 44.8229 45.5608 44.9437C45.3595 45.0645 45.1215 45.1249 44.847 45.1249ZM44.8506 44.5941C44.9995 44.5941 45.124 44.5532 45.224 44.4714C45.3241 44.3884 45.3985 44.2774 45.4473 44.1383C45.4974 43.9992 45.5224 43.8442 45.5224 43.6734C45.5224 43.5013 45.4974 43.3457 45.4473 43.2066C45.3985 43.0663 45.3241 42.9546 45.224 42.8716C45.124 42.7886 44.9995 42.7471 44.8506 42.7471C44.6981 42.7471 44.5712 42.7886 44.4699 42.8716C44.3698 42.9546 44.2948 43.0663 44.2447 43.2066C44.1959 43.3457 44.1715 43.5013 44.1715 43.6734C44.1715 43.8442 44.1959 43.9992 44.2447 44.1383C44.2948 44.2774 44.3698 44.3884 44.4699 44.4714C44.5712 44.5532 44.6981 44.5941 44.8506 44.5941Z" fill="white"/>
<path d="M47.4192 43.4226V45.07H46.7566V42.2584H47.3899V42.7362H47.4228C47.4875 42.5787 47.5906 42.4537 47.7322 42.3609C47.875 42.2682 48.0513 42.2218 48.2612 42.2218C48.4552 42.2218 48.6242 42.2633 48.7682 42.3463C48.9134 42.4293 49.0257 42.5495 49.105 42.7069C49.1856 42.8643 49.2252 43.0553 49.224 43.2798V45.07H48.5614V43.3823C48.5614 43.1944 48.5126 43.0473 48.4149 42.9412C48.3185 42.835 48.1849 42.7819 48.0141 42.7819C47.8982 42.7819 47.795 42.8076 47.7047 42.8588C47.6157 42.9088 47.5455 42.9814 47.4942 43.0766C47.4442 43.1718 47.4192 43.2871 47.4192 43.4226Z" fill="white"/>
<path d="M51.1423 45.1249C50.8604 45.1249 50.617 45.0663 50.412 44.9492C50.2082 44.8308 50.0514 44.6636 49.9415 44.4476C49.8317 44.2304 49.7768 43.9748 49.7768 43.6807C49.7768 43.3915 49.8317 43.1376 49.9415 42.9192C50.0526 42.6996 50.2076 42.5287 50.4065 42.4067C50.6054 42.2834 50.8391 42.2218 51.1075 42.2218C51.2808 42.2218 51.4443 42.2499 51.5981 42.306C51.7531 42.3609 51.8897 42.4463 52.0081 42.5623C52.1277 42.6782 52.2217 42.8259 52.29 43.0052C52.3583 43.1834 52.3925 43.3957 52.3925 43.6422V43.8454H50.088V43.3988H51.7573C51.7561 43.2719 51.7287 43.159 51.675 43.0602C51.6213 42.9601 51.5462 42.8814 51.4498 42.824C51.3546 42.7667 51.2436 42.738 51.1167 42.738C50.9812 42.738 50.8622 42.7709 50.7597 42.8368C50.6572 42.9015 50.5773 42.9869 50.52 43.0931C50.4638 43.198 50.4351 43.3134 50.4339 43.4391V43.8289C50.4339 43.9925 50.4638 44.1328 50.5236 44.2499C50.5834 44.3659 50.667 44.455 50.7744 44.5172C50.8818 44.5782 51.0075 44.6087 51.1515 44.6087C51.2479 44.6087 51.3351 44.5953 51.4132 44.5684C51.4913 44.5404 51.559 44.4995 51.6164 44.4458C51.6737 44.3921 51.7171 44.3256 51.7464 44.2463L52.365 44.3158C52.326 44.4794 52.2516 44.6221 52.1417 44.7442C52.0331 44.865 51.894 44.9589 51.7244 45.026C51.5548 45.0919 51.3607 45.1249 51.1423 45.1249Z" fill="white"/>
<path d="M55.1752 43.0016L54.5712 43.0675C54.5541 43.0065 54.5242 42.9491 54.4815 42.8954C54.44 42.8417 54.3839 42.7984 54.3131 42.7655C54.2423 42.7325 54.1557 42.716 54.0532 42.716C53.9153 42.716 53.7993 42.7459 53.7054 42.8057C53.6126 42.8655 53.5669 42.943 53.5681 43.0382C53.5669 43.1199 53.5968 43.1865 53.6578 43.2377C53.72 43.289 53.8225 43.3311 53.9653 43.364L54.4449 43.4665C54.7109 43.5239 54.9086 43.6148 55.0379 43.7392C55.1685 43.8637 55.2344 44.0266 55.2356 44.228C55.2344 44.4049 55.1825 44.5611 55.08 44.6966C54.9788 44.8308 54.8378 44.9357 54.6572 45.0114C54.4766 45.0871 54.2692 45.1249 54.0349 45.1249C53.6907 45.1249 53.4137 45.0529 53.2038 44.9089C52.994 44.7637 52.8689 44.5617 52.8286 44.303L53.4747 44.2408C53.504 44.3677 53.5663 44.4635 53.6615 44.5282C53.7566 44.5928 53.8805 44.6252 54.033 44.6252C54.1905 44.6252 54.3168 44.5928 54.4119 44.5282C54.5083 44.4635 54.5565 44.3836 54.5565 44.2884C54.5565 44.2078 54.5254 44.1413 54.4632 44.0889C54.4022 44.0364 54.307 43.9961 54.1776 43.9681L53.6981 43.8674C53.4284 43.8112 53.2289 43.7167 53.0995 43.5837C52.9702 43.4494 52.9061 43.2798 52.9073 43.0748C52.9061 42.9015 52.9531 42.7514 53.0483 42.6245C53.1447 42.4964 53.2783 42.3975 53.4491 42.328C53.6212 42.2572 53.8195 42.2218 54.044 42.2218C54.3735 42.2218 54.6328 42.292 54.822 42.4323C55.0123 42.5726 55.1301 42.7624 55.1752 43.0016Z" fill="white"/>
<path d="M57.0606 45.07V42.2584H57.7232V45.07H57.0606ZM57.3937 41.8594C57.2888 41.8594 57.1985 41.8246 57.1228 41.7551C57.0472 41.6843 57.0093 41.5995 57.0093 41.5006C57.0093 41.4006 57.0472 41.3157 57.1228 41.2462C57.1985 41.1754 57.2888 41.14 57.3937 41.14C57.4999 41.14 57.5902 41.1754 57.6646 41.2462C57.7403 41.3157 57.7781 41.4006 57.7781 41.5006C57.7781 41.5995 57.7403 41.6843 57.6646 41.7551C57.5902 41.8246 57.4999 41.8594 57.3937 41.8594Z" fill="white"/>
<path d="M59.0672 43.4226V45.07H58.4046V42.2584H59.0379V42.7362H59.0709C59.1355 42.5787 59.2387 42.4537 59.3802 42.3609C59.523 42.2682 59.6993 42.2218 59.9092 42.2218C60.1032 42.2218 60.2722 42.2633 60.4162 42.3463C60.5615 42.4293 60.6737 42.5495 60.753 42.7069C60.8336 42.8643 60.8732 43.0553 60.872 43.2798V45.07H60.2094V43.3823C60.2094 43.1944 60.1606 43.0473 60.063 42.9412C59.9666 42.835 59.8329 42.7819 59.6621 42.7819C59.5462 42.7819 59.4431 42.8076 59.3528 42.8588C59.2637 42.9088 59.1935 42.9814 59.1423 43.0766C59.0922 43.1718 59.0672 43.2871 59.0672 43.4226Z" fill="white"/>
<path d="M63.9563 42.2584L62.9551 45.07H62.2229L61.2216 42.2584H61.9282L62.5743 44.347H62.6036L63.2516 42.2584H63.9563Z" fill="white"/>
<path d="M65.5639 45.1249C65.282 45.1249 65.0386 45.0663 64.8336 44.9492C64.6298 44.8308 64.473 44.6636 64.3631 44.4476C64.2533 44.2304 64.1984 43.9748 64.1984 43.6807C64.1984 43.3915 64.2533 43.1376 64.3631 42.9192C64.4742 42.6996 64.6292 42.5287 64.8281 42.4067C65.027 42.2834 65.2607 42.2218 65.5291 42.2218C65.7024 42.2218 65.8659 42.2499 66.0197 42.306C66.1747 42.3609 66.3113 42.4463 66.4297 42.5623C66.5493 42.6782 66.6433 42.8259 66.7116 43.0052C66.7799 43.1834 66.8141 43.3957 66.8141 43.6422V43.8454H64.5096V43.3988H66.1789C66.1777 43.2719 66.1503 43.159 66.0966 43.0602C66.0429 42.9601 65.9678 42.8814 65.8714 42.824C65.7762 42.7667 65.6652 42.738 65.5383 42.738C65.4028 42.738 65.2838 42.7709 65.1813 42.8368C65.0788 42.9015 64.9989 42.9869 64.9415 43.0931C64.8854 43.198 64.8567 43.3134 64.8555 43.4391V43.8289C64.8555 43.9925 64.8854 44.1328 64.9452 44.2499C65.005 44.3659 65.0886 44.455 65.196 44.5172C65.3034 44.5782 65.4291 44.6087 65.5731 44.6087C65.6695 44.6087 65.7567 44.5953 65.8348 44.5684C65.9129 44.5404 65.9806 44.4995 66.038 44.4458C66.0953 44.3921 66.1387 44.3256 66.1679 44.2463L66.7866 44.3158C66.7476 44.4794 66.6731 44.6221 66.5633 44.7442C66.4547 44.865 66.3156 44.9589 66.146 45.026C65.9764 45.0919 65.7823 45.1249 65.5639 45.1249Z" fill="white"/>
<path d="M68.0373 43.4226V45.07H67.3747V42.2584H68.008V42.7362H68.0409C68.1056 42.5787 68.2087 42.4537 68.3503 42.3609C68.4931 42.2682 68.6694 42.2218 68.8793 42.2218C69.0733 42.2218 69.2423 42.2633 69.3863 42.3463C69.5315 42.4293 69.6438 42.5495 69.7231 42.7069C69.8037 42.8643 69.8433 43.0553 69.8421 43.2798V45.07H69.1795V43.3823C69.1795 43.1944 69.1307 43.0473 69.033 42.9412C68.9366 42.835 68.803 42.7819 68.6322 42.7819C68.5162 42.7819 68.4131 42.8076 68.3228 42.8588C68.2338 42.9088 68.1636 42.9814 68.1123 43.0766C68.0623 43.1718 68.0373 43.2871 68.0373 43.4226Z" fill="white"/>
<path d="M71.9197 42.2584V42.7709H70.3034V42.2584H71.9197ZM70.7024 41.5848H71.365V44.2243C71.365 44.3134 71.3785 44.3817 71.4053 44.4293C71.4334 44.4757 71.47 44.5074 71.5151 44.5245C71.5603 44.5416 71.6103 44.5501 71.6652 44.5501C71.7067 44.5501 71.7445 44.5471 71.7787 44.541C71.8141 44.5349 71.8409 44.5294 71.8592 44.5245L71.9709 45.0425C71.9355 45.0547 71.8849 45.0682 71.819 45.0828C71.7543 45.0974 71.675 45.106 71.581 45.1084C71.4151 45.1133 71.2656 45.0883 71.1326 45.0334C70.9995 44.9772 70.894 44.8906 70.8159 44.7735C70.739 44.6563 70.7012 44.5099 70.7024 44.3341V41.5848Z" fill="white"/>
<path d="M73.67 45.1249C73.3954 45.1249 73.1575 45.0645 72.9561 44.9437C72.7548 44.8229 72.5986 44.6539 72.4875 44.4366C72.3777 44.2194 72.3228 43.9656 72.3228 43.6752C72.3228 43.3848 72.3777 43.1303 72.4875 42.9119C72.5986 42.6935 72.7548 42.5238 72.9561 42.403C73.1575 42.2822 73.3954 42.2218 73.67 42.2218C73.9446 42.2218 74.1825 42.2822 74.3839 42.403C74.5852 42.5238 74.7408 42.6935 74.8506 42.9119C74.9617 43.1303 75.0172 43.3848 75.0172 43.6752C75.0172 43.9656 74.9617 44.2194 74.8506 44.4366C74.7408 44.6539 74.5852 44.8229 74.3839 44.9437C74.1825 45.0645 73.9446 45.1249 73.67 45.1249ZM73.6737 44.5941C73.8225 44.5941 73.947 44.5532 74.0471 44.4714C74.1471 44.3884 74.2216 44.2774 74.2704 44.1383C74.3204 43.9992 74.3454 43.8442 74.3454 43.6734C74.3454 43.5013 74.3204 43.3457 74.2704 43.2066C74.2216 43.0663 74.1471 42.9546 74.0471 42.8716C73.947 42.7886 73.8225 42.7471 73.6737 42.7471C73.5211 42.7471 73.3942 42.7886 73.2929 42.8716C73.1929 42.9546 73.1178 43.0663 73.0678 43.2066C73.019 43.3457 72.9946 43.5013 72.9946 43.6734C72.9946 43.8442 73.019 43.9992 73.0678 44.1383C73.1178 44.2774 73.1929 44.3884 73.2929 44.4714C73.3942 44.5532 73.5211 44.5941 73.6737 44.5941Z" fill="white"/>
<path d="M75.5796 45.07V42.2584H76.2221V42.727H76.2514C76.3026 42.5647 76.3905 42.4396 76.515 42.3518C76.6407 42.2627 76.7841 42.2182 76.9451 42.2182C76.9817 42.2182 77.0226 42.22 77.0678 42.2236C77.1141 42.2261 77.1526 42.2304 77.1831 42.2365V42.846C77.155 42.8362 77.1105 42.8277 77.0495 42.8204C76.9897 42.8118 76.9317 42.8076 76.8756 42.8076C76.7548 42.8076 76.6462 42.8338 76.5498 42.8863C76.4546 42.9375 76.3795 43.0089 76.3246 43.1004C76.2697 43.1919 76.2422 43.2975 76.2422 43.4171V45.07H75.5796Z" fill="white"/>
<path d="M78.1207 46.1243C78.0304 46.1243 77.9468 46.117 77.87 46.1024C77.7943 46.0889 77.7339 46.0731 77.6887 46.0548L77.8425 45.5386C77.9389 45.5666 78.0249 45.5801 78.1006 45.5788C78.1763 45.5776 78.2428 45.5538 78.3001 45.5075C78.3587 45.4623 78.4081 45.3866 78.4484 45.2805L78.5051 45.1286L77.4856 42.2584H78.1885L78.8364 44.3817H78.8657L79.5155 42.2584H80.2202L79.0945 45.4104C79.0421 45.5593 78.9725 45.6868 78.8859 45.793C78.7992 45.9004 78.693 45.9821 78.5674 46.0383C78.4429 46.0956 78.294 46.1243 78.1207 46.1243Z" fill="white"/>
<path d="M84.1795 43.0016L83.5754 43.0675C83.5584 43.0065 83.5285 42.9491 83.4858 42.8954C83.4443 42.8417 83.3881 42.7984 83.3174 42.7655C83.2466 42.7325 83.1599 42.716 83.0574 42.716C82.9195 42.716 82.8036 42.7459 82.7096 42.8057C82.6169 42.8655 82.5711 42.943 82.5724 43.0382C82.5711 43.1199 82.601 43.1865 82.6621 43.2377C82.7243 43.289 82.8268 43.3311 82.9696 43.364L83.4491 43.4665C83.7152 43.5239 83.9129 43.6148 84.0422 43.7392C84.1728 43.8637 84.2387 44.0266 84.2399 44.228C84.2387 44.4049 84.1868 44.5611 84.0843 44.6966C83.983 44.8308 83.8421 44.9357 83.6615 45.0114C83.4809 45.0871 83.2734 45.1249 83.0391 45.1249C82.695 45.1249 82.418 45.0529 82.2081 44.9089C81.9982 44.7637 81.8731 44.5617 81.8329 44.303L82.479 44.2408C82.5083 44.3677 82.5705 44.4635 82.6657 44.5282C82.7609 44.5928 82.8848 44.6252 83.0373 44.6252C83.1947 44.6252 83.321 44.5928 83.4162 44.5282C83.5126 44.4635 83.5608 44.3836 83.5608 44.2884C83.5608 44.2078 83.5297 44.1413 83.4674 44.0889C83.4064 44.0364 83.3113 43.9961 83.1819 43.9681L82.7023 43.8674C82.4326 43.8112 82.2331 43.7167 82.1038 43.5837C81.9744 43.4494 81.9104 43.2798 81.9116 43.0748C81.9104 42.9015 81.9573 42.7514 82.0525 42.6245C82.1489 42.4964 82.2825 42.3975 82.4534 42.328C82.6254 42.2572 82.8237 42.2218 83.0483 42.2218C83.3778 42.2218 83.6371 42.292 83.8262 42.4323C84.0166 42.5726 84.1343 42.7624 84.1795 43.0016Z" fill="white"/>
<path d="M85.1981 46.1243C85.1078 46.1243 85.0242 46.117 84.9474 46.1024C84.8717 46.0889 84.8113 46.0731 84.7661 46.0548L84.9199 45.5386C85.0163 45.5666 85.1023 45.5801 85.178 45.5788C85.2537 45.5776 85.3202 45.5538 85.3775 45.5075C85.4361 45.4623 85.4855 45.3866 85.5258 45.2805L85.5825 45.1286L84.563 42.2584H85.2659L85.9138 44.3817H85.9431L86.5929 42.2584H87.2977L86.1719 45.4104C86.1195 45.5593 86.0499 45.6868 85.9633 45.793C85.8766 45.9004 85.7705 45.9821 85.6448 46.0383C85.5203 46.0956 85.3714 46.1243 85.1981 46.1243Z" fill="white"/>
<path d="M89.9783 43.0016L89.3743 43.0675C89.3572 43.0065 89.3273 42.9491 89.2846 42.8954C89.2431 42.8417 89.187 42.7984 89.1162 42.7655C89.0454 42.7325 88.9588 42.716 88.8563 42.716C88.7184 42.716 88.6024 42.7459 88.5085 42.8057C88.4157 42.8655 88.37 42.943 88.3712 43.0382C88.37 43.1199 88.3999 43.1865 88.4609 43.2377C88.5231 43.289 88.6256 43.3311 88.7684 43.364L89.248 43.4665C89.514 43.5239 89.7117 43.6148 89.841 43.7392C89.9716 43.8637 90.0375 44.0266 90.0387 44.228C90.0375 44.4049 89.9857 44.5611 89.8831 44.6966C89.7819 44.8308 89.6409 44.9357 89.4603 45.0114C89.2797 45.0871 89.0723 45.1249 88.838 45.1249C88.4938 45.1249 88.2168 45.0529 88.0069 44.9089C87.7971 44.7637 87.672 44.5617 87.6317 44.303L88.2778 44.2408C88.3071 44.3677 88.3694 44.4635 88.4646 44.5282C88.5597 44.5928 88.6836 44.6252 88.8361 44.6252C88.9936 44.6252 89.1199 44.5928 89.215 44.5282C89.3114 44.4635 89.3596 44.3836 89.3596 44.2884C89.3596 44.2078 89.3285 44.1413 89.2663 44.0889C89.2053 44.0364 89.1101 43.9961 88.9807 43.9681L88.5012 43.8674C88.2315 43.8112 88.032 43.7167 87.9026 43.5837C87.7733 43.4494 87.7092 43.2798 87.7104 43.0748C87.7092 42.9015 87.7562 42.7514 87.8514 42.6245C87.9478 42.4964 88.0814 42.3975 88.2522 42.328C88.4243 42.2572 88.6226 42.2218 88.8471 42.2218C89.1766 42.2218 89.4359 42.292 89.6251 42.4323C89.8154 42.5726 89.9332 42.7624 89.9783 43.0016Z" fill="white"/>
<path d="M91.9891 42.2584V42.7709H90.3728V42.2584H91.9891ZM90.7718 41.5848H91.4344V44.2243C91.4344 44.3134 91.4479 44.3817 91.4747 44.4293C91.5028 44.4757 91.5394 44.5074 91.5845 44.5245C91.6297 44.5416 91.6797 44.5501 91.7346 44.5501C91.7761 44.5501 91.814 44.5471 91.8481 44.541C91.8835 44.5349 91.9104 44.5294 91.9287 44.5245L92.0403 45.0425C92.0049 45.0547 91.9543 45.0682 91.8884 45.0828C91.8237 45.0974 91.7444 45.106 91.6504 45.1084C91.4845 45.1133 91.335 45.0883 91.202 45.0334C91.069 44.9772 90.9634 44.8906 90.8853 44.7735C90.8084 44.6563 90.7706 44.5099 90.7718 44.3341V41.5848Z" fill="white"/>
<path d="M93.7577 45.1249C93.4758 45.1249 93.2324 45.0663 93.0274 44.9492C92.8236 44.8308 92.6668 44.6636 92.557 44.4476C92.4471 44.2304 92.3922 43.9748 92.3922 43.6807C92.3922 43.3915 92.4471 43.1376 92.557 42.9192C92.668 42.6996 92.823 42.5287 93.0219 42.4067C93.2208 42.2834 93.4545 42.2218 93.723 42.2218C93.8962 42.2218 94.0598 42.2499 94.2135 42.306C94.3685 42.3609 94.5052 42.4463 94.6235 42.5623C94.7431 42.6782 94.8371 42.8259 94.9054 43.0052C94.9738 43.1834 95.0079 43.3957 95.0079 43.6422V43.8454H92.7034V43.3988H94.3728C94.3715 43.2719 94.3441 43.159 94.2904 43.0602C94.2367 42.9601 94.1617 42.8814 94.0652 42.824C93.9701 42.7667 93.859 42.738 93.7321 42.738C93.5967 42.738 93.4777 42.7709 93.3752 42.8368C93.2727 42.9015 93.1927 42.9869 93.1354 43.0931C93.0792 43.198 93.0506 43.3134 93.0494 43.4391V43.8289C93.0494 43.9925 93.0793 44.1328 93.139 44.2499C93.1988 44.3659 93.2824 44.455 93.3898 44.5172C93.4972 44.5782 93.6229 44.6087 93.7669 44.6087C93.8633 44.6087 93.9505 44.5953 94.0286 44.5684C94.1067 44.5404 94.1745 44.4995 94.2318 44.4458C94.2892 44.3921 94.3325 44.3256 94.3618 44.2463L94.9805 44.3158C94.9414 44.4794 94.867 44.6221 94.7572 44.7442C94.6485 44.865 94.5094 44.9589 94.3398 45.026C94.1702 45.0919 93.9762 45.1249 93.7577 45.1249Z" fill="white"/>
<path d="M95.5685 45.07V42.2584H96.2018V42.7362H96.2348C96.2934 42.5751 96.3904 42.4494 96.5258 42.3591C96.6613 42.2676 96.823 42.2218 97.0109 42.2218C97.2013 42.2218 97.3617 42.2682 97.4923 42.3609C97.6241 42.4524 97.7168 42.5775 97.7705 42.7362H97.7998C97.862 42.58 97.967 42.4555 98.1146 42.3628C98.2635 42.2688 98.4399 42.2218 98.6436 42.2218C98.9023 42.2218 99.1135 42.3036 99.277 42.4671C99.4405 42.6306 99.5223 42.8692 99.5223 43.1828V45.07H98.8578V43.2853C98.8578 43.1108 98.8114 42.9833 98.7187 42.9027C98.6259 42.821 98.5125 42.7801 98.3782 42.7801C98.2184 42.7801 98.0933 42.8301 98.003 42.9302C97.9139 43.029 97.8694 43.1578 97.8694 43.3164V45.07H97.2196V43.2578C97.2196 43.1126 97.1756 42.9967 97.0878 42.9101C97.0011 42.8234 96.8876 42.7801 96.7473 42.7801C96.6521 42.7801 96.5655 42.8045 96.4874 42.8533C96.4093 42.9009 96.347 42.9686 96.3007 43.0565C96.2543 43.1431 96.2311 43.2444 96.2311 43.3603V45.07H95.5685Z" fill="white"/>
</svg>
