<svg width="350" height="176" viewBox="0 0 350 176" fill="none" xmlns="http://www.w3.org/2000/svg">
<path d="M41.6944 0.388755C46.3716 -0.680325 50.4475 0.45558 53.9221 3.79647C56.4611 6.60283 57.7307 9.67645 57.7307 13.0173C57.7307 15.1555 57.2629 17.1601 56.3275 19.031C53.922 23.5746 49.9798 25.98 44.5007 26.2473C39.4226 26.2473 35.6139 23.9755 33.0749 19.4319C32.0058 17.4273 31.4712 15.2892 31.4712 13.0173C31.4712 11.0128 31.939 9.07509 32.8744 7.20419C34.6117 3.46239 37.5517 1.19058 41.6944 0.388755ZM39.6898 46.6936C51.7171 45.8918 57.4634 45.4908 56.9289 45.4908H57.7307V96.2056C57.7307 131.218 57.4634 149.727 56.9289 151.731C57.0625 151.33 56.9289 151.798 56.5279 153.135C55.0579 157.544 52.4521 161.487 48.7103 164.961C42.8303 170.841 35.2799 174.182 26.059 174.984C23.119 175.251 20.6467 175.251 18.6422 174.984C10.4904 173.781 4.81089 170.039 1.60363 163.759C0.534543 161.487 0 159.081 0 156.542C0 151.33 2.33863 147.789 7.01588 145.918C8.48587 145.25 10.0895 144.916 11.8268 144.916C13.6977 144.916 15.5686 145.384 17.4395 146.319C21.4485 148.19 23.4531 151.598 23.4531 156.542C23.4531 159.482 22.5845 162.021 20.8472 164.159C20.4463 164.694 20.179 165.028 20.0454 165.162L22.2504 165.563C26.9276 166.097 30.5358 165.095 33.0749 162.556C35.7476 160.017 37.6853 156.275 38.888 151.33L39.2889 148.725L39.4894 108.032C39.4894 80.6371 39.4226 66.5385 39.2889 65.7367C39.0217 63.7321 38.2867 62.1953 37.0839 61.1262C35.6139 59.7899 32.0726 59.0549 26.4599 58.9212H22.4508V53.3085C22.4508 49.5667 22.5845 47.6958 22.8517 47.6958L39.6898 46.6936Z" fill="#9F6D45"/>
<path d="M113.79 44.4886C114.325 44.2213 116.196 44.2213 119.403 44.4886C124.615 44.4886 129.225 45.1568 133.234 46.4931C139.515 48.6313 144.593 51.7717 148.469 55.9144C151.943 59.5226 154.215 63.5317 155.284 67.9417C155.552 69.0108 155.752 78.0312 155.886 95.0029C155.886 111.44 156.019 120.193 156.287 121.262C157.222 123.801 158.625 124.67 160.496 123.868C160.763 123.735 161.097 123.467 161.498 123.066C162.434 122.131 162.902 120.06 162.902 116.852C163.035 116.051 163.102 114.647 163.102 112.643V105.026H173.125V112.041C173.125 117.12 173.058 119.926 172.924 120.461C172.122 125.672 169.049 129.748 163.703 132.688C158.492 135.227 153.881 135.962 149.872 134.893C145.997 133.824 143.057 131.352 141.052 127.476C140.518 126.675 140.117 125.806 139.849 124.871L139.649 124.069L137.845 125.873C135.573 128.145 132.767 130.082 129.426 131.686C123.011 135.027 116.062 136.564 108.579 136.296C99.4913 135.895 92.275 132.822 86.9296 127.076C84.925 125.071 83.3882 122.933 82.3191 120.661C79.78 115.316 79.3791 109.97 81.1164 104.625C83.5219 97.4084 89.0009 91.7288 97.5536 87.5861C103.701 84.5125 110.784 82.3743 118.802 81.1716C123.88 80.2362 129.225 79.6348 134.838 79.3675H137.043V74.5566C136.909 71.2157 136.709 69.0108 136.442 67.9417C136.041 66.2044 135.172 64.2667 133.836 62.1285C130.628 57.4512 126.486 54.7117 121.408 53.9099C118.334 53.3754 113.924 53.509 108.178 54.3108C107.109 54.5781 106.507 54.7117 106.374 54.7117C106.106 54.7117 106.307 55.0458 106.975 55.714C109.113 58.5203 109.848 61.9281 109.18 65.9371C108.111 70.4807 105.238 73.3539 100.56 74.5566C96.2841 75.6257 92.5423 74.6235 89.335 71.5498C86.9296 69.278 85.7937 66.2044 85.9273 62.329C86.0609 60.3244 86.5955 58.3199 87.5309 56.3153C89.0009 53.509 91.6736 50.9699 95.5491 48.6981C100.226 46.4263 106.307 45.0231 113.79 44.4886ZM137.043 98.6111V88.5884H135.84C133.301 88.5884 130.495 88.9225 127.421 89.5907C122.878 90.3925 118.334 91.7288 113.79 93.5997C106.44 96.9406 102.097 101.818 100.761 108.233C100.093 112.376 100.895 116.184 103.166 119.659C107.175 125.94 113.189 128.145 121.207 126.274C121.608 126.14 122.009 126.006 122.41 125.873C128.29 124.269 132.499 120.861 135.038 115.65C135.306 114.981 135.573 114.38 135.84 113.846C136.642 110.772 137.043 105.694 137.043 98.6111Z" fill="#9F6D45"/>
<path d="M197.38 0.388755C202.057 -0.680325 206.133 0.45558 209.607 3.79647C212.146 6.60283 213.416 9.67645 213.416 13.0173C213.416 15.1555 212.948 17.1601 212.013 19.031C209.607 23.5746 205.665 25.98 200.186 26.2473C195.108 26.2473 191.299 23.9755 188.76 19.4319C187.691 17.4273 187.156 15.2892 187.156 13.0173C187.156 11.0128 187.624 9.07509 188.56 7.20419C190.297 3.46239 193.237 1.19058 197.38 0.388755ZM195.976 46.6936C207.202 45.8918 212.547 45.4908 212.013 45.4908H212.614V83.3766C212.614 108.634 212.748 121.396 213.015 121.663C213.416 122.064 213.75 122.265 214.017 122.265C214.819 122.666 217.759 122.866 222.837 122.866H226.646V134.091H225.042L213.616 133.69C206.935 133.557 200.052 133.557 192.97 133.69C184.818 133.958 180.675 134.091 180.541 134.091H178.737V122.866H182.947C189.896 122.866 193.638 122.398 194.172 121.463C194.306 121.329 194.373 112.108 194.373 93.8002C194.373 74.5566 194.105 64.2667 193.571 62.9303C193.17 61.7276 192.368 60.859 191.165 60.3244C189.295 59.389 186.154 58.9212 181.744 58.9212H179.539V47.6958H179.94L195.976 46.6936Z" fill="#9F6D45"/>
<path d="M265.197 44.4886C265.464 44.3549 267.068 44.2881 270.008 44.2881C275.353 44.4218 280.031 45.424 284.04 47.2949L286.445 48.6981L289.652 46.4931L292.659 44.2881H294.463C295.666 44.2881 296.468 44.4886 296.869 44.8895L297.47 45.4908V71.1489L296.267 72.3516H288.65L288.049 71.7503C287.648 71.3494 287.447 70.4807 287.447 69.1444C286.779 60.7253 282.436 55.5135 274.418 53.509C271.478 52.9745 267.803 52.9076 263.393 53.3085C262.992 53.4422 262.658 53.509 262.391 53.509C255.709 54.979 252.168 58.4535 251.767 63.9326C251.499 67.9417 253.37 71.1489 257.379 73.5544C259.384 74.7571 263.593 76.0266 270.008 77.363C275.621 78.4321 278.694 79.1003 279.229 79.3675C287.915 81.5057 294.397 86.2498 298.673 93.5997C298.94 94.1343 299.207 94.602 299.475 95.0029C301.346 98.8784 302.348 102.553 302.482 106.028C302.749 113.912 300.811 120.394 296.668 125.472C293.728 129.481 289.385 132.421 283.639 134.292C275.754 136.965 267.937 137.232 260.186 135.094C256.31 133.891 253.17 132.287 250.764 130.283L249.762 129.681L246.154 132.488C242.679 135.027 240.608 136.296 239.94 136.296C238.737 136.296 237.935 136.096 237.535 135.695L236.933 135.094V119.859C236.933 109.035 237.267 103.422 237.935 103.021C238.203 102.887 239.606 102.821 242.145 102.821C244.951 102.821 246.488 103.155 246.755 103.823C246.889 104.09 247.089 104.825 247.357 106.028C251.232 121.663 260.119 128.479 274.017 126.474C280.966 125.672 285.309 122.532 287.047 117.053C287.314 116.251 287.447 114.915 287.447 113.044C287.447 111.173 287.314 109.836 287.047 109.035C286.245 106.362 284.307 103.957 281.233 101.818C279.095 100.348 274.752 98.9452 268.204 97.6088C260.72 96.2725 255.375 94.7356 252.168 92.9984C249.094 91.5284 246.421 89.6575 244.149 87.3857C242.145 85.3811 240.474 83.0425 239.138 80.3698C237.802 77.5634 237.067 74.6235 236.933 71.5498C236.8 67.5408 237.668 63.3981 239.539 59.1217C240.742 56.7163 242.145 54.7117 243.749 53.1081C247.891 48.5645 254.172 45.7581 262.591 44.689C263.259 44.5554 264.128 44.4886 265.197 44.4886Z" fill="#9F6D45"/>
<path d="M333.863 108.233C336.803 107.431 339.81 107.765 342.884 109.235C345.423 110.571 347.361 112.509 348.697 115.048C350.434 118.924 350.434 122.866 348.697 126.875C347.361 129.414 345.423 131.352 342.884 132.688C338.875 134.425 334.933 134.425 331.057 132.688C328.518 131.352 326.58 129.414 325.244 126.875C323.507 122.866 323.507 118.924 325.244 115.048C326.848 111.574 329.721 109.302 333.863 108.233Z" fill="#9F6D45"/>
<path d="M70.3735 157.944C69.7499 157.944 69.1883 157.832 68.6886 157.61C68.1931 157.384 67.8002 157.051 67.5098 156.611C67.2236 156.171 67.0805 155.629 67.0805 154.984C67.0805 154.428 67.183 153.969 67.388 153.606C67.593 153.243 67.8728 152.953 68.2273 152.735C68.5818 152.517 68.9811 152.353 69.4253 152.242C69.8738 152.126 70.3372 152.043 70.8155 151.992C71.3921 151.932 71.8598 151.879 72.2186 151.832C72.5773 151.78 72.8379 151.704 73.0002 151.601C73.1667 151.494 73.25 151.33 73.25 151.108V151.069C73.25 150.587 73.1069 150.213 72.8208 149.948C72.5346 149.683 72.1225 149.551 71.5843 149.551C71.0163 149.551 70.5657 149.675 70.2325 149.923C69.9037 150.17 69.6816 150.463 69.5663 150.8L67.4008 150.493C67.5717 149.895 67.8536 149.395 68.2465 148.994C68.6394 148.588 69.1199 148.285 69.688 148.084C70.256 147.879 70.8839 147.776 71.5715 147.776C72.0456 147.776 72.5175 147.832 72.9874 147.943C73.4572 148.054 73.8864 148.238 74.2751 148.494C74.6637 148.746 74.9755 149.09 75.2104 149.525C75.4496 149.961 75.5692 150.506 75.5692 151.159V157.745H73.3397V156.393H73.2628C73.1219 156.666 72.9233 156.923 72.667 157.162C72.415 157.397 72.0968 157.587 71.7124 157.732C71.3323 157.873 70.886 157.944 70.3735 157.944ZM70.9757 156.239C71.4412 156.239 71.8449 156.148 72.1865 155.964C72.5282 155.776 72.7909 155.528 72.9745 155.221C73.1625 154.913 73.2564 154.578 73.2564 154.215V153.055C73.1838 153.115 73.06 153.171 72.8848 153.222C72.714 153.273 72.5218 153.318 72.3083 153.356C72.0947 153.395 71.8833 153.429 71.674 153.459C71.4647 153.489 71.2832 153.514 71.1295 153.536C70.7835 153.583 70.4739 153.66 70.2005 153.766C69.9272 153.873 69.7115 154.023 69.5535 154.215C69.3954 154.403 69.3164 154.646 69.3164 154.945C69.3164 155.372 69.4723 155.695 69.7841 155.913C70.0959 156.13 70.4931 156.239 70.9757 156.239Z" fill="#9F6D45"/>
<path d="M82.4787 157.745V144.624H84.7978V149.532H84.8939C85.0135 149.293 85.1822 149.038 85.4 148.769C85.6179 148.496 85.9126 148.263 86.2841 148.071C86.6557 147.875 87.1298 147.776 87.7064 147.776C88.4666 147.776 89.1521 147.971 89.7629 148.359C90.3779 148.744 90.8648 149.314 91.2236 150.07C91.5866 150.822 91.7682 151.744 91.7682 152.838C91.7682 153.918 91.5909 154.836 91.2364 155.592C90.8819 156.348 90.3993 156.925 89.7885 157.322C89.1778 157.719 88.4859 157.918 87.7128 157.918C87.149 157.918 86.6813 157.824 86.3098 157.636C85.9382 157.448 85.6392 157.222 85.4128 156.957C85.1908 156.688 85.0178 156.434 84.8939 156.195H84.7594V157.745H82.4787ZM84.753 152.825C84.753 153.461 84.8427 154.018 85.0221 154.497C85.2057 154.975 85.4684 155.349 85.8101 155.618C86.156 155.883 86.5746 156.015 87.0657 156.015C87.5783 156.015 88.0075 155.878 88.3535 155.605C88.6994 155.328 88.9599 154.95 89.1351 154.471C89.3144 153.989 89.4041 153.44 89.4041 152.825C89.4041 152.214 89.3166 151.672 89.1415 151.197C88.9664 150.723 88.7058 150.352 88.3599 150.083C88.0139 149.814 87.5825 149.679 87.0657 149.679C86.5703 149.679 86.1496 149.809 85.8036 150.07C85.4577 150.33 85.195 150.696 85.0156 151.165C84.8405 151.635 84.753 152.188 84.753 152.825Z" fill="#9F6D45"/>
<path d="M93.7398 157.745V147.904H95.9885V149.545H96.091C96.2703 148.977 96.5779 148.539 97.0135 148.231C97.4534 147.919 97.9553 147.764 98.519 147.764C98.6472 147.764 98.7903 147.77 98.9483 147.783C99.1106 147.791 99.2451 147.806 99.3519 147.828V149.961C99.2537 149.927 99.0978 149.897 98.8842 149.871C98.6749 149.841 98.4721 149.826 98.2756 149.826C97.8528 149.826 97.4726 149.918 97.1352 150.102C96.8021 150.281 96.5394 150.531 96.3472 150.851C96.155 151.172 96.0589 151.541 96.0589 151.96V157.745H93.7398Z" fill="#9F6D45"/>
<path d="M104.844 157.937C103.857 157.937 103.005 157.732 102.288 157.322C101.574 156.908 101.026 156.323 100.641 155.567C100.257 154.806 100.065 153.912 100.065 152.882C100.065 151.87 100.257 150.982 100.641 150.217C101.03 149.448 101.572 148.851 102.268 148.423C102.965 147.992 103.783 147.776 104.722 147.776C105.329 147.776 105.901 147.875 106.439 148.071C106.982 148.263 107.46 148.562 107.874 148.968C108.293 149.374 108.622 149.891 108.861 150.518C109.1 151.142 109.22 151.885 109.22 152.748V153.459H101.154V151.896H106.997C106.992 151.452 106.896 151.056 106.708 150.711C106.52 150.36 106.258 150.085 105.92 149.884C105.587 149.683 105.198 149.583 104.754 149.583C104.28 149.583 103.864 149.698 103.505 149.929C103.146 150.155 102.866 150.454 102.666 150.826C102.469 151.193 102.369 151.597 102.365 152.037V153.401C102.365 153.974 102.469 154.465 102.678 154.875C102.888 155.281 103.18 155.592 103.556 155.81C103.932 156.024 104.372 156.13 104.876 156.13C105.213 156.13 105.519 156.083 105.792 155.99C106.065 155.891 106.302 155.748 106.503 155.56C106.704 155.372 106.856 155.14 106.958 154.862L109.123 155.105C108.987 155.678 108.726 156.177 108.342 156.605C107.962 157.027 107.475 157.356 106.881 157.591C106.288 157.822 105.608 157.937 104.844 157.937Z" fill="#9F6D45"/>
<path d="M114.013 157.944C113.39 157.944 112.828 157.832 112.328 157.61C111.833 157.384 111.44 157.051 111.15 156.611C110.863 156.171 110.72 155.629 110.72 154.984C110.72 154.428 110.823 153.969 111.028 153.606C111.233 153.243 111.513 152.953 111.867 152.735C112.222 152.517 112.621 152.353 113.065 152.242C113.514 152.126 113.977 152.043 114.455 151.992C115.032 151.932 115.5 151.879 115.858 151.832C116.217 151.78 116.478 151.704 116.64 151.601C116.807 151.494 116.89 151.33 116.89 151.108V151.069C116.89 150.587 116.747 150.213 116.461 149.948C116.174 149.683 115.762 149.551 115.224 149.551C114.656 149.551 114.205 149.675 113.872 149.923C113.543 150.17 113.321 150.463 113.206 150.8L111.041 150.493C111.211 149.895 111.493 149.395 111.886 148.994C112.279 148.588 112.76 148.285 113.328 148.084C113.896 147.879 114.524 147.776 115.211 147.776C115.685 147.776 116.157 147.832 116.627 147.943C117.097 148.054 117.526 148.238 117.915 148.494C118.304 148.746 118.615 149.09 118.85 149.525C119.089 149.961 119.209 150.506 119.209 151.159V157.745H116.979V156.393H116.903C116.762 156.666 116.563 156.923 116.307 157.162C116.055 157.397 115.737 157.587 115.352 157.732C114.972 157.873 114.526 157.944 114.013 157.944ZM114.615 156.239C115.081 156.239 115.485 156.148 115.826 155.964C116.168 155.776 116.431 155.528 116.614 155.221C116.802 154.913 116.896 154.578 116.896 154.215V153.055C116.824 153.115 116.7 153.171 116.525 153.222C116.354 153.273 116.162 153.318 115.948 153.356C115.734 153.395 115.523 153.429 115.314 153.459C115.105 153.489 114.923 153.514 114.769 153.536C114.423 153.583 114.114 153.66 113.84 153.766C113.567 153.873 113.351 154.023 113.193 154.215C113.035 154.403 112.956 154.646 112.956 154.945C112.956 155.372 113.112 155.695 113.424 155.913C113.736 156.13 114.133 156.239 114.615 156.239Z" fill="#9F6D45"/>
<path d="M125.193 157.918C124.42 157.918 123.728 157.719 123.117 157.322C122.506 156.925 122.024 156.348 121.669 155.592C121.315 154.836 121.137 153.918 121.137 152.838C121.137 151.744 121.317 150.822 121.676 150.07C122.039 149.314 122.528 148.744 123.143 148.359C123.758 147.971 124.443 147.776 125.199 147.776C125.776 147.776 126.25 147.875 126.621 148.071C126.993 148.263 127.288 148.496 127.505 148.769C127.723 149.038 127.892 149.293 128.012 149.532H128.108V144.624H130.433V157.745H128.153V156.195H128.012C127.892 156.434 127.719 156.688 127.493 156.957C127.266 157.222 126.967 157.448 126.596 157.636C126.224 157.824 125.756 157.918 125.193 157.918ZM125.84 156.015C126.331 156.015 126.749 155.883 127.095 155.618C127.441 155.349 127.704 154.975 127.883 154.497C128.063 154.018 128.153 153.461 128.153 152.825C128.153 152.188 128.063 151.635 127.883 151.165C127.708 150.696 127.448 150.33 127.102 150.07C126.76 149.809 126.339 149.679 125.84 149.679C125.323 149.679 124.892 149.814 124.546 150.083C124.2 150.352 123.939 150.723 123.764 151.197C123.589 151.672 123.501 152.214 123.501 152.825C123.501 153.44 123.589 153.989 123.764 154.471C123.943 154.95 124.206 155.328 124.552 155.605C124.902 155.878 125.331 156.015 125.84 156.015Z" fill="#9F6D45"/>
<path d="M138.869 151.326V153.235H132.962V151.326H138.869Z" fill="#9F6D45"/>
<path d="M141.411 157.745V144.624H143.73V149.532H143.826C143.946 149.293 144.114 149.038 144.332 148.769C144.55 148.496 144.845 148.263 145.216 148.071C145.588 147.875 146.062 147.776 146.639 147.776C147.399 147.776 148.084 147.971 148.695 148.359C149.31 148.744 149.797 149.314 150.156 150.07C150.519 150.822 150.7 151.744 150.7 152.838C150.7 153.918 150.523 154.836 150.169 155.592C149.814 156.348 149.331 156.925 148.721 157.322C148.11 157.719 147.418 157.918 146.645 157.918C146.081 157.918 145.614 157.824 145.242 157.636C144.87 157.448 144.571 157.222 144.345 156.957C144.123 156.688 143.95 156.434 143.826 156.195H143.692V157.745H141.411ZM143.685 152.825C143.685 153.461 143.775 154.018 143.954 154.497C144.138 154.975 144.401 155.349 144.742 155.618C145.088 155.883 145.507 156.015 145.998 156.015C146.51 156.015 146.94 155.878 147.286 155.605C147.632 155.328 147.892 154.95 148.067 154.471C148.247 153.989 148.336 153.44 148.336 152.825C148.336 152.214 148.249 151.672 148.074 151.197C147.899 150.723 147.638 150.352 147.292 150.083C146.946 149.814 146.515 149.679 145.998 149.679C145.503 149.679 145.082 149.809 144.736 150.07C144.39 150.33 144.127 150.696 143.948 151.165C143.773 151.635 143.685 152.188 143.685 152.825Z" fill="#9F6D45"/>
<path d="M156.964 157.937C156.003 157.937 155.171 157.726 154.466 157.303C153.761 156.88 153.214 156.289 152.826 155.528C152.441 154.768 152.249 153.88 152.249 152.863C152.249 151.847 152.441 150.956 152.826 150.192C153.214 149.427 153.761 148.833 154.466 148.411C155.171 147.988 156.003 147.776 156.964 147.776C157.925 147.776 158.758 147.988 159.463 148.411C160.168 148.833 160.712 149.427 161.097 150.192C161.485 150.956 161.68 151.847 161.68 152.863C161.68 153.88 161.485 154.768 161.097 155.528C160.712 156.289 160.168 156.88 159.463 157.303C158.758 157.726 157.925 157.937 156.964 157.937ZM156.977 156.079C157.498 156.079 157.934 155.936 158.284 155.65C158.634 155.36 158.895 154.971 159.066 154.484C159.241 153.997 159.328 153.455 159.328 152.857C159.328 152.255 159.241 151.71 159.066 151.223C158.895 150.732 158.634 150.341 158.284 150.051C157.934 149.76 157.498 149.615 156.977 149.615C156.443 149.615 155.999 149.76 155.645 150.051C155.294 150.341 155.032 150.732 154.857 151.223C154.686 151.71 154.6 152.255 154.6 152.857C154.6 153.455 154.686 153.997 154.857 154.484C155.032 154.971 155.294 155.36 155.645 155.65C155.999 155.936 156.443 156.079 156.977 156.079Z" fill="#9F6D45"/>
<path d="M165.967 151.979V157.745H163.648V147.904H165.865V149.577H165.98C166.206 149.026 166.567 148.588 167.063 148.263C167.562 147.939 168.18 147.776 168.914 147.776C169.593 147.776 170.185 147.922 170.689 148.212C171.197 148.502 171.59 148.923 171.868 149.474C172.149 150.025 172.288 150.693 172.284 151.479V157.745H169.965V151.838C169.965 151.18 169.794 150.666 169.452 150.294C169.115 149.923 168.647 149.737 168.049 149.737C167.644 149.737 167.283 149.826 166.967 150.006C166.655 150.181 166.409 150.435 166.23 150.768C166.055 151.101 165.967 151.505 165.967 151.979Z" fill="#9F6D45"/>
<path d="M178.998 157.937C178.011 157.937 177.159 157.732 176.442 157.322C175.729 156.908 175.18 156.323 174.795 155.567C174.411 154.806 174.219 153.912 174.219 152.882C174.219 151.87 174.411 150.982 174.795 150.217C175.184 149.448 175.726 148.851 176.423 148.423C177.119 147.992 177.937 147.776 178.876 147.776C179.483 147.776 180.055 147.875 180.593 148.071C181.136 148.263 181.614 148.562 182.028 148.968C182.447 149.374 182.776 149.891 183.015 150.518C183.254 151.142 183.374 151.885 183.374 152.748V153.459H175.308V151.896H181.151C181.146 151.452 181.05 151.056 180.862 150.711C180.674 150.36 180.412 150.085 180.074 149.884C179.741 149.683 179.353 149.583 178.908 149.583C178.434 149.583 178.018 149.698 177.659 149.929C177.3 150.155 177.021 150.454 176.82 150.826C176.623 151.193 176.523 151.597 176.519 152.037V153.401C176.519 153.974 176.623 154.465 176.833 154.875C177.042 155.281 177.335 155.592 177.71 155.81C178.086 156.024 178.526 156.13 179.03 156.13C179.368 156.13 179.673 156.083 179.946 155.99C180.22 155.891 180.457 155.748 180.657 155.56C180.858 155.372 181.01 155.14 181.112 154.862L183.278 155.105C183.141 155.678 182.88 156.177 182.496 156.605C182.116 157.027 181.629 157.356 181.035 157.591C180.442 157.822 179.763 157.937 178.998 157.937Z" fill="#9F6D45"/>
<path d="M193.113 150.506L190.999 150.736C190.939 150.523 190.835 150.322 190.685 150.134C190.54 149.946 190.344 149.794 190.096 149.679C189.848 149.564 189.545 149.506 189.186 149.506C188.703 149.506 188.298 149.611 187.969 149.82C187.644 150.029 187.484 150.301 187.488 150.634C187.484 150.92 187.589 151.153 187.802 151.332C188.02 151.511 188.379 151.659 188.879 151.774L190.557 152.133C191.488 152.334 192.18 152.652 192.633 153.087C193.09 153.523 193.32 154.093 193.325 154.798C193.32 155.417 193.139 155.964 192.78 156.438C192.426 156.908 191.932 157.275 191.3 157.54C190.668 157.805 189.942 157.937 189.122 157.937C187.918 157.937 186.948 157.685 186.213 157.181C185.479 156.673 185.041 155.966 184.9 155.061L187.162 154.843C187.264 155.287 187.482 155.622 187.815 155.849C188.148 156.075 188.582 156.188 189.116 156.188C189.667 156.188 190.109 156.075 190.442 155.849C190.779 155.622 190.948 155.342 190.948 155.009C190.948 154.727 190.839 154.495 190.621 154.311C190.408 154.127 190.074 153.986 189.622 153.888L187.943 153.536C186.999 153.339 186.301 153.008 185.848 152.543C185.396 152.073 185.171 151.479 185.176 150.762C185.171 150.155 185.336 149.63 185.669 149.186C186.006 148.737 186.474 148.391 187.072 148.148C187.674 147.9 188.368 147.776 189.154 147.776C190.307 147.776 191.215 148.022 191.877 148.513C192.543 149.004 192.955 149.668 193.113 150.506Z" fill="#9F6D45"/>
<path d="M199.712 157.745V147.904H202.031V157.745H199.712ZM200.878 146.508C200.511 146.508 200.195 146.386 199.93 146.143C199.665 145.895 199.533 145.598 199.533 145.252C199.533 144.902 199.665 144.605 199.93 144.362C200.195 144.114 200.511 143.99 200.878 143.99C201.25 143.99 201.566 144.114 201.826 144.362C202.091 144.605 202.223 144.902 202.223 145.252C202.223 145.598 202.091 145.895 201.826 146.143C201.566 146.386 201.25 146.508 200.878 146.508Z" fill="#9F6D45"/>
<path d="M206.735 151.979V157.745H204.416V147.904H206.633V149.577H206.748C206.974 149.026 207.335 148.588 207.831 148.263C208.33 147.939 208.948 147.776 209.682 147.776C210.361 147.776 210.953 147.922 211.457 148.212C211.965 148.502 212.358 148.923 212.636 149.474C212.918 150.025 213.056 150.693 213.052 151.479V157.745H210.733V151.838C210.733 151.18 210.562 150.666 210.22 150.294C209.883 149.923 209.415 149.737 208.817 149.737C208.412 149.737 208.051 149.826 207.735 150.006C207.423 150.181 207.177 150.435 206.998 150.768C206.823 151.101 206.735 151.505 206.735 151.979Z" fill="#9F6D45"/>
<path d="M223.847 147.904L220.343 157.745H217.78L214.276 147.904H216.749L219.01 155.214H219.113L221.381 147.904H223.847Z" fill="#9F6D45"/>
<path d="M229.474 157.937C228.487 157.937 227.635 157.732 226.917 157.322C226.204 156.908 225.655 156.323 225.271 155.567C224.887 154.806 224.694 153.912 224.694 152.882C224.694 151.87 224.887 150.982 225.271 150.217C225.66 149.448 226.202 148.851 226.898 148.423C227.594 147.992 228.412 147.776 229.352 147.776C229.958 147.776 230.531 147.875 231.069 148.071C231.611 148.263 232.09 148.562 232.504 148.968C232.923 149.374 233.251 149.891 233.491 150.518C233.73 151.142 233.849 151.885 233.849 152.748V153.459H225.783V151.896H231.626C231.622 151.452 231.526 151.056 231.338 150.711C231.15 150.36 230.887 150.085 230.55 149.884C230.217 149.683 229.828 149.583 229.384 149.583C228.91 149.583 228.493 149.698 228.135 149.929C227.776 150.155 227.496 150.454 227.295 150.826C227.099 151.193 226.999 151.597 226.994 152.037V153.401C226.994 153.974 227.099 154.465 227.308 154.875C227.518 155.281 227.81 155.592 228.186 155.81C228.562 156.024 229.002 156.13 229.506 156.13C229.843 156.13 230.148 156.083 230.422 155.99C230.695 155.891 230.932 155.748 231.133 155.56C231.334 155.372 231.485 155.14 231.588 154.862L233.753 155.105C233.617 155.678 233.356 156.177 232.972 156.605C232.591 157.027 232.105 157.356 231.511 157.591C230.917 157.822 230.238 157.937 229.474 157.937Z" fill="#9F6D45"/>
<path d="M238.13 151.979V157.745H235.811V147.904H238.028V149.577H238.143C238.37 149.026 238.731 148.588 239.226 148.263C239.726 147.939 240.343 147.776 241.077 147.776C241.757 147.776 242.348 147.922 242.852 148.212C243.36 148.502 243.753 148.923 244.031 149.474C244.313 150.025 244.452 150.693 244.447 151.479V157.745H242.128V151.838C242.128 151.18 241.957 150.666 241.616 150.294C241.278 149.923 240.811 149.737 240.213 149.737C239.807 149.737 239.446 149.826 239.13 150.006C238.818 150.181 238.573 150.435 238.393 150.768C238.218 151.101 238.13 151.505 238.13 151.979Z" fill="#9F6D45"/>
<path d="M251.719 147.904V149.698H246.062V147.904H251.719ZM247.458 145.547H249.778V154.785C249.778 155.097 249.825 155.336 249.919 155.503C250.017 155.665 250.145 155.776 250.303 155.836C250.461 155.896 250.636 155.925 250.828 155.925C250.973 155.925 251.106 155.915 251.225 155.893C251.349 155.872 251.443 155.853 251.507 155.836L251.898 157.649C251.774 157.692 251.597 157.739 251.366 157.79C251.14 157.841 250.862 157.871 250.534 157.879C249.953 157.897 249.43 157.809 248.964 157.617C248.498 157.42 248.129 157.117 247.856 156.707C247.587 156.297 247.454 155.785 247.458 155.169V145.547Z" fill="#9F6D45"/>
<path d="M257.845 157.937C256.884 157.937 256.051 157.726 255.346 157.303C254.642 156.88 254.095 156.289 253.706 155.528C253.322 154.768 253.13 153.88 253.13 152.863C253.13 151.847 253.322 150.956 253.706 150.192C254.095 149.427 254.642 148.833 255.346 148.411C256.051 147.988 256.884 147.776 257.845 147.776C258.806 147.776 259.639 147.988 260.344 148.411C261.048 148.833 261.593 149.427 261.977 150.192C262.366 150.956 262.56 151.847 262.56 152.863C262.56 153.88 262.366 154.768 261.977 155.528C261.593 156.289 261.048 156.88 260.344 157.303C259.639 157.726 258.806 157.937 257.845 157.937ZM257.858 156.079C258.379 156.079 258.815 155.936 259.165 155.65C259.515 155.36 259.776 154.971 259.946 154.484C260.121 153.997 260.209 153.455 260.209 152.857C260.209 152.255 260.121 151.71 259.946 151.223C259.776 150.732 259.515 150.341 259.165 150.051C258.815 149.76 258.379 149.615 257.858 149.615C257.324 149.615 256.88 149.76 256.525 150.051C256.175 150.341 255.912 150.732 255.737 151.223C255.566 151.71 255.481 152.255 255.481 152.857C255.481 153.455 255.566 153.997 255.737 154.484C255.912 154.971 256.175 155.36 256.525 155.65C256.88 155.936 257.324 156.079 257.858 156.079Z" fill="#9F6D45"/>
<path d="M264.529 157.745V147.904H266.777V149.545H266.88C267.059 148.977 267.367 148.539 267.802 148.231C268.242 147.919 268.744 147.764 269.308 147.764C269.436 147.764 269.579 147.77 269.737 147.783C269.899 147.791 270.034 147.806 270.141 147.828V149.961C270.043 149.927 269.887 149.897 269.673 149.871C269.464 149.841 269.261 149.826 269.064 149.826C268.642 149.826 268.262 149.918 267.924 150.102C267.591 150.281 267.328 150.531 267.136 150.851C266.944 151.172 266.848 151.541 266.848 151.96V157.745H264.529Z" fill="#9F6D45"/>
<path d="M273.423 161.435C273.106 161.435 272.814 161.409 272.545 161.358C272.28 161.311 272.069 161.256 271.911 161.192L272.449 159.385C272.786 159.483 273.087 159.53 273.352 159.526C273.617 159.522 273.85 159.438 274.05 159.276C274.255 159.118 274.428 158.853 274.569 158.482L274.768 157.95L271.199 147.904H273.66L275.927 155.336H276.03L278.304 147.904H280.771L276.831 158.937C276.647 159.458 276.404 159.904 276.1 160.276C275.797 160.651 275.426 160.938 274.986 161.134C274.55 161.335 274.029 161.435 273.423 161.435Z" fill="#9F6D45"/>
<path d="M294.628 150.506L292.514 150.736C292.454 150.523 292.35 150.322 292.2 150.134C292.055 149.946 291.858 149.794 291.611 149.679C291.363 149.564 291.06 149.506 290.701 149.506C290.218 149.506 289.813 149.611 289.484 149.82C289.159 150.029 288.999 150.301 289.003 150.634C288.999 150.92 289.104 151.153 289.317 151.332C289.535 151.511 289.894 151.659 290.393 151.774L292.072 152.133C293.003 152.334 293.695 152.652 294.148 153.087C294.605 153.523 294.835 154.093 294.84 154.798C294.835 155.417 294.654 155.964 294.295 156.438C293.941 156.908 293.447 157.275 292.815 157.54C292.183 157.805 291.457 157.937 290.637 157.937C289.433 157.937 288.463 157.685 287.728 157.181C286.994 156.673 286.556 155.966 286.415 155.061L288.677 154.843C288.779 155.287 288.997 155.622 289.33 155.849C289.663 156.075 290.097 156.188 290.631 156.188C291.181 156.188 291.624 156.075 291.957 155.849C292.294 155.622 292.463 155.342 292.463 155.009C292.463 154.727 292.354 154.495 292.136 154.311C291.922 154.127 291.589 153.986 291.137 153.888L289.458 153.536C288.514 153.339 287.816 153.008 287.363 152.543C286.91 152.073 286.686 151.479 286.691 150.762C286.686 150.155 286.851 149.63 287.184 149.186C287.521 148.737 287.989 148.391 288.587 148.148C289.189 147.9 289.883 147.776 290.669 147.776C291.822 147.776 292.73 148.022 293.392 148.513C294.058 149.004 294.47 149.668 294.628 150.506Z" fill="#9F6D45"/>
<path d="M298.193 161.435C297.877 161.435 297.585 161.409 297.316 161.358C297.051 161.311 296.84 161.256 296.682 161.192L297.22 159.385C297.557 159.483 297.858 159.53 298.123 159.526C298.388 159.522 298.621 159.438 298.821 159.276C299.026 159.118 299.199 158.853 299.34 158.482L299.539 157.95L295.97 147.904H298.431L300.698 155.336H300.801L303.075 147.904H305.542L301.602 158.937C301.418 159.458 301.175 159.904 300.871 160.276C300.568 160.651 300.197 160.938 299.757 161.134C299.321 161.335 298.8 161.435 298.193 161.435Z" fill="#9F6D45"/>
<path d="M314.924 150.506L312.81 150.736C312.75 150.523 312.646 150.322 312.496 150.134C312.351 149.946 312.154 149.794 311.907 149.679C311.659 149.564 311.356 149.506 310.997 149.506C310.514 149.506 310.109 149.611 309.78 149.82C309.455 150.029 309.295 150.301 309.299 150.634C309.295 150.92 309.4 151.153 309.613 151.332C309.831 151.511 310.19 151.659 310.689 151.774L312.368 152.133C313.299 152.334 313.991 152.652 314.444 153.087C314.901 153.523 315.131 154.093 315.136 154.798C315.131 155.417 314.95 155.964 314.591 156.438C314.237 156.908 313.743 157.275 313.111 157.54C312.479 157.805 311.753 157.937 310.933 157.937C309.728 157.937 308.759 157.685 308.024 157.181C307.29 156.673 306.852 155.966 306.711 155.061L308.972 154.843C309.075 155.287 309.293 155.622 309.626 155.849C309.959 156.075 310.393 156.188 310.926 156.188C311.477 156.188 311.919 156.075 312.253 155.849C312.59 155.622 312.759 155.342 312.759 155.009C312.759 154.727 312.65 154.495 312.432 154.311C312.218 154.127 311.885 153.986 311.433 153.888L309.754 153.536C308.81 153.339 308.112 153.008 307.659 152.543C307.206 152.073 306.982 151.479 306.986 150.762C306.982 150.155 307.147 149.63 307.48 149.186C307.817 148.737 308.285 148.391 308.883 148.148C309.485 147.9 310.179 147.776 310.965 147.776C312.118 147.776 313.026 148.022 313.688 148.513C314.354 149.004 314.766 149.668 314.924 150.506Z" fill="#9F6D45"/>
<path d="M321.962 147.904V149.698H316.305V147.904H321.962ZM317.701 145.547H320.021V154.785C320.021 155.097 320.068 155.336 320.161 155.503C320.26 155.665 320.388 155.776 320.546 155.836C320.704 155.896 320.879 155.925 321.071 155.925C321.216 155.925 321.349 155.915 321.468 155.893C321.592 155.872 321.686 155.853 321.75 155.836L322.141 157.649C322.017 157.692 321.84 157.739 321.609 157.79C321.383 157.841 321.105 157.871 320.777 157.879C320.196 157.897 319.672 157.809 319.207 157.617C318.741 157.42 318.372 157.117 318.099 156.707C317.829 156.297 317.697 155.785 317.701 155.169V145.547Z" fill="#9F6D45"/>
<path d="M328.152 157.937C327.165 157.937 326.313 157.732 325.596 157.322C324.883 156.908 324.334 156.323 323.949 155.567C323.565 154.806 323.373 153.912 323.373 152.882C323.373 151.87 323.565 150.982 323.949 150.217C324.338 149.448 324.88 148.851 325.577 148.423C326.273 147.992 327.091 147.776 328.03 147.776C328.637 147.776 329.209 147.875 329.747 148.071C330.29 148.263 330.768 148.562 331.182 148.968C331.601 149.374 331.93 149.891 332.169 150.518C332.408 151.142 332.528 151.885 332.528 152.748V153.459H324.462V151.896H330.305C330.3 151.452 330.204 151.056 330.016 150.711C329.828 150.36 329.566 150.085 329.228 149.884C328.895 149.683 328.507 149.583 328.062 149.583C327.588 149.583 327.172 149.698 326.813 149.929C326.454 150.155 326.175 150.454 325.974 150.826C325.777 151.193 325.677 151.597 325.673 152.037V153.401C325.673 153.974 325.777 154.465 325.987 154.875C326.196 155.281 326.488 155.592 326.864 155.81C327.24 156.024 327.68 156.13 328.184 156.13C328.522 156.13 328.827 156.083 329.1 155.99C329.374 155.891 329.611 155.748 329.811 155.56C330.012 155.372 330.164 155.14 330.266 154.862L332.432 155.105C332.295 155.678 332.034 156.177 331.65 156.605C331.27 157.027 330.783 157.356 330.189 157.591C329.596 157.822 328.917 157.937 328.152 157.937Z" fill="#9F6D45"/>
<path d="M334.49 157.745V147.904H336.706V149.577H336.822C337.027 149.013 337.366 148.573 337.84 148.257C338.314 147.937 338.88 147.776 339.538 147.776C340.204 147.776 340.766 147.939 341.223 148.263C341.684 148.584 342.009 149.021 342.197 149.577H342.299C342.517 149.03 342.884 148.594 343.401 148.27C343.922 147.941 344.539 147.776 345.253 147.776C346.158 147.776 346.897 148.063 347.469 148.635C348.042 149.207 348.328 150.042 348.328 151.14V157.745H346.002V151.499C346.002 150.888 345.84 150.441 345.515 150.16C345.191 149.873 344.794 149.73 344.324 149.73C343.764 149.73 343.326 149.905 343.01 150.256C342.699 150.602 342.543 151.052 342.543 151.607V157.745H340.268V151.402C340.268 150.894 340.115 150.488 339.807 150.185C339.504 149.882 339.107 149.73 338.616 149.73C338.282 149.73 337.979 149.816 337.706 149.987C337.432 150.153 337.215 150.39 337.052 150.698C336.89 151.001 336.809 151.355 336.809 151.761V157.745H334.49Z" fill="#9F6D45"/>
<path d="M41.6944 0.388755C46.3716 -0.680325 50.4475 0.45558 53.9221 3.79647C56.4611 6.60283 57.7307 9.67645 57.7307 13.0173C57.7307 15.1555 57.2629 17.1601 56.3275 19.031C53.922 23.5746 49.9798 25.98 44.5007 26.2473C39.4226 26.2473 35.6139 23.9755 33.0749 19.4319C32.0058 17.4273 31.4712 15.2892 31.4712 13.0173C31.4712 11.0128 31.939 9.07509 32.8744 7.20419C34.6117 3.46239 37.5517 1.19058 41.6944 0.388755ZM39.6898 46.6936C51.7171 45.8918 57.4634 45.4908 56.9289 45.4908H57.7307V96.2056C57.7307 131.218 57.4634 149.727 56.9289 151.731C57.0625 151.33 56.9289 151.798 56.5279 153.135C55.0579 157.544 52.4521 161.487 48.7103 164.961C42.8303 170.841 35.2799 174.182 26.059 174.984C23.119 175.251 20.6467 175.251 18.6422 174.984C10.4904 173.781 4.81089 170.039 1.60363 163.759C0.534543 161.487 0 159.081 0 156.542C0 151.33 2.33863 147.789 7.01588 145.918C8.48587 145.25 10.0895 144.916 11.8268 144.916C13.6977 144.916 15.5686 145.384 17.4395 146.319C21.4485 148.19 23.4531 151.598 23.4531 156.542C23.4531 159.482 22.5845 162.021 20.8472 164.159C20.4463 164.694 20.179 165.028 20.0454 165.162L22.2504 165.563C26.9276 166.097 30.5358 165.095 33.0749 162.556C35.7476 160.017 37.6853 156.275 38.888 151.33L39.2889 148.725L39.4894 108.032C39.4894 80.6371 39.4226 66.5385 39.2889 65.7367C39.0217 63.7321 38.2867 62.1953 37.0839 61.1262C35.6139 59.7899 32.0726 59.0549 26.4599 58.9212H22.4508V53.3085C22.4508 49.5667 22.5845 47.6958 22.8517 47.6958L39.6898 46.6936Z" stroke="white"/>
<path d="M113.79 44.4886C114.325 44.2213 116.196 44.2213 119.403 44.4886C124.615 44.4886 129.225 45.1568 133.234 46.4931C139.515 48.6313 144.593 51.7717 148.469 55.9144C151.943 59.5226 154.215 63.5317 155.284 67.9417C155.552 69.0108 155.752 78.0312 155.886 95.0029C155.886 111.44 156.019 120.193 156.287 121.262C157.222 123.801 158.625 124.67 160.496 123.868C160.763 123.735 161.097 123.467 161.498 123.066C162.434 122.131 162.902 120.06 162.902 116.852C163.035 116.051 163.102 114.647 163.102 112.643V105.026H173.125V112.041C173.125 117.12 173.058 119.926 172.924 120.461C172.122 125.672 169.049 129.748 163.703 132.688C158.492 135.227 153.881 135.962 149.872 134.893C145.997 133.824 143.057 131.352 141.052 127.476C140.518 126.675 140.117 125.806 139.849 124.871L139.649 124.069L137.845 125.873C135.573 128.145 132.767 130.082 129.426 131.686C123.011 135.027 116.062 136.564 108.579 136.296C99.4913 135.895 92.275 132.822 86.9296 127.076C84.925 125.071 83.3882 122.933 82.3191 120.661C79.78 115.316 79.3791 109.97 81.1164 104.625C83.5219 97.4084 89.0009 91.7288 97.5536 87.5861C103.701 84.5125 110.784 82.3743 118.802 81.1716C123.88 80.2362 129.225 79.6348 134.838 79.3675H137.043V74.5566C136.909 71.2157 136.709 69.0108 136.442 67.9417C136.041 66.2044 135.172 64.2667 133.836 62.1285C130.628 57.4512 126.486 54.7117 121.408 53.9099C118.334 53.3754 113.924 53.509 108.178 54.3108C107.109 54.5781 106.507 54.7117 106.374 54.7117C106.106 54.7117 106.307 55.0458 106.975 55.714C109.113 58.5203 109.848 61.9281 109.18 65.9371C108.111 70.4807 105.238 73.3539 100.56 74.5566C96.2841 75.6257 92.5423 74.6235 89.335 71.5498C86.9296 69.278 85.7937 66.2044 85.9273 62.329C86.0609 60.3244 86.5955 58.3199 87.5309 56.3153C89.0009 53.509 91.6736 50.9699 95.5491 48.6981C100.226 46.4263 106.307 45.0231 113.79 44.4886ZM137.043 98.6111V88.5884H135.84C133.301 88.5884 130.495 88.9225 127.421 89.5907C122.878 90.3925 118.334 91.7288 113.79 93.5997C106.44 96.9406 102.097 101.818 100.761 108.233C100.093 112.376 100.895 116.184 103.166 119.659C107.175 125.94 113.189 128.145 121.207 126.274C121.608 126.14 122.009 126.006 122.41 125.873C128.29 124.269 132.499 120.861 135.038 115.65C135.306 114.981 135.573 114.38 135.84 113.846C136.642 110.772 137.043 105.694 137.043 98.6111Z" stroke="white"/>
<path d="M197.38 0.388755C202.057 -0.680325 206.133 0.45558 209.607 3.79647C212.146 6.60283 213.416 9.67645 213.416 13.0173C213.416 15.1555 212.948 17.1601 212.013 19.031C209.607 23.5746 205.665 25.98 200.186 26.2473C195.108 26.2473 191.299 23.9755 188.76 19.4319C187.691 17.4273 187.156 15.2892 187.156 13.0173C187.156 11.0128 187.624 9.07509 188.56 7.20419C190.297 3.46239 193.237 1.19058 197.38 0.388755ZM195.976 46.6936C207.202 45.8918 212.547 45.4908 212.013 45.4908H212.614V83.3766C212.614 108.634 212.748 121.396 213.015 121.663C213.416 122.064 213.75 122.265 214.017 122.265C214.819 122.666 217.759 122.866 222.837 122.866H226.646V134.091H225.042L213.616 133.69C206.935 133.557 200.052 133.557 192.97 133.69C184.818 133.958 180.675 134.091 180.541 134.091H178.737V122.866H182.947C189.896 122.866 193.638 122.398 194.172 121.463C194.306 121.329 194.373 112.108 194.373 93.8002C194.373 74.5566 194.105 64.2667 193.571 62.9303C193.17 61.7276 192.368 60.859 191.165 60.3244C189.295 59.389 186.154 58.9212 181.744 58.9212H179.539V47.6958H179.94L195.976 46.6936Z" stroke="white"/>
<path d="M265.197 44.4886C265.464 44.3549 267.068 44.2881 270.008 44.2881C275.353 44.4218 280.031 45.424 284.04 47.2949L286.445 48.6981L289.652 46.4931L292.659 44.2881H294.463C295.666 44.2881 296.468 44.4886 296.869 44.8895L297.47 45.4908V71.1489L296.267 72.3516H288.65L288.049 71.7503C287.648 71.3494 287.447 70.4807 287.447 69.1444C286.779 60.7253 282.436 55.5135 274.418 53.509C271.478 52.9745 267.803 52.9076 263.393 53.3085C262.992 53.4422 262.658 53.509 262.391 53.509C255.709 54.979 252.168 58.4535 251.767 63.9326C251.499 67.9417 253.37 71.1489 257.379 73.5544C259.384 74.7571 263.593 76.0266 270.008 77.363C275.621 78.4321 278.694 79.1003 279.229 79.3675C287.915 81.5057 294.397 86.2498 298.673 93.5997C298.94 94.1343 299.207 94.602 299.475 95.0029C301.346 98.8784 302.348 102.553 302.482 106.028C302.749 113.912 300.811 120.394 296.668 125.472C293.728 129.481 289.385 132.421 283.639 134.292C275.754 136.965 267.937 137.232 260.186 135.094C256.31 133.891 253.17 132.287 250.764 130.283L249.762 129.681L246.154 132.488C242.679 135.027 240.608 136.296 239.94 136.296C238.737 136.296 237.935 136.096 237.535 135.695L236.933 135.094V119.859C236.933 109.035 237.267 103.422 237.935 103.021C238.203 102.887 239.606 102.821 242.145 102.821C244.951 102.821 246.488 103.155 246.755 103.823C246.889 104.09 247.089 104.825 247.357 106.028C251.232 121.663 260.119 128.479 274.017 126.474C280.966 125.672 285.309 122.532 287.047 117.053C287.314 116.251 287.447 114.915 287.447 113.044C287.447 111.173 287.314 109.836 287.047 109.035C286.245 106.362 284.307 103.957 281.233 101.818C279.095 100.348 274.752 98.9452 268.204 97.6088C260.72 96.2725 255.375 94.7356 252.168 92.9984C249.094 91.5284 246.421 89.6575 244.149 87.3857C242.145 85.3811 240.474 83.0425 239.138 80.3698C237.802 77.5634 237.067 74.6235 236.933 71.5498C236.8 67.5408 237.668 63.3981 239.539 59.1217C240.742 56.7163 242.145 54.7117 243.749 53.1081C247.891 48.5645 254.172 45.7581 262.591 44.689C263.259 44.5554 264.128 44.4886 265.197 44.4886Z" stroke="white"/>
<path d="M333.863 108.233C336.803 107.431 339.81 107.765 342.884 109.235C345.423 110.571 347.361 112.509 348.697 115.048C350.434 118.924 350.434 122.866 348.697 126.875C347.361 129.414 345.423 131.352 342.884 132.688C338.875 134.425 334.933 134.425 331.057 132.688C328.518 131.352 326.58 129.414 325.244 126.875C323.507 122.866 323.507 118.924 325.244 115.048C326.848 111.574 329.721 109.302 333.863 108.233Z" stroke="white"/>
<path d="M70.3735 157.944C69.7499 157.944 69.1883 157.832 68.6886 157.61C68.1931 157.384 67.8002 157.051 67.5098 156.611C67.2236 156.171 67.0805 155.629 67.0805 154.984C67.0805 154.428 67.183 153.969 67.388 153.606C67.593 153.243 67.8728 152.953 68.2273 152.735C68.5818 152.517 68.9811 152.353 69.4253 152.242C69.8738 152.126 70.3372 152.043 70.8155 151.992C71.3921 151.932 71.8598 151.879 72.2186 151.832C72.5773 151.78 72.8379 151.704 73.0002 151.601C73.1667 151.494 73.25 151.33 73.25 151.108V151.069C73.25 150.587 73.1069 150.213 72.8208 149.948C72.5346 149.683 72.1225 149.551 71.5843 149.551C71.0163 149.551 70.5657 149.675 70.2325 149.923C69.9037 150.17 69.6816 150.463 69.5663 150.8L67.4008 150.493C67.5717 149.895 67.8536 149.395 68.2465 148.994C68.6394 148.588 69.1199 148.285 69.688 148.084C70.256 147.879 70.8839 147.776 71.5715 147.776C72.0456 147.776 72.5175 147.832 72.9874 147.943C73.4572 148.054 73.8864 148.238 74.2751 148.494C74.6637 148.746 74.9755 149.09 75.2104 149.525C75.4496 149.961 75.5692 150.506 75.5692 151.159V157.745H73.3397V156.393H73.2628C73.1219 156.666 72.9233 156.923 72.667 157.162C72.415 157.397 72.0968 157.587 71.7124 157.732C71.3323 157.873 70.886 157.944 70.3735 157.944ZM70.9757 156.239C71.4412 156.239 71.8449 156.148 72.1865 155.964C72.5282 155.776 72.7909 155.528 72.9745 155.221C73.1625 154.913 73.2564 154.578 73.2564 154.215V153.055C73.1838 153.115 73.06 153.171 72.8848 153.222C72.714 153.273 72.5218 153.318 72.3083 153.356C72.0947 153.395 71.8833 153.429 71.674 153.459C71.4647 153.489 71.2832 153.514 71.1295 153.536C70.7835 153.583 70.4739 153.66 70.2005 153.766C69.9272 153.873 69.7115 154.023 69.5535 154.215C69.3954 154.403 69.3164 154.646 69.3164 154.945C69.3164 155.372 69.4723 155.695 69.7841 155.913C70.0959 156.13 70.4931 156.239 70.9757 156.239Z" stroke="white"/>
<path d="M82.4787 157.745V144.624H84.7978V149.532H84.8939C85.0135 149.293 85.1822 149.038 85.4 148.769C85.6179 148.496 85.9126 148.263 86.2841 148.071C86.6557 147.875 87.1298 147.776 87.7064 147.776C88.4666 147.776 89.1521 147.971 89.7629 148.359C90.3779 148.744 90.8648 149.314 91.2236 150.07C91.5866 150.822 91.7682 151.744 91.7682 152.838C91.7682 153.918 91.5909 154.836 91.2364 155.592C90.8819 156.348 90.3993 156.925 89.7885 157.322C89.1778 157.719 88.4859 157.918 87.7128 157.918C87.149 157.918 86.6813 157.824 86.3098 157.636C85.9382 157.448 85.6392 157.222 85.4128 156.957C85.1908 156.688 85.0178 156.434 84.8939 156.195H84.7594V157.745H82.4787ZM84.753 152.825C84.753 153.461 84.8427 154.018 85.0221 154.497C85.2057 154.975 85.4684 155.349 85.8101 155.618C86.156 155.883 86.5746 156.015 87.0657 156.015C87.5783 156.015 88.0075 155.878 88.3535 155.605C88.6994 155.328 88.9599 154.95 89.1351 154.471C89.3144 153.989 89.4041 153.44 89.4041 152.825C89.4041 152.214 89.3166 151.672 89.1415 151.197C88.9664 150.723 88.7058 150.352 88.3599 150.083C88.0139 149.814 87.5825 149.679 87.0657 149.679C86.5703 149.679 86.1496 149.809 85.8036 150.07C85.4577 150.33 85.195 150.696 85.0156 151.165C84.8405 151.635 84.753 152.188 84.753 152.825Z" stroke="white"/>
<path d="M93.7398 157.745V147.904H95.9885V149.545H96.091C96.2703 148.977 96.5779 148.539 97.0135 148.231C97.4534 147.919 97.9553 147.764 98.519 147.764C98.6472 147.764 98.7903 147.77 98.9483 147.783C99.1106 147.791 99.2451 147.806 99.3519 147.828V149.961C99.2537 149.927 99.0978 149.897 98.8842 149.871C98.6749 149.841 98.4721 149.826 98.2756 149.826C97.8528 149.826 97.4726 149.918 97.1352 150.102C96.8021 150.281 96.5394 150.531 96.3472 150.851C96.155 151.172 96.0589 151.541 96.0589 151.96V157.745H93.7398Z" stroke="white"/>
<path d="M104.844 157.937C103.857 157.937 103.005 157.732 102.288 157.322C101.574 156.908 101.026 156.323 100.641 155.567C100.257 154.806 100.065 153.912 100.065 152.882C100.065 151.87 100.257 150.982 100.641 150.217C101.03 149.448 101.572 148.851 102.268 148.423C102.965 147.992 103.783 147.776 104.722 147.776C105.329 147.776 105.901 147.875 106.439 148.071C106.982 148.263 107.46 148.562 107.874 148.968C108.293 149.374 108.622 149.891 108.861 150.518C109.1 151.142 109.22 151.885 109.22 152.748V153.459H101.154V151.896H106.997C106.992 151.452 106.896 151.056 106.708 150.711C106.52 150.36 106.258 150.085 105.92 149.884C105.587 149.683 105.198 149.583 104.754 149.583C104.28 149.583 103.864 149.698 103.505 149.929C103.146 150.155 102.866 150.454 102.666 150.826C102.469 151.193 102.369 151.597 102.365 152.037V153.401C102.365 153.974 102.469 154.465 102.678 154.875C102.888 155.281 103.18 155.592 103.556 155.81C103.932 156.024 104.372 156.13 104.876 156.13C105.213 156.13 105.519 156.083 105.792 155.99C106.065 155.891 106.302 155.748 106.503 155.56C106.704 155.372 106.856 155.14 106.958 154.862L109.123 155.105C108.987 155.678 108.726 156.177 108.342 156.605C107.962 157.027 107.475 157.356 106.881 157.591C106.288 157.822 105.608 157.937 104.844 157.937Z" stroke="white"/>
<path d="M114.013 157.944C113.39 157.944 112.828 157.832 112.328 157.61C111.833 157.384 111.44 157.051 111.15 156.611C110.863 156.171 110.72 155.629 110.72 154.984C110.72 154.428 110.823 153.969 111.028 153.606C111.233 153.243 111.513 152.953 111.867 152.735C112.222 152.517 112.621 152.353 113.065 152.242C113.514 152.126 113.977 152.043 114.455 151.992C115.032 151.932 115.5 151.879 115.858 151.832C116.217 151.78 116.478 151.704 116.64 151.601C116.807 151.494 116.89 151.33 116.89 151.108V151.069C116.89 150.587 116.747 150.213 116.461 149.948C116.174 149.683 115.762 149.551 115.224 149.551C114.656 149.551 114.205 149.675 113.872 149.923C113.543 150.17 113.321 150.463 113.206 150.8L111.041 150.493C111.211 149.895 111.493 149.395 111.886 148.994C112.279 148.588 112.76 148.285 113.328 148.084C113.896 147.879 114.524 147.776 115.211 147.776C115.685 147.776 116.157 147.832 116.627 147.943C117.097 148.054 117.526 148.238 117.915 148.494C118.304 148.746 118.615 149.09 118.85 149.525C119.089 149.961 119.209 150.506 119.209 151.159V157.745H116.979V156.393H116.903C116.762 156.666 116.563 156.923 116.307 157.162C116.055 157.397 115.737 157.587 115.352 157.732C114.972 157.873 114.526 157.944 114.013 157.944ZM114.615 156.239C115.081 156.239 115.485 156.148 115.826 155.964C116.168 155.776 116.431 155.528 116.614 155.221C116.802 154.913 116.896 154.578 116.896 154.215V153.055C116.824 153.115 116.7 153.171 116.525 153.222C116.354 153.273 116.162 153.318 115.948 153.356C115.734 153.395 115.523 153.429 115.314 153.459C115.105 153.489 114.923 153.514 114.769 153.536C114.423 153.583 114.114 153.66 113.84 153.766C113.567 153.873 113.351 154.023 113.193 154.215C113.035 154.403 112.956 154.646 112.956 154.945C112.956 155.372 113.112 155.695 113.424 155.913C113.736 156.13 114.133 156.239 114.615 156.239Z" stroke="white"/>
<path d="M125.193 157.918C124.42 157.918 123.728 157.719 123.117 157.322C122.506 156.925 122.024 156.348 121.669 155.592C121.315 154.836 121.137 153.918 121.137 152.838C121.137 151.744 121.317 150.822 121.676 150.07C122.039 149.314 122.528 148.744 123.143 148.359C123.758 147.971 124.443 147.776 125.199 147.776C125.776 147.776 126.25 147.875 126.621 148.071C126.993 148.263 127.288 148.496 127.505 148.769C127.723 149.038 127.892 149.293 128.012 149.532H128.108V144.624H130.433V157.745H128.153V156.195H128.012C127.892 156.434 127.719 156.688 127.493 156.957C127.266 157.222 126.967 157.448 126.596 157.636C126.224 157.824 125.756 157.918 125.193 157.918ZM125.84 156.015C126.331 156.015 126.749 155.883 127.095 155.618C127.441 155.349 127.704 154.975 127.883 154.497C128.063 154.018 128.153 153.461 128.153 152.825C128.153 152.188 128.063 151.635 127.883 151.165C127.708 150.696 127.448 150.33 127.102 150.07C126.76 149.809 126.339 149.679 125.84 149.679C125.323 149.679 124.892 149.814 124.546 150.083C124.2 150.352 123.939 150.723 123.764 151.197C123.589 151.672 123.501 152.214 123.501 152.825C123.501 153.44 123.589 153.989 123.764 154.471C123.943 154.95 124.206 155.328 124.552 155.605C124.902 155.878 125.331 156.015 125.84 156.015Z" stroke="white"/>
<path d="M138.869 151.326V153.235H132.962V151.326H138.869Z" stroke="white"/>
<path d="M141.411 157.745V144.624H143.73V149.532H143.826C143.946 149.293 144.114 149.038 144.332 148.769C144.55 148.496 144.845 148.263 145.216 148.071C145.588 147.875 146.062 147.776 146.639 147.776C147.399 147.776 148.084 147.971 148.695 148.359C149.31 148.744 149.797 149.314 150.156 150.07C150.519 150.822 150.7 151.744 150.7 152.838C150.7 153.918 150.523 154.836 150.169 155.592C149.814 156.348 149.331 156.925 148.721 157.322C148.11 157.719 147.418 157.918 146.645 157.918C146.081 157.918 145.614 157.824 145.242 157.636C144.87 157.448 144.571 157.222 144.345 156.957C144.123 156.688 143.95 156.434 143.826 156.195H143.692V157.745H141.411ZM143.685 152.825C143.685 153.461 143.775 154.018 143.954 154.497C144.138 154.975 144.401 155.349 144.742 155.618C145.088 155.883 145.507 156.015 145.998 156.015C146.51 156.015 146.94 155.878 147.286 155.605C147.632 155.328 147.892 154.95 148.067 154.471C148.247 153.989 148.336 153.44 148.336 152.825C148.336 152.214 148.249 151.672 148.074 151.197C147.899 150.723 147.638 150.352 147.292 150.083C146.946 149.814 146.515 149.679 145.998 149.679C145.503 149.679 145.082 149.809 144.736 150.07C144.39 150.33 144.127 150.696 143.948 151.165C143.773 151.635 143.685 152.188 143.685 152.825Z" stroke="white"/>
<path d="M156.964 157.937C156.003 157.937 155.171 157.726 154.466 157.303C153.761 156.88 153.214 156.289 152.826 155.528C152.441 154.768 152.249 153.88 152.249 152.863C152.249 151.847 152.441 150.956 152.826 150.192C153.214 149.427 153.761 148.833 154.466 148.411C155.171 147.988 156.003 147.776 156.964 147.776C157.925 147.776 158.758 147.988 159.463 148.411C160.168 148.833 160.712 149.427 161.097 150.192C161.485 150.956 161.68 151.847 161.68 152.863C161.68 153.88 161.485 154.768 161.097 155.528C160.712 156.289 160.168 156.88 159.463 157.303C158.758 157.726 157.925 157.937 156.964 157.937ZM156.977 156.079C157.498 156.079 157.934 155.936 158.284 155.65C158.634 155.36 158.895 154.971 159.066 154.484C159.241 153.997 159.328 153.455 159.328 152.857C159.328 152.255 159.241 151.71 159.066 151.223C158.895 150.732 158.634 150.341 158.284 150.051C157.934 149.76 157.498 149.615 156.977 149.615C156.443 149.615 155.999 149.76 155.645 150.051C155.294 150.341 155.032 150.732 154.857 151.223C154.686 151.71 154.6 152.255 154.6 152.857C154.6 153.455 154.686 153.997 154.857 154.484C155.032 154.971 155.294 155.36 155.645 155.65C155.999 155.936 156.443 156.079 156.977 156.079Z" stroke="white"/>
<path d="M165.967 151.979V157.745H163.648V147.904H165.865V149.577H165.98C166.206 149.026 166.567 148.588 167.063 148.263C167.562 147.939 168.18 147.776 168.914 147.776C169.593 147.776 170.185 147.922 170.689 148.212C171.197 148.502 171.59 148.923 171.868 149.474C172.149 150.025 172.288 150.693 172.284 151.479V157.745H169.965V151.838C169.965 151.18 169.794 150.666 169.452 150.294C169.115 149.923 168.647 149.737 168.049 149.737C167.644 149.737 167.283 149.826 166.967 150.006C166.655 150.181 166.409 150.435 166.23 150.768C166.055 151.101 165.967 151.505 165.967 151.979Z" stroke="white"/>
<path d="M178.998 157.937C178.011 157.937 177.159 157.732 176.442 157.322C175.729 156.908 175.18 156.323 174.795 155.567C174.411 154.806 174.219 153.912 174.219 152.882C174.219 151.87 174.411 150.982 174.795 150.217C175.184 149.448 175.726 148.851 176.423 148.423C177.119 147.992 177.937 147.776 178.876 147.776C179.483 147.776 180.055 147.875 180.593 148.071C181.136 148.263 181.614 148.562 182.028 148.968C182.447 149.374 182.776 149.891 183.015 150.518C183.254 151.142 183.374 151.885 183.374 152.748V153.459H175.308V151.896H181.151C181.146 151.452 181.05 151.056 180.862 150.711C180.674 150.36 180.412 150.085 180.074 149.884C179.741 149.683 179.353 149.583 178.908 149.583C178.434 149.583 178.018 149.698 177.659 149.929C177.3 150.155 177.021 150.454 176.82 150.826C176.623 151.193 176.523 151.597 176.519 152.037V153.401C176.519 153.974 176.623 154.465 176.833 154.875C177.042 155.281 177.335 155.592 177.71 155.81C178.086 156.024 178.526 156.13 179.03 156.13C179.368 156.13 179.673 156.083 179.946 155.99C180.22 155.891 180.457 155.748 180.657 155.56C180.858 155.372 181.01 155.14 181.112 154.862L183.278 155.105C183.141 155.678 182.88 156.177 182.496 156.605C182.116 157.027 181.629 157.356 181.035 157.591C180.442 157.822 179.763 157.937 178.998 157.937Z" stroke="white"/>
<path d="M193.113 150.506L190.999 150.736C190.939 150.523 190.835 150.322 190.685 150.134C190.54 149.946 190.344 149.794 190.096 149.679C189.848 149.564 189.545 149.506 189.186 149.506C188.703 149.506 188.298 149.611 187.969 149.82C187.644 150.029 187.484 150.301 187.488 150.634C187.484 150.92 187.589 151.153 187.802 151.332C188.02 151.511 188.379 151.659 188.879 151.774L190.557 152.133C191.488 152.334 192.18 152.652 192.633 153.087C193.09 153.523 193.32 154.093 193.325 154.798C193.32 155.417 193.139 155.964 192.78 156.438C192.426 156.908 191.932 157.275 191.3 157.54C190.668 157.805 189.942 157.937 189.122 157.937C187.918 157.937 186.948 157.685 186.213 157.181C185.479 156.673 185.041 155.966 184.9 155.061L187.162 154.843C187.264 155.287 187.482 155.622 187.815 155.849C188.148 156.075 188.582 156.188 189.116 156.188C189.667 156.188 190.109 156.075 190.442 155.849C190.779 155.622 190.948 155.342 190.948 155.009C190.948 154.727 190.839 154.495 190.621 154.311C190.408 154.127 190.074 153.986 189.622 153.888L187.943 153.536C186.999 153.339 186.301 153.008 185.848 152.543C185.396 152.073 185.171 151.479 185.176 150.762C185.171 150.155 185.336 149.63 185.669 149.186C186.006 148.737 186.474 148.391 187.072 148.148C187.674 147.9 188.368 147.776 189.154 147.776C190.307 147.776 191.215 148.022 191.877 148.513C192.543 149.004 192.955 149.668 193.113 150.506Z" stroke="white"/>
<path d="M199.712 157.745V147.904H202.031V157.745H199.712ZM200.878 146.508C200.511 146.508 200.195 146.386 199.93 146.143C199.665 145.895 199.533 145.598 199.533 145.252C199.533 144.902 199.665 144.605 199.93 144.362C200.195 144.114 200.511 143.99 200.878 143.99C201.25 143.99 201.566 144.114 201.826 144.362C202.091 144.605 202.223 144.902 202.223 145.252C202.223 145.598 202.091 145.895 201.826 146.143C201.566 146.386 201.25 146.508 200.878 146.508Z" stroke="white"/>
<path d="M206.735 151.979V157.745H204.416V147.904H206.633V149.577H206.748C206.974 149.026 207.335 148.588 207.831 148.263C208.33 147.939 208.948 147.776 209.682 147.776C210.361 147.776 210.953 147.922 211.457 148.212C211.965 148.502 212.358 148.923 212.636 149.474C212.918 150.025 213.056 150.693 213.052 151.479V157.745H210.733V151.838C210.733 151.18 210.562 150.666 210.22 150.294C209.883 149.923 209.415 149.737 208.817 149.737C208.412 149.737 208.051 149.826 207.735 150.006C207.423 150.181 207.177 150.435 206.998 150.768C206.823 151.101 206.735 151.505 206.735 151.979Z" stroke="white"/>
<path d="M223.847 147.904L220.343 157.745H217.78L214.276 147.904H216.749L219.01 155.214H219.113L221.381 147.904H223.847Z" stroke="white"/>
<path d="M229.474 157.937C228.487 157.937 227.635 157.732 226.917 157.322C226.204 156.908 225.655 156.323 225.271 155.567C224.887 154.806 224.694 153.912 224.694 152.882C224.694 151.87 224.887 150.982 225.271 150.217C225.66 149.448 226.202 148.851 226.898 148.423C227.594 147.992 228.412 147.776 229.352 147.776C229.958 147.776 230.531 147.875 231.069 148.071C231.611 148.263 232.09 148.562 232.504 148.968C232.923 149.374 233.251 149.891 233.491 150.518C233.73 151.142 233.849 151.885 233.849 152.748V153.459H225.783V151.896H231.626C231.622 151.452 231.526 151.056 231.338 150.711C231.15 150.36 230.887 150.085 230.55 149.884C230.217 149.683 229.828 149.583 229.384 149.583C228.91 149.583 228.493 149.698 228.135 149.929C227.776 150.155 227.496 150.454 227.295 150.826C227.099 151.193 226.999 151.597 226.994 152.037V153.401C226.994 153.974 227.099 154.465 227.308 154.875C227.518 155.281 227.81 155.592 228.186 155.81C228.562 156.024 229.002 156.13 229.506 156.13C229.843 156.13 230.148 156.083 230.422 155.99C230.695 155.891 230.932 155.748 231.133 155.56C231.334 155.372 231.485 155.14 231.588 154.862L233.753 155.105C233.617 155.678 233.356 156.177 232.972 156.605C232.591 157.027 232.105 157.356 231.511 157.591C230.917 157.822 230.238 157.937 229.474 157.937Z" stroke="white"/>
<path d="M238.13 151.979V157.745H235.811V147.904H238.028V149.577H238.143C238.37 149.026 238.731 148.588 239.226 148.263C239.726 147.939 240.343 147.776 241.077 147.776C241.757 147.776 242.348 147.922 242.852 148.212C243.36 148.502 243.753 148.923 244.031 149.474C244.313 150.025 244.452 150.693 244.447 151.479V157.745H242.128V151.838C242.128 151.18 241.957 150.666 241.616 150.294C241.278 149.923 240.811 149.737 240.213 149.737C239.807 149.737 239.446 149.826 239.13 150.006C238.818 150.181 238.573 150.435 238.393 150.768C238.218 151.101 238.13 151.505 238.13 151.979Z" stroke="white"/>
<path d="M251.719 147.904V149.698H246.062V147.904H251.719ZM247.458 145.547H249.778V154.785C249.778 155.097 249.825 155.336 249.919 155.503C250.017 155.665 250.145 155.776 250.303 155.836C250.461 155.896 250.636 155.925 250.828 155.925C250.973 155.925 251.106 155.915 251.225 155.893C251.349 155.872 251.443 155.853 251.507 155.836L251.898 157.649C251.774 157.692 251.597 157.739 251.366 157.79C251.14 157.841 250.862 157.871 250.534 157.879C249.953 157.897 249.43 157.809 248.964 157.617C248.498 157.42 248.129 157.117 247.856 156.707C247.587 156.297 247.454 155.785 247.458 155.169V145.547Z" stroke="white"/>
<path d="M257.845 157.937C256.884 157.937 256.051 157.726 255.346 157.303C254.642 156.88 254.095 156.289 253.706 155.528C253.322 154.768 253.13 153.88 253.13 152.863C253.13 151.847 253.322 150.956 253.706 150.192C254.095 149.427 254.642 148.833 255.346 148.411C256.051 147.988 256.884 147.776 257.845 147.776C258.806 147.776 259.639 147.988 260.344 148.411C261.048 148.833 261.593 149.427 261.977 150.192C262.366 150.956 262.56 151.847 262.56 152.863C262.56 153.88 262.366 154.768 261.977 155.528C261.593 156.289 261.048 156.88 260.344 157.303C259.639 157.726 258.806 157.937 257.845 157.937ZM257.858 156.079C258.379 156.079 258.815 155.936 259.165 155.65C259.515 155.36 259.776 154.971 259.946 154.484C260.121 153.997 260.209 153.455 260.209 152.857C260.209 152.255 260.121 151.71 259.946 151.223C259.776 150.732 259.515 150.341 259.165 150.051C258.815 149.76 258.379 149.615 257.858 149.615C257.324 149.615 256.88 149.76 256.525 150.051C256.175 150.341 255.912 150.732 255.737 151.223C255.566 151.71 255.481 152.255 255.481 152.857C255.481 153.455 255.566 153.997 255.737 154.484C255.912 154.971 256.175 155.36 256.525 155.65C256.88 155.936 257.324 156.079 257.858 156.079Z" stroke="white"/>
<path d="M264.529 157.745V147.904H266.777V149.545H266.88C267.059 148.977 267.367 148.539 267.802 148.231C268.242 147.919 268.744 147.764 269.308 147.764C269.436 147.764 269.579 147.77 269.737 147.783C269.899 147.791 270.034 147.806 270.141 147.828V149.961C270.043 149.927 269.887 149.897 269.673 149.871C269.464 149.841 269.261 149.826 269.064 149.826C268.642 149.826 268.262 149.918 267.924 150.102C267.591 150.281 267.328 150.531 267.136 150.851C266.944 151.172 266.848 151.541 266.848 151.96V157.745H264.529Z" stroke="white"/>
<path d="M273.423 161.435C273.106 161.435 272.814 161.409 272.545 161.358C272.28 161.311 272.069 161.256 271.911 161.192L272.449 159.385C272.786 159.483 273.087 159.53 273.352 159.526C273.617 159.522 273.85 159.438 274.05 159.276C274.255 159.118 274.428 158.853 274.569 158.482L274.768 157.95L271.199 147.904H273.66L275.927 155.336H276.03L278.304 147.904H280.771L276.831 158.937C276.647 159.458 276.404 159.904 276.1 160.276C275.797 160.651 275.426 160.938 274.986 161.134C274.55 161.335 274.029 161.435 273.423 161.435Z" stroke="white"/>
<path d="M294.628 150.506L292.514 150.736C292.454 150.523 292.35 150.322 292.2 150.134C292.055 149.946 291.858 149.794 291.611 149.679C291.363 149.564 291.06 149.506 290.701 149.506C290.218 149.506 289.813 149.611 289.484 149.82C289.159 150.029 288.999 150.301 289.003 150.634C288.999 150.92 289.104 151.153 289.317 151.332C289.535 151.511 289.894 151.659 290.393 151.774L292.072 152.133C293.003 152.334 293.695 152.652 294.148 153.087C294.605 153.523 294.835 154.093 294.84 154.798C294.835 155.417 294.654 155.964 294.295 156.438C293.941 156.908 293.447 157.275 292.815 157.54C292.183 157.805 291.457 157.937 290.637 157.937C289.433 157.937 288.463 157.685 287.728 157.181C286.994 156.673 286.556 155.966 286.415 155.061L288.677 154.843C288.779 155.287 288.997 155.622 289.33 155.849C289.663 156.075 290.097 156.188 290.631 156.188C291.181 156.188 291.624 156.075 291.957 155.849C292.294 155.622 292.463 155.342 292.463 155.009C292.463 154.727 292.354 154.495 292.136 154.311C291.922 154.127 291.589 153.986 291.137 153.888L289.458 153.536C288.514 153.339 287.816 153.008 287.363 152.543C286.91 152.073 286.686 151.479 286.691 150.762C286.686 150.155 286.851 149.63 287.184 149.186C287.521 148.737 287.989 148.391 288.587 148.148C289.189 147.9 289.883 147.776 290.669 147.776C291.822 147.776 292.73 148.022 293.392 148.513C294.058 149.004 294.47 149.668 294.628 150.506Z" stroke="white"/>
<path d="M298.193 161.435C297.877 161.435 297.585 161.409 297.316 161.358C297.051 161.311 296.84 161.256 296.682 161.192L297.22 159.385C297.557 159.483 297.858 159.53 298.123 159.526C298.388 159.522 298.621 159.438 298.821 159.276C299.026 159.118 299.199 158.853 299.34 158.482L299.539 157.95L295.97 147.904H298.431L300.698 155.336H300.801L303.075 147.904H305.542L301.602 158.937C301.418 159.458 301.175 159.904 300.871 160.276C300.568 160.651 300.197 160.938 299.757 161.134C299.321 161.335 298.8 161.435 298.193 161.435Z" stroke="white"/>
<path d="M314.924 150.506L312.81 150.736C312.75 150.523 312.646 150.322 312.496 150.134C312.351 149.946 312.154 149.794 311.907 149.679C311.659 149.564 311.356 149.506 310.997 149.506C310.514 149.506 310.109 149.611 309.78 149.82C309.455 150.029 309.295 150.301 309.299 150.634C309.295 150.92 309.4 151.153 309.613 151.332C309.831 151.511 310.19 151.659 310.689 151.774L312.368 152.133C313.299 152.334 313.991 152.652 314.444 153.087C314.901 153.523 315.131 154.093 315.136 154.798C315.131 155.417 314.95 155.964 314.591 156.438C314.237 156.908 313.743 157.275 313.111 157.54C312.479 157.805 311.753 157.937 310.933 157.937C309.728 157.937 308.759 157.685 308.024 157.181C307.29 156.673 306.852 155.966 306.711 155.061L308.972 154.843C309.075 155.287 309.293 155.622 309.626 155.849C309.959 156.075 310.393 156.188 310.926 156.188C311.477 156.188 311.919 156.075 312.253 155.849C312.59 155.622 312.759 155.342 312.759 155.009C312.759 154.727 312.65 154.495 312.432 154.311C312.218 154.127 311.885 153.986 311.433 153.888L309.754 153.536C308.81 153.339 308.112 153.008 307.659 152.543C307.206 152.073 306.982 151.479 306.986 150.762C306.982 150.155 307.147 149.63 307.48 149.186C307.817 148.737 308.285 148.391 308.883 148.148C309.485 147.9 310.179 147.776 310.965 147.776C312.118 147.776 313.026 148.022 313.688 148.513C314.354 149.004 314.766 149.668 314.924 150.506Z" stroke="white"/>
<path d="M321.962 147.904V149.698H316.305V147.904H321.962ZM317.701 145.547H320.021V154.785C320.021 155.097 320.068 155.336 320.161 155.503C320.26 155.665 320.388 155.776 320.546 155.836C320.704 155.896 320.879 155.925 321.071 155.925C321.216 155.925 321.349 155.915 321.468 155.893C321.592 155.872 321.686 155.853 321.75 155.836L322.141 157.649C322.017 157.692 321.84 157.739 321.609 157.79C321.383 157.841 321.105 157.871 320.777 157.879C320.196 157.897 319.672 157.809 319.207 157.617C318.741 157.42 318.372 157.117 318.099 156.707C317.829 156.297 317.697 155.785 317.701 155.169V145.547Z" stroke="white"/>
<path d="M328.152 157.937C327.165 157.937 326.313 157.732 325.596 157.322C324.883 156.908 324.334 156.323 323.949 155.567C323.565 154.806 323.373 153.912 323.373 152.882C323.373 151.87 323.565 150.982 323.949 150.217C324.338 149.448 324.88 148.851 325.577 148.423C326.273 147.992 327.091 147.776 328.03 147.776C328.637 147.776 329.209 147.875 329.747 148.071C330.29 148.263 330.768 148.562 331.182 148.968C331.601 149.374 331.93 149.891 332.169 150.518C332.408 151.142 332.528 151.885 332.528 152.748V153.459H324.462V151.896H330.305C330.3 151.452 330.204 151.056 330.016 150.711C329.828 150.36 329.566 150.085 329.228 149.884C328.895 149.683 328.507 149.583 328.062 149.583C327.588 149.583 327.172 149.698 326.813 149.929C326.454 150.155 326.175 150.454 325.974 150.826C325.777 151.193 325.677 151.597 325.673 152.037V153.401C325.673 153.974 325.777 154.465 325.987 154.875C326.196 155.281 326.488 155.592 326.864 155.81C327.24 156.024 327.68 156.13 328.184 156.13C328.522 156.13 328.827 156.083 329.1 155.99C329.374 155.891 329.611 155.748 329.811 155.56C330.012 155.372 330.164 155.14 330.266 154.862L332.432 155.105C332.295 155.678 332.034 156.177 331.65 156.605C331.27 157.027 330.783 157.356 330.189 157.591C329.596 157.822 328.917 157.937 328.152 157.937Z" stroke="white"/>
<path d="M334.49 157.745V147.904H336.706V149.577H336.822C337.027 149.013 337.366 148.573 337.84 148.257C338.314 147.937 338.88 147.776 339.538 147.776C340.204 147.776 340.766 147.939 341.223 148.263C341.684 148.584 342.009 149.021 342.197 149.577H342.299C342.517 149.03 342.884 148.594 343.401 148.27C343.922 147.941 344.539 147.776 345.253 147.776C346.158 147.776 346.897 148.063 347.469 148.635C348.042 149.207 348.328 150.042 348.328 151.14V157.745H346.002V151.499C346.002 150.888 345.84 150.441 345.515 150.16C345.191 149.873 344.794 149.73 344.324 149.73C343.764 149.73 343.326 149.905 343.01 150.256C342.699 150.602 342.543 151.052 342.543 151.607V157.745H340.268V151.402C340.268 150.894 340.115 150.488 339.807 150.185C339.504 149.882 339.107 149.73 338.616 149.73C338.282 149.73 337.979 149.816 337.706 149.987C337.432 150.153 337.215 150.39 337.052 150.698C336.89 151.001 336.809 151.355 336.809 151.761V157.745H334.49Z" stroke="white"/>
</svg>
